G04 Layer_Color=16711935*
%FSLAX25Y25*%
%MOIN*%
G70*
G01*
G75*
%ADD50R,0.06706X0.06706*%
%ADD51C,0.06706*%
%ADD52C,0.08800*%
%ADD53C,0.06706*%
%ADD54C,0.07296*%
%ADD55R,0.07296X0.07296*%
%ADD56C,0.06800*%
%ADD57C,0.07300*%
%ADD58C,0.06400*%
%ADD59C,0.12611*%
%ADD60C,0.07800*%
%ADD61C,0.05524*%
D50*
X501000Y465000D02*
D03*
D51*
Y455000D02*
D03*
Y445000D02*
D03*
Y435000D02*
D03*
Y425000D02*
D03*
Y415000D02*
D03*
Y405000D02*
D03*
X531000Y465000D02*
D03*
Y455000D02*
D03*
Y445000D02*
D03*
Y435000D02*
D03*
Y425000D02*
D03*
Y415000D02*
D03*
Y405000D02*
D03*
D52*
X358000Y394291D02*
D03*
X368000D02*
D03*
X358000Y435000D02*
D03*
Y445000D02*
D03*
Y455000D02*
D03*
Y465000D02*
D03*
X368000Y425000D02*
D03*
Y435000D02*
D03*
Y445000D02*
D03*
Y455000D02*
D03*
Y465000D02*
D03*
X358000Y425000D02*
D03*
Y414764D02*
D03*
X368000D02*
D03*
Y404528D02*
D03*
X358000D02*
D03*
Y384055D02*
D03*
X368000D02*
D03*
Y373819D02*
D03*
X358000D02*
D03*
X426000Y333000D02*
D03*
Y343000D02*
D03*
X460000Y446000D02*
D03*
Y436000D02*
D03*
Y426000D02*
D03*
Y416000D02*
D03*
X450000Y456000D02*
D03*
Y446000D02*
D03*
Y436000D02*
D03*
Y426000D02*
D03*
Y416000D02*
D03*
X460000Y456000D02*
D03*
Y466236D02*
D03*
X450000D02*
D03*
X320000Y435000D02*
D03*
Y445000D02*
D03*
Y455000D02*
D03*
Y465000D02*
D03*
X330000Y425000D02*
D03*
Y435000D02*
D03*
Y445000D02*
D03*
Y455000D02*
D03*
Y465000D02*
D03*
X320000Y425000D02*
D03*
X505000Y364000D02*
D03*
Y374000D02*
D03*
X577000Y438000D02*
D03*
Y428000D02*
D03*
Y418000D02*
D03*
Y408000D02*
D03*
X567000Y448000D02*
D03*
Y438000D02*
D03*
Y428000D02*
D03*
Y418000D02*
D03*
Y408000D02*
D03*
X577000Y448000D02*
D03*
D53*
X429000Y473000D02*
D03*
X399000D02*
D03*
X389000D02*
D03*
X429000Y453000D02*
D03*
X399000D02*
D03*
X389000D02*
D03*
D54*
X430134Y370000D02*
D03*
X430268Y384000D02*
D03*
D55*
X471866Y370000D02*
D03*
X472000Y384000D02*
D03*
D56*
X686000Y316000D02*
D03*
Y488000D02*
D03*
X302000D02*
D03*
Y316000D02*
D03*
D57*
X555980Y483000D02*
D03*
X565980D02*
D03*
X546000D02*
D03*
X536000D02*
D03*
X507000D02*
D03*
X517000D02*
D03*
X497020D02*
D03*
X487020D02*
D03*
X573980Y365000D02*
D03*
X583980D02*
D03*
X564000D02*
D03*
X554000D02*
D03*
X574000Y375000D02*
D03*
X584000D02*
D03*
X564020D02*
D03*
X554020D02*
D03*
X540000Y465000D02*
D03*
Y455000D02*
D03*
Y405000D02*
D03*
Y415000D02*
D03*
X490000Y465000D02*
D03*
Y455000D02*
D03*
X491000Y405000D02*
D03*
Y415000D02*
D03*
X454000Y345000D02*
D03*
Y355000D02*
D03*
D58*
X386000Y378000D02*
D03*
X406000D02*
D03*
X396000D02*
D03*
X386000Y358000D02*
D03*
X406000D02*
D03*
X396000D02*
D03*
X386000Y431000D02*
D03*
X406000D02*
D03*
X396000D02*
D03*
X386000Y398000D02*
D03*
X406000D02*
D03*
X396000D02*
D03*
D59*
X664000Y473000D02*
D03*
Y453000D02*
D03*
Y353000D02*
D03*
Y333000D02*
D03*
Y393000D02*
D03*
Y373000D02*
D03*
Y433000D02*
D03*
Y413000D02*
D03*
D60*
X552000Y343000D02*
D03*
X542000D02*
D03*
X532000D02*
D03*
X522000D02*
D03*
X502000D02*
D03*
X492000D02*
D03*
X482000D02*
D03*
D61*
X649000Y443000D02*
D03*
Y439000D02*
D03*
Y402000D02*
D03*
Y398000D02*
D03*
Y358000D02*
D03*
Y362000D02*
D03*
X421000Y365000D02*
D03*
X394000Y337000D02*
D03*
X343000Y363000D02*
D03*
X329000Y344000D02*
D03*
X416000Y409000D02*
D03*
X412000Y421000D02*
D03*
X577000Y483000D02*
D03*
X379500Y364000D02*
D03*
X371000Y356000D02*
D03*
X610000Y430000D02*
D03*
Y419000D02*
D03*
Y388000D02*
D03*
Y377000D02*
D03*
Y472000D02*
D03*
Y461000D02*
D03*
Y336000D02*
D03*
Y347000D02*
D03*
X357000Y358000D02*
D03*
X480000Y454000D02*
D03*
X394000Y329000D02*
D03*
X343000Y374000D02*
D03*
M02*
