G04 Layer_Color=16711935*
%FSLAX25Y25*%
%MOIN*%
G70*
G01*
G75*
%ADD36C,0.00500*%
%ADD62C,0.00100*%
%ADD63C,0.00098*%
G36*
X461506Y345601D02*
X463704D01*
Y344675D01*
X461506D01*
Y342500D01*
X460592D01*
Y344675D01*
X458417D01*
Y345601D01*
X460592D01*
Y347776D01*
X461506D01*
Y345601D01*
D02*
G37*
G36*
X460087Y325276D02*
X457724D01*
Y334724D01*
X460087D01*
Y325276D01*
D02*
G37*
G36*
X586087Y347276D02*
X583724D01*
Y356724D01*
X586087D01*
Y347276D01*
D02*
G37*
D36*
X405516Y373563D02*
G03*
X406486Y378550I-9516J4437D01*
G01*
X406486Y378549D02*
G03*
X405516Y382437I-10486J-550D01*
G01*
X386484D02*
G03*
X385514Y378549I9516J-4437D01*
G01*
X385514Y378550D02*
G03*
X386484Y373563I10486J-550D01*
G01*
X405516D02*
G03*
X406486Y378550I-9516J4437D01*
G01*
X406486Y378549D02*
G03*
X405516Y382437I-10486J-550D01*
G01*
X386484D02*
G03*
X385514Y378549I9516J-4437D01*
G01*
X385514Y378550D02*
G03*
X386484Y373563I10486J-550D01*
G01*
X405516Y353563D02*
G03*
X406486Y358550I-9516J4437D01*
G01*
X406486Y358549D02*
G03*
X405516Y362437I-10486J-550D01*
G01*
X386484D02*
G03*
X385514Y358549I9516J-4437D01*
G01*
X385514Y358550D02*
G03*
X386484Y353563I10486J-550D01*
G01*
X405516D02*
G03*
X406486Y358550I-9516J4437D01*
G01*
X406486Y358549D02*
G03*
X405516Y362437I-10486J-550D01*
G01*
X386484D02*
G03*
X385514Y358549I9516J-4437D01*
G01*
X385514Y358550D02*
G03*
X386484Y353563I10486J-550D01*
G01*
X405516Y426563D02*
G03*
X406486Y431550I-9516J4437D01*
G01*
X406486Y431549D02*
G03*
X405516Y435437I-10486J-550D01*
G01*
X386484D02*
G03*
X385514Y431549I9516J-4437D01*
G01*
X385514Y431550D02*
G03*
X386484Y426563I10486J-550D01*
G01*
X405516D02*
G03*
X406486Y431550I-9516J4437D01*
G01*
X406486Y431549D02*
G03*
X405516Y435437I-10486J-550D01*
G01*
X386484D02*
G03*
X385514Y431549I9516J-4437D01*
G01*
X385514Y431550D02*
G03*
X386484Y426563I10486J-550D01*
G01*
X405516Y393563D02*
G03*
X406486Y398550I-9516J4437D01*
G01*
X406486Y398549D02*
G03*
X405516Y402437I-10486J-550D01*
G01*
X386484D02*
G03*
X385514Y398549I9516J-4437D01*
G01*
X385514Y398550D02*
G03*
X386484Y393563I10486J-550D01*
G01*
X405516D02*
G03*
X406486Y398550I-9516J4437D01*
G01*
X406486Y398549D02*
G03*
X405516Y402437I-10486J-550D01*
G01*
X386484D02*
G03*
X385514Y398549I9516J-4437D01*
G01*
X385514Y398550D02*
G03*
X386484Y393563I10486J-550D01*
G01*
X440000Y327000D02*
Y349000D01*
X419000Y331000D02*
Y345000D01*
X415000Y331000D02*
Y345000D01*
X412000Y327000D02*
X440000D01*
X412000Y349000D02*
X440000D01*
X415000Y331000D02*
X419000D01*
X412000Y327000D02*
Y331000D01*
X415000D01*
Y345000D02*
X419000D01*
X412000D02*
X415000D01*
X412000D02*
Y347000D01*
Y349000D01*
X391528Y378500D02*
X400472D01*
X401528D02*
X406488D01*
X385512D02*
X390472D01*
X391528D02*
X400472D01*
X401528D02*
X406488D01*
X385512D02*
X390472D01*
X519000Y358000D02*
Y380000D01*
X498000Y362000D02*
Y376000D01*
X494000Y362000D02*
Y376000D01*
X491000Y358000D02*
X519000D01*
X491000Y380000D02*
X519000D01*
X494000Y362000D02*
X498000D01*
X491000Y358000D02*
Y362000D01*
X494000D01*
Y376000D02*
X498000D01*
X491000D02*
X494000D01*
X491000D02*
Y378000D01*
Y380000D01*
X391528Y358500D02*
X400472D01*
X401528D02*
X406488D01*
X385512D02*
X390472D01*
X391528D02*
X400472D01*
X401528D02*
X406488D01*
X385512D02*
X390472D01*
X391528Y431500D02*
X400472D01*
X401528D02*
X406488D01*
X385512D02*
X390472D01*
X391528D02*
X400472D01*
X401528D02*
X406488D01*
X385512D02*
X390472D01*
X391528Y398500D02*
X400472D01*
X401528D02*
X406488D01*
X385512D02*
X390472D01*
X391528D02*
X400472D01*
X401528D02*
X406488D01*
X385512D02*
X390472D01*
D62*
X671000Y473000D02*
G03*
X671000Y473000I-7000J0D01*
G01*
Y453000D02*
G03*
X671000Y453000I-7000J0D01*
G01*
Y353000D02*
G03*
X671000Y353000I-7000J0D01*
G01*
Y333000D02*
G03*
X671000Y333000I-7000J0D01*
G01*
Y393000D02*
G03*
X671000Y393000I-7000J0D01*
G01*
Y373000D02*
G03*
X671000Y373000I-7000J0D01*
G01*
Y433000D02*
G03*
X671000Y433000I-7000J0D01*
G01*
Y413000D02*
G03*
X671000Y413000I-7000J0D01*
G01*
X466500Y350000D02*
G03*
X466500Y350000I-12500J0D01*
G01*
X340000Y350500D02*
Y355500D01*
X332000Y350500D02*
X340000D01*
X332000Y355500D02*
X340000D01*
X332000Y350500D02*
Y355500D01*
X412000Y366500D02*
Y371500D01*
X420000D01*
X412000Y366500D02*
X420000D01*
Y371500D01*
X340000Y362500D02*
Y367500D01*
X332000Y362500D02*
X340000D01*
X332000Y367500D02*
X340000D01*
X332000Y362500D02*
Y367500D01*
X633000Y352000D02*
Y356000D01*
X625000Y352000D02*
X633000D01*
X625000Y356000D02*
X633000D01*
X625000Y352000D02*
Y356000D01*
X641000Y341000D02*
X645000D01*
Y333000D02*
Y341000D01*
X641000Y333000D02*
Y341000D01*
Y333000D02*
X645000D01*
X648000Y443000D02*
Y483000D01*
X680000Y443000D02*
Y483000D01*
X672000Y443000D02*
Y483000D01*
X648000D02*
X680000D01*
X648000Y443000D02*
X680000D01*
X660500Y479000D02*
X670000Y469500D01*
X658000Y476500D02*
X667500Y467000D01*
X653000Y483000D02*
X675000D01*
X653000Y443000D02*
X675000D01*
X660500Y459000D02*
X670000Y449500D01*
X658000Y456500D02*
X667500Y447000D01*
X679000Y465000D02*
Y481000D01*
X680000D01*
X679000Y465000D02*
X680000D01*
X648000Y443000D02*
Y444000D01*
X679000Y461000D02*
X680000D01*
X679000Y445000D02*
Y461000D01*
Y445000D02*
X680000D01*
X648000Y323000D02*
Y363000D01*
X680000Y323000D02*
Y363000D01*
X672000Y323000D02*
Y363000D01*
X648000D02*
X680000D01*
X648000Y323000D02*
X680000D01*
X660500Y359000D02*
X670000Y349500D01*
X658000Y356500D02*
X667500Y347000D01*
X653000Y363000D02*
X675000D01*
X653000Y323000D02*
X675000D01*
X660500Y339000D02*
X670000Y329500D01*
X658000Y336500D02*
X667500Y327000D01*
X679000Y345000D02*
Y361000D01*
X680000D01*
X679000Y345000D02*
X680000D01*
X648000Y323000D02*
Y324000D01*
X679000Y341000D02*
X680000D01*
X679000Y325000D02*
Y341000D01*
Y325000D02*
X680000D01*
X648000Y363000D02*
Y403000D01*
X680000Y363000D02*
Y403000D01*
X672000Y363000D02*
Y403000D01*
X648000D02*
X680000D01*
X648000Y363000D02*
X680000D01*
X660500Y399000D02*
X670000Y389500D01*
X658000Y396500D02*
X667500Y387000D01*
X653000Y403000D02*
X675000D01*
X653000Y363000D02*
X675000D01*
X660500Y379000D02*
X670000Y369500D01*
X658000Y376500D02*
X667500Y367000D01*
X679000Y385000D02*
Y401000D01*
X680000D01*
X679000Y385000D02*
X680000D01*
X648000Y363000D02*
Y364000D01*
X679000Y381000D02*
X680000D01*
X679000Y365000D02*
Y381000D01*
Y365000D02*
X680000D01*
X648000Y403000D02*
Y443000D01*
X680000Y403000D02*
Y443000D01*
X672000Y403000D02*
Y443000D01*
X648000D02*
X680000D01*
X648000Y403000D02*
X680000D01*
X660500Y439000D02*
X670000Y429500D01*
X658000Y436500D02*
X667500Y427000D01*
X653000Y443000D02*
X675000D01*
X653000Y403000D02*
X675000D01*
X660500Y419000D02*
X670000Y409500D01*
X658000Y416500D02*
X667500Y407000D01*
X679000Y425000D02*
Y441000D01*
X680000D01*
X679000Y425000D02*
X680000D01*
X648000Y403000D02*
Y404000D01*
X679000Y421000D02*
X680000D01*
X679000Y405000D02*
Y421000D01*
Y405000D02*
X680000D01*
X405000Y326500D02*
Y331500D01*
X397000Y326500D02*
X405000D01*
X397000Y331500D02*
X405000D01*
X397000Y326500D02*
Y331500D01*
X405000Y334500D02*
Y339500D01*
X397000Y334500D02*
X405000D01*
X397000Y339500D02*
X405000D01*
X397000Y334500D02*
Y339500D01*
X575850Y333095D02*
Y344905D01*
Y333095D02*
X582150D01*
Y344905D01*
X575850D02*
X582150D01*
X396000Y410500D02*
Y415500D01*
X388000Y410500D02*
X396000D01*
X388000Y415500D02*
X396000D01*
X388000Y410500D02*
Y415500D01*
X474000Y320000D02*
X560000D01*
Y356000D01*
X474000D02*
X560000D01*
X474000Y320000D02*
Y356000D01*
X563000Y328000D02*
X567000D01*
X563000D02*
Y336000D01*
X567000Y328000D02*
Y336000D01*
X563000D02*
X567000D01*
X546500Y457000D02*
X551500D01*
X546500D02*
Y465000D01*
X551500Y457000D02*
Y465000D01*
X546500D02*
X551500D01*
X477500Y457000D02*
X482500D01*
X477500D02*
Y465000D01*
X482500Y457000D02*
Y465000D01*
X477500D02*
X482500D01*
X546500Y413000D02*
X551500D01*
Y405000D02*
Y413000D01*
X546500Y405000D02*
Y413000D01*
Y405000D02*
X551500D01*
X502000Y392500D02*
Y397500D01*
X494000Y392500D02*
X502000D01*
X494000Y397500D02*
X502000D01*
X494000Y392500D02*
Y397500D01*
X585000Y476500D02*
Y481500D01*
X577000Y476500D02*
X585000D01*
X577000Y481500D02*
X585000D01*
X577000Y476500D02*
Y481500D01*
X600500Y327000D02*
X605500D01*
X600500D02*
Y335000D01*
X605500Y327000D02*
Y335000D01*
X600500D02*
X605500D01*
X641000Y382000D02*
X645000D01*
Y374000D02*
Y382000D01*
X641000Y374000D02*
Y382000D01*
Y374000D02*
X645000D01*
X600500Y368000D02*
X605500D01*
X600500D02*
Y376000D01*
X605500Y368000D02*
Y376000D01*
X600500D02*
X605500D01*
X633000Y394000D02*
Y398000D01*
X625000Y394000D02*
X633000D01*
X625000Y398000D02*
X633000D01*
X625000Y394000D02*
Y398000D01*
X600500Y410000D02*
X605500D01*
X600500D02*
Y418000D01*
X605500Y410000D02*
Y418000D01*
X600500D02*
X605500D01*
X633000Y436000D02*
Y440000D01*
X625000Y436000D02*
X633000D01*
X625000Y440000D02*
X633000D01*
X625000Y436000D02*
Y440000D01*
X641000Y424000D02*
X645000D01*
Y416000D02*
Y424000D01*
X641000Y416000D02*
Y424000D01*
Y416000D02*
X645000D01*
X600500Y453000D02*
X605500D01*
X600500D02*
Y461000D01*
X605500Y453000D02*
Y461000D01*
X600500D02*
X605500D01*
X641000Y466000D02*
X645000D01*
Y458000D02*
Y466000D01*
X641000Y458000D02*
Y466000D01*
Y458000D02*
X645000D01*
X635000Y477000D02*
Y481000D01*
X627000Y477000D02*
X635000D01*
X627000Y481000D02*
X635000D01*
X627000Y477000D02*
Y481000D01*
X340000Y371500D02*
Y376500D01*
X332000Y371500D02*
X340000D01*
X332000Y376500D02*
X340000D01*
X332000Y371500D02*
Y376500D01*
X340000Y341500D02*
Y346500D01*
X332000Y341500D02*
X340000D01*
X332000Y346500D02*
X340000D01*
X332000Y341500D02*
Y346500D01*
X491000Y434000D02*
X495000D01*
Y426000D02*
Y434000D01*
X491000Y426000D02*
Y434000D01*
Y426000D02*
X495000D01*
X478000Y358500D02*
Y363500D01*
X470000Y358500D02*
X478000D01*
X470000Y363500D02*
X478000D01*
X470000Y358500D02*
Y363500D01*
X468000Y330000D02*
X472000D01*
X468000D02*
Y338000D01*
X472000Y330000D02*
Y338000D01*
X468000D02*
X472000D01*
X532000Y358000D02*
Y362000D01*
X524000Y358000D02*
X532000D01*
X524000Y362000D02*
X532000D01*
X524000Y358000D02*
Y362000D01*
D63*
X586087Y347276D02*
Y356724D01*
X571913Y347276D02*
Y356724D01*
X586087D01*
X571913Y347276D02*
X586087D01*
X445913Y325276D02*
X460087D01*
X445913Y334724D02*
X460087D01*
X445913Y325276D02*
Y334724D01*
X460087Y325276D02*
Y334724D01*
M02*
