G04 Layer_Color=65535*
%FSLAX25Y25*%
%MOIN*%
G70*
G01*
G75*
%ADD35C,0.00787*%
%ADD36C,0.00500*%
%ADD37C,0.00984*%
%ADD38C,0.00394*%
%ADD39C,0.00600*%
%ADD40C,0.01000*%
G36*
X587752Y384996D02*
X587776Y384973D01*
X587787Y384927D01*
X587822Y384869D01*
X587856Y384800D01*
X587903Y384719D01*
X588019Y384522D01*
X588146Y384291D01*
X588308Y384059D01*
X588493Y383816D01*
X588690Y383573D01*
X588701Y383562D01*
X588713Y383550D01*
X588747Y383515D01*
X588782Y383469D01*
X588898Y383365D01*
X589037Y383226D01*
X589199Y383087D01*
X589384Y382937D01*
X589569Y382810D01*
X589766Y382694D01*
Y382057D01*
X581724D01*
Y383041D01*
X587984D01*
X587972Y383052D01*
X587926Y383110D01*
X587856Y383180D01*
X587776Y383295D01*
X587671Y383423D01*
X587556Y383585D01*
X587428Y383770D01*
X587301Y383978D01*
Y383990D01*
X587290Y384001D01*
X587243Y384071D01*
X587185Y384186D01*
X587116Y384325D01*
X587035Y384487D01*
X586954Y384661D01*
X586873Y384834D01*
X586804Y385008D01*
X587752D01*
Y384996D01*
D02*
G37*
G36*
X461506Y345601D02*
X463704D01*
Y344675D01*
X461506D01*
Y342500D01*
X460592D01*
Y344675D01*
X458417D01*
Y345601D01*
X460592D01*
Y347776D01*
X461506D01*
Y345601D01*
D02*
G37*
G36*
X315276Y489959D02*
X309016D01*
X309028Y489948D01*
X309074Y489890D01*
X309143Y489820D01*
X309225Y489705D01*
X309329Y489577D01*
X309444Y489415D01*
X309572Y489230D01*
X309699Y489022D01*
Y489010D01*
X309710Y488999D01*
X309757Y488929D01*
X309815Y488814D01*
X309884Y488675D01*
X309965Y488513D01*
X310046Y488339D01*
X310127Y488166D01*
X310196Y487992D01*
X309248D01*
Y488004D01*
X309225Y488027D01*
X309213Y488073D01*
X309178Y488131D01*
X309143Y488200D01*
X309097Y488281D01*
X308981Y488478D01*
X308854Y488709D01*
X308692Y488941D01*
X308507Y489184D01*
X308310Y489427D01*
X308299Y489438D01*
X308287Y489450D01*
X308253Y489485D01*
X308218Y489531D01*
X308102Y489635D01*
X307963Y489774D01*
X307801Y489913D01*
X307616Y490063D01*
X307431Y490190D01*
X307234Y490306D01*
Y490942D01*
X315276D01*
Y489959D01*
D02*
G37*
G36*
X353276D02*
X347016D01*
X347028Y489948D01*
X347074Y489890D01*
X347144Y489820D01*
X347224Y489705D01*
X347329Y489577D01*
X347444Y489415D01*
X347572Y489230D01*
X347699Y489022D01*
Y489010D01*
X347710Y488999D01*
X347757Y488929D01*
X347815Y488814D01*
X347884Y488675D01*
X347965Y488513D01*
X348046Y488339D01*
X348127Y488166D01*
X348196Y487992D01*
X347248D01*
Y488004D01*
X347224Y488027D01*
X347213Y488073D01*
X347178Y488131D01*
X347144Y488200D01*
X347097Y488281D01*
X346982Y488478D01*
X346854Y488709D01*
X346692Y488941D01*
X346507Y489184D01*
X346310Y489427D01*
X346299Y489438D01*
X346287Y489450D01*
X346253Y489485D01*
X346218Y489531D01*
X346102Y489635D01*
X345963Y489774D01*
X345801Y489913D01*
X345616Y490063D01*
X345431Y490190D01*
X345234Y490306D01*
Y490942D01*
X353276D01*
Y489959D01*
D02*
G37*
G36*
X466000Y395203D02*
X459741D01*
X459752Y395192D01*
X459798Y395134D01*
X459868Y395064D01*
X459949Y394949D01*
X460053Y394821D01*
X460169Y394659D01*
X460296Y394474D01*
X460423Y394266D01*
Y394254D01*
X460435Y394243D01*
X460481Y394173D01*
X460539Y394058D01*
X460608Y393919D01*
X460689Y393757D01*
X460770Y393583D01*
X460851Y393410D01*
X460921Y393236D01*
X459972D01*
Y393248D01*
X459949Y393271D01*
X459937Y393317D01*
X459903Y393375D01*
X459868Y393444D01*
X459822Y393526D01*
X459706Y393722D01*
X459579Y393954D01*
X459417Y394185D01*
X459232Y394428D01*
X459035Y394671D01*
X459023Y394683D01*
X459012Y394694D01*
X458977Y394729D01*
X458942Y394775D01*
X458827Y394879D01*
X458688Y395018D01*
X458526Y395157D01*
X458341Y395307D01*
X458155Y395434D01*
X457959Y395550D01*
Y396187D01*
X466000D01*
Y395203D01*
D02*
G37*
D35*
X513500Y473779D02*
G03*
X518500Y473779I2500J0D01*
G01*
X505567D02*
X513500D01*
X518500D02*
X526433D01*
X505567Y396220D02*
X526433D01*
X505567D02*
Y473779D01*
X526433Y396220D02*
Y473779D01*
X628543Y412157D02*
Y431843D01*
X621457Y412157D02*
Y431843D01*
Y412157D02*
X628543D01*
X621457Y431843D02*
X628543D01*
Y454157D02*
Y473842D01*
X621457Y454157D02*
Y473842D01*
Y454157D02*
X628543D01*
X621457Y473842D02*
X628543D01*
Y370158D02*
Y389843D01*
X621457Y370158D02*
Y389843D01*
Y370158D02*
X628543D01*
X621457Y389843D02*
X628543D01*
Y329157D02*
Y348843D01*
X621457Y329157D02*
Y348843D01*
Y329157D02*
X628543D01*
X621457Y348843D02*
X628543D01*
D36*
X386484Y373563D02*
G03*
X405516Y373563I9516J4437D01*
G01*
X405518Y382437D02*
G03*
X404276Y384464I-9516J-4438D01*
G01*
X387724Y384464D02*
G03*
X386482Y382437I8274J-6464D01*
G01*
X386484Y353563D02*
G03*
X405516Y353563I9516J4437D01*
G01*
X405518Y362437D02*
G03*
X404276Y364464I-9516J-4438D01*
G01*
X387724Y364464D02*
G03*
X386482Y362437I8274J-6464D01*
G01*
X386484Y426563D02*
G03*
X405516Y426563I9516J4437D01*
G01*
X405518Y435437D02*
G03*
X404276Y437464I-9516J-4438D01*
G01*
X387724Y437464D02*
G03*
X386482Y435437I8274J-6464D01*
G01*
X386484Y393563D02*
G03*
X405516Y393563I9516J4437D01*
G01*
X405518Y402437D02*
G03*
X404276Y404464I-9516J-4438D01*
G01*
X387724Y404464D02*
G03*
X386482Y402437I8274J-6464D01*
G01*
X466500Y350000D02*
G03*
X466500Y350000I-12500J0D01*
G01*
X345402Y484842D02*
X381622D01*
Y395866D02*
Y484842D01*
X345402Y354134D02*
Y484842D01*
Y354134D02*
X381622D01*
Y395866D01*
X441000Y326000D02*
Y350000D01*
X411000Y326000D02*
Y350000D01*
Y326000D02*
X441000D01*
X411000Y350000D02*
X441000D01*
X436378Y396158D02*
X472598D01*
X436378D02*
Y485134D01*
X472598Y396158D02*
Y485545D01*
X472500Y485528D02*
X472598Y485545D01*
X440315Y485528D02*
X472500D01*
X436378D02*
X440315D01*
X436378Y485134D02*
Y485528D01*
X440764Y364685D02*
X457988D01*
X461236D01*
X457988Y375315D02*
X461236D01*
X440764D02*
X457988D01*
Y364685D02*
Y375315D01*
X461236Y364685D02*
Y370000D01*
Y375315D01*
X440764Y370000D02*
Y375315D01*
Y364685D02*
Y370000D01*
X550980Y488000D02*
X570980D01*
X550980Y478000D02*
X570980D01*
Y488000D01*
X530999Y478000D02*
Y488000D01*
Y478000D02*
X551000D01*
X530999Y488000D02*
X551000D01*
X501999D02*
X522000D01*
X501999Y478000D02*
X522000D01*
Y488000D01*
X482019Y478000D02*
Y488000D01*
Y478000D02*
X502020D01*
X482019Y488000D02*
X502020D01*
X568980Y370000D02*
X588980D01*
X568980Y360000D02*
X588980D01*
Y370000D01*
X548999Y360000D02*
Y370000D01*
Y360000D02*
X569000D01*
X548999Y370000D02*
X569000D01*
X568999Y380000D02*
X589000D01*
X568999Y370000D02*
X589000D01*
Y380000D01*
X549019Y370000D02*
Y380000D01*
Y370000D02*
X569020D01*
X549019Y380000D02*
X569020D01*
X329000Y349000D02*
Y357000D01*
X343000Y349000D02*
Y357000D01*
X329000Y349000D02*
X343000D01*
X329000Y357000D02*
X343000D01*
X387752Y384500D02*
X404248D01*
X307402Y484842D02*
X343622D01*
Y404921D02*
Y484842D01*
X307402Y404921D02*
Y484842D01*
Y404921D02*
X343622D01*
X423000Y365000D02*
Y373000D01*
X409000Y365000D02*
Y373000D01*
X423000D01*
X409000Y365000D02*
X423000D01*
X329000Y361000D02*
Y369000D01*
X343000Y361000D02*
Y369000D01*
X329000Y361000D02*
X343000D01*
X329000Y369000D02*
X343000D01*
X622000Y350000D02*
X636000D01*
X622000Y358000D02*
X636000D01*
X622000Y350000D02*
Y358000D01*
X636000Y350000D02*
Y358000D01*
X647000Y330000D02*
Y344000D01*
X639000Y330000D02*
Y344000D01*
Y330000D02*
X647000D01*
X639000Y344000D02*
X647000D01*
X648000Y443000D02*
Y483000D01*
X680000Y443000D02*
Y483000D01*
X648000D02*
X680000D01*
X648000Y443000D02*
X680000D01*
X653000Y483000D02*
X675000D01*
X653000Y443000D02*
X675000D01*
X648000D02*
Y444000D01*
Y323000D02*
Y363000D01*
X680000Y323000D02*
Y363000D01*
X648000D02*
X680000D01*
X648000Y323000D02*
X680000D01*
X653000Y363000D02*
X675000D01*
X653000Y323000D02*
X675000D01*
X648000D02*
Y324000D01*
Y363000D02*
Y403000D01*
X680000Y363000D02*
Y403000D01*
X648000D02*
X680000D01*
X648000Y363000D02*
X680000D01*
X653000Y403000D02*
X675000D01*
X653000Y363000D02*
X675000D01*
X648000D02*
Y364000D01*
Y403000D02*
Y443000D01*
X680000Y403000D02*
Y443000D01*
X648000D02*
X680000D01*
X648000Y403000D02*
X680000D01*
X653000Y443000D02*
X675000D01*
X653000Y403000D02*
X675000D01*
X648000D02*
Y404000D01*
X394000Y325000D02*
Y333000D01*
X408000Y325000D02*
Y333000D01*
X394000Y325000D02*
X408000D01*
X394000Y333000D02*
X408000D01*
X394000D02*
Y341000D01*
X408000Y333000D02*
Y341000D01*
X394000Y333000D02*
X408000D01*
X394000Y341000D02*
X408000D01*
X584905Y358299D02*
Y358693D01*
X589630D01*
Y345307D02*
Y358693D01*
X584905Y345307D02*
X589630D01*
X584905D02*
Y345701D01*
X589236D02*
Y358299D01*
X568764D02*
X589236D01*
X568764Y345701D02*
Y358299D01*
Y345701D02*
X589236D01*
X570339Y332701D02*
Y345299D01*
Y332701D02*
X587661D01*
Y345299D01*
X570339D02*
X587661D01*
X440898Y378685D02*
X458122D01*
X461370D01*
X458122Y389315D02*
X461370D01*
X440898D02*
X458122D01*
Y378685D02*
Y389315D01*
X461370Y378685D02*
Y384000D01*
Y389315D01*
X440898Y384000D02*
Y389315D01*
Y378685D02*
Y384000D01*
X385000Y409000D02*
Y417000D01*
X399000Y409000D02*
Y417000D01*
X385000Y409000D02*
X399000D01*
X385000Y417000D02*
X399000D01*
X520000Y357000D02*
Y381000D01*
X490000Y357000D02*
Y381000D01*
Y357000D02*
X520000D01*
X490000Y381000D02*
X520000D01*
X474000Y320000D02*
Y356000D01*
Y320000D02*
X560000D01*
Y356000D01*
X474000D02*
X560000D01*
X561000Y325000D02*
Y339000D01*
X569000Y325000D02*
Y339000D01*
X561000D02*
X569000D01*
X561000Y325000D02*
X569000D01*
X545000Y468000D02*
X553000D01*
X545000Y454000D02*
X553000D01*
X545000D02*
Y468000D01*
X553000Y454000D02*
Y468000D01*
X545000Y450000D02*
Y470001D01*
X535000Y450000D02*
Y470001D01*
Y450000D02*
X545000D01*
X535000Y470001D02*
X545000D01*
X535000Y399999D02*
Y420000D01*
X545000Y399999D02*
Y420000D01*
X535000D02*
X545000D01*
X535000Y399999D02*
X545000D01*
X476000Y468000D02*
X484000D01*
X476000Y454000D02*
X484000D01*
X476000D02*
Y468000D01*
X484000Y454000D02*
Y468000D01*
X495000Y450000D02*
Y470001D01*
X485000Y450000D02*
Y470001D01*
Y450000D02*
X495000D01*
X485000Y470001D02*
X495000D01*
X486000Y399999D02*
Y420000D01*
X496000Y399999D02*
Y420000D01*
X486000D02*
X496000D01*
X486000Y399999D02*
X496000D01*
X545000Y402000D02*
X553000D01*
X545000Y416000D02*
X553000D01*
Y402000D02*
Y416000D01*
X545000Y402000D02*
Y416000D01*
X491000Y391000D02*
Y399000D01*
X505000Y391000D02*
Y399000D01*
X491000Y391000D02*
X505000D01*
X491000Y399000D02*
X505000D01*
X579362Y468850D02*
Y475150D01*
X564402Y468850D02*
Y475150D01*
X579362D01*
X564402Y468850D02*
X579362D01*
X574000Y475000D02*
Y483000D01*
X588000Y475000D02*
Y483000D01*
X574000Y475000D02*
X588000D01*
X574000Y483000D02*
X588000D01*
X599850Y339638D02*
X606150D01*
X599850Y354598D02*
X606150D01*
Y339638D02*
Y354598D01*
X599850Y339638D02*
Y354598D01*
X599000Y338000D02*
X607000D01*
X599000Y324000D02*
X607000D01*
X599000D02*
Y338000D01*
X607000Y324000D02*
Y338000D01*
X647000Y371000D02*
Y385000D01*
X639000Y371000D02*
Y385000D01*
Y371000D02*
X647000D01*
X639000Y385000D02*
X647000D01*
X599850Y380638D02*
X606150D01*
X599850Y395598D02*
X606150D01*
Y380638D02*
Y395598D01*
X599850Y380638D02*
Y395598D01*
X599000Y379000D02*
X607000D01*
X599000Y365000D02*
X607000D01*
X599000D02*
Y379000D01*
X607000Y365000D02*
Y379000D01*
X622000Y392000D02*
X636000D01*
X622000Y400000D02*
X636000D01*
X622000Y392000D02*
Y400000D01*
X636000Y392000D02*
Y400000D01*
X599850Y422638D02*
X606150D01*
X599850Y437598D02*
X606150D01*
Y422638D02*
Y437598D01*
X599850Y422638D02*
Y437598D01*
X599000Y421000D02*
X607000D01*
X599000Y407000D02*
X607000D01*
X599000D02*
Y421000D01*
X607000Y407000D02*
Y421000D01*
X622000Y434000D02*
X636000D01*
X622000Y442000D02*
X636000D01*
X622000Y434000D02*
Y442000D01*
X636000Y434000D02*
Y442000D01*
X647000Y413000D02*
Y427000D01*
X639000Y413000D02*
Y427000D01*
Y413000D02*
X647000D01*
X639000Y427000D02*
X647000D01*
X599850Y465638D02*
X606150D01*
X599850Y480598D02*
X606150D01*
Y465638D02*
Y480598D01*
X599850Y465638D02*
Y480598D01*
X599000Y464000D02*
X607000D01*
X599000Y450000D02*
X607000D01*
X599000D02*
Y464000D01*
X607000Y450000D02*
Y464000D01*
X647000Y455000D02*
Y469000D01*
X639000Y455000D02*
Y469000D01*
Y455000D02*
X647000D01*
X639000Y469000D02*
X647000D01*
X624000Y475000D02*
X638000D01*
X624000Y483000D02*
X638000D01*
X624000Y475000D02*
Y483000D01*
X638000Y475000D02*
Y483000D01*
X329000Y370000D02*
Y378000D01*
X343000Y370000D02*
Y378000D01*
X329000Y370000D02*
X343000D01*
X329000Y378000D02*
X343000D01*
X329000Y340000D02*
Y348000D01*
X343000Y340000D02*
Y348000D01*
X329000Y340000D02*
X343000D01*
X329000Y348000D02*
X343000D01*
X387752Y364500D02*
X404248D01*
X387752Y437500D02*
X404248D01*
X387752Y404500D02*
X404248D01*
X553378Y388158D02*
X589598D01*
X553378D02*
Y468079D01*
X589598Y388158D02*
Y468079D01*
X553378D02*
X589598D01*
X489000Y423000D02*
X497000D01*
X489000Y437000D02*
X497000D01*
Y423000D02*
Y437000D01*
X489000Y423000D02*
Y437000D01*
X467000Y357000D02*
X481000D01*
X467000Y365000D02*
X481000D01*
X467000Y357000D02*
Y365000D01*
X481000Y357000D02*
Y365000D01*
X442764Y323701D02*
X463236D01*
X442764D02*
Y336299D01*
X463236D01*
Y323701D02*
Y336299D01*
X458906Y323307D02*
Y323701D01*
Y323307D02*
X463630D01*
Y336693D01*
X458906D02*
X463630D01*
X458906Y336299D02*
Y336693D01*
X466000Y341000D02*
X474000D01*
X466000Y327000D02*
X474000D01*
X466000D02*
Y341000D01*
X474000Y327000D02*
Y341000D01*
X521000Y356000D02*
Y364000D01*
X535000Y356000D02*
Y364000D01*
X521000Y356000D02*
X535000D01*
X521000Y364000D02*
X535000D01*
D37*
X631892Y408900D02*
G03*
X631892Y408900I-492J0D01*
G01*
Y450900D02*
G03*
X631892Y450900I-492J0D01*
G01*
Y366900D02*
G03*
X631892Y366900I-492J0D01*
G01*
Y325900D02*
G03*
X631892Y325900I-492J0D01*
G01*
D38*
X384787Y477331D02*
X433213D01*
Y448669D02*
Y477331D01*
X384787Y448669D02*
X433213D01*
X384787D02*
Y477331D01*
D39*
X461236Y370000D02*
X466354D01*
X435646D02*
X440764D01*
X461370Y384000D02*
X466488D01*
X435779D02*
X440898D01*
D40*
X309000Y316997D02*
Y310999D01*
X311999D01*
X312999Y311999D01*
Y312999D01*
X311999Y313998D01*
X309000D01*
X311999D01*
X312999Y314998D01*
Y315998D01*
X311999Y316997D01*
X309000D01*
X315998Y310999D02*
X317997D01*
X318997Y311999D01*
Y313998D01*
X317997Y314998D01*
X315998D01*
X314998Y313998D01*
Y311999D01*
X315998Y310999D01*
X321996D02*
X323995D01*
X324995Y311999D01*
Y313998D01*
X323995Y314998D01*
X321996D01*
X320996Y313998D01*
Y311999D01*
X321996Y310999D01*
X326994D02*
X329993D01*
X330993Y311999D01*
X329993Y312999D01*
X327994D01*
X326994Y313998D01*
X327994Y314998D01*
X330993D01*
X333992Y315998D02*
Y314998D01*
X332992D01*
X334992D01*
X333992D01*
Y311999D01*
X334992Y310999D01*
X338990Y314998D02*
X340990D01*
X341989Y313998D01*
Y310999D01*
X338990D01*
X337991Y311999D01*
X338990Y312999D01*
X341989D01*
X349987Y316997D02*
Y310999D01*
X352986D01*
X353985Y311999D01*
Y315998D01*
X352986Y316997D01*
X349987D01*
X358984Y310999D02*
X356984D01*
X355985Y311999D01*
Y313998D01*
X356984Y314998D01*
X358984D01*
X359983Y313998D01*
Y312999D01*
X355985D01*
X362983Y310999D02*
Y315998D01*
Y313998D01*
X361983D01*
X363982D01*
X362983D01*
Y315998D01*
X363982Y316997D01*
X369980Y310999D02*
X367981D01*
X366981Y311999D01*
Y313998D01*
X367981Y314998D01*
X369980D01*
X370980Y313998D01*
Y312999D01*
X366981D01*
X372979Y310999D02*
Y314998D01*
X375978D01*
X376978Y313998D01*
Y310999D01*
X382976Y316997D02*
Y310999D01*
X379977D01*
X378977Y311999D01*
Y313998D01*
X379977Y314998D01*
X382976D01*
X387974Y310999D02*
X385975D01*
X384975Y311999D01*
Y313998D01*
X385975Y314998D01*
X387974D01*
X388974Y313998D01*
Y312999D01*
X384975D01*
X390973Y314998D02*
Y310999D01*
Y312999D01*
X391973Y313998D01*
X392973Y314998D01*
X393972D01*
X396972Y310999D02*
Y311999D01*
X397971D01*
Y310999D01*
X396972D01*
X407968D02*
Y316997D01*
X410967D01*
X411967Y315998D01*
Y313998D01*
X410967Y312999D01*
X407968D01*
X409967D02*
X411967Y310999D01*
X416965D02*
X414966D01*
X413966Y311999D01*
Y313998D01*
X414966Y314998D01*
X416965D01*
X417965Y313998D01*
Y312999D01*
X413966D01*
X419964Y314998D02*
X421964Y310999D01*
X423963Y314998D01*
X431960Y310999D02*
Y314998D01*
X433960Y316997D01*
X435959Y314998D01*
Y310999D01*
Y313998D01*
X431960D01*
X438958Y310000D02*
X439958Y310999D01*
Y311999D01*
X438958D01*
Y310999D01*
X439958D01*
X438958Y310000D01*
X437958Y309000D01*
X453953Y316997D02*
X451954D01*
X452953D01*
Y311999D01*
X451954Y310999D01*
X450954D01*
X449954Y311999D01*
X455953Y314998D02*
Y311999D01*
X456952Y310999D01*
X459951D01*
Y314998D01*
X461950Y310999D02*
X463950D01*
X462950D01*
Y316997D01*
X461950D01*
X466949Y314998D02*
Y311999D01*
X467949Y310999D01*
X470948D01*
Y310000D01*
X469948Y309000D01*
X468948D01*
X470948Y310999D02*
Y314998D01*
X482944Y310999D02*
X478945D01*
X482944Y314998D01*
Y315998D01*
X481944Y316997D01*
X479945D01*
X478945Y315998D01*
X484943D02*
X485943Y316997D01*
X487942D01*
X488942Y315998D01*
Y311999D01*
X487942Y310999D01*
X485943D01*
X484943Y311999D01*
Y315998D01*
X490941Y310999D02*
X492941D01*
X491941D01*
Y316997D01*
X490941Y315998D01*
X495939D02*
X496939Y316997D01*
X498939D01*
X499938Y315998D01*
Y314998D01*
X498939Y313998D01*
X499938Y312999D01*
Y311999D01*
X498939Y310999D01*
X496939D01*
X495939Y311999D01*
Y312999D01*
X496939Y313998D01*
X495939Y314998D01*
Y315998D01*
X496939Y313998D02*
X498939D01*
X483000Y436000D02*
X477002D01*
Y438999D01*
X478002Y439999D01*
X480001D01*
X481001Y438999D01*
Y436000D01*
Y437999D02*
X483000Y439999D01*
Y441998D02*
Y443997D01*
Y442998D01*
X477002D01*
X478002Y441998D01*
X483000Y450995D02*
Y446996D01*
X479001Y450995D01*
X478002D01*
X477002Y449996D01*
Y447996D01*
X478002Y446996D01*
X353999Y352817D02*
X350000D01*
Y349818D01*
X351999D01*
X350000D01*
Y346819D01*
X355998D02*
Y352817D01*
X358997D01*
X359997Y351817D01*
Y349818D01*
X358997Y348818D01*
X355998D01*
X365995Y351817D02*
X364995Y352817D01*
X362996D01*
X361996Y351817D01*
Y347819D01*
X362996Y346819D01*
X364995D01*
X365995Y347819D01*
X370993Y352817D02*
X368994D01*
X367994Y351817D01*
Y347819D01*
X368994Y346819D01*
X370993D01*
X371993Y347819D01*
Y351817D01*
X370993Y352817D01*
X373992Y346819D02*
Y352817D01*
X377991Y346819D01*
Y352817D01*
X688001Y326000D02*
Y329999D01*
Y355990D02*
Y359989D01*
X686002Y357990D02*
X690000D01*
X688001Y366000D02*
Y369999D01*
Y395990D02*
Y399989D01*
X686002Y397990D02*
X690000D01*
X688001Y406000D02*
Y409999D01*
Y435990D02*
Y439989D01*
X686002Y437990D02*
X690000D01*
X688001Y446000D02*
Y449999D01*
Y475990D02*
Y479989D01*
X686002Y477990D02*
X690000D01*
X408000Y321999D02*
X411999D01*
X409999Y323998D02*
Y320000D01*
X413998Y319000D02*
X415997D01*
X414998D01*
Y324998D01*
X413998Y323998D01*
X422995Y319000D02*
X418996D01*
X422995Y322999D01*
Y323998D01*
X421995Y324998D01*
X419996D01*
X418996Y323998D01*
X424995Y324998D02*
Y320999D01*
X426994Y319000D01*
X428993Y320999D01*
Y324998D01*
X430993D02*
X432992D01*
X431992D01*
Y319000D01*
X430993D01*
X432992D01*
X435991D02*
Y324998D01*
X439990Y319000D01*
Y324998D01*
X430002Y413235D02*
X429002Y412235D01*
Y410236D01*
X430002Y409236D01*
X431001D01*
X432001Y410236D01*
Y412235D01*
X433001Y413235D01*
X434000D01*
X435000Y412235D01*
Y410236D01*
X434000Y409236D01*
X435000Y415234D02*
X429002D01*
X431001Y417234D01*
X429002Y419233D01*
X435000D01*
Y421232D02*
X431001D01*
X429002Y423232D01*
X431001Y425231D01*
X435000D01*
X432001D01*
Y421232D01*
X430002Y431229D02*
X429002Y430229D01*
Y428230D01*
X430002Y427230D01*
X434000D01*
X435000Y428230D01*
Y430229D01*
X434000Y431229D01*
X429002Y436228D02*
Y434228D01*
X430002Y433228D01*
X434000D01*
X435000Y434228D01*
Y436228D01*
X434000Y437227D01*
X430002D01*
X429002Y436228D01*
X435000Y439226D02*
X429002D01*
X435000Y443225D01*
X429002D01*
X405000Y485998D02*
Y480000D01*
Y481999D01*
X408999Y485998D01*
X406000Y482999D01*
X408999Y480000D01*
X410998D02*
X412997D01*
X411998D01*
Y485998D01*
X410998Y484998D01*
X432000Y378998D02*
Y373000D01*
X434999D01*
X435999Y374000D01*
Y377998D01*
X434999Y378998D01*
X432000D01*
X437998Y373000D02*
X439997D01*
X438998D01*
Y378998D01*
X437998Y377998D01*
X546000Y494998D02*
Y489000D01*
X548999D01*
X549999Y490000D01*
Y493998D01*
X548999Y494998D01*
X546000D01*
X554997D02*
X552998D01*
X551998Y493998D01*
Y490000D01*
X552998Y489000D01*
X554997D01*
X555997Y490000D01*
Y493998D01*
X554997Y494998D01*
X498999Y493998D02*
X497999Y494998D01*
X496000D01*
X495000Y493998D01*
Y492999D01*
X496000Y491999D01*
X497999D01*
X498999Y490999D01*
Y490000D01*
X497999Y489000D01*
X496000D01*
X495000Y490000D01*
X504997Y493998D02*
X503997Y494998D01*
X501998D01*
X500998Y493998D01*
Y490000D01*
X501998Y489000D01*
X503997D01*
X504997Y490000D01*
X506996Y494998D02*
Y489000D01*
Y490999D01*
X510995Y494998D01*
X507996Y491999D01*
X510995Y489000D01*
X543002Y360999D02*
X542002Y359999D01*
Y358000D01*
X543002Y357000D01*
X547000D01*
X548000Y358000D01*
Y359999D01*
X547000Y360999D01*
X545001D01*
Y358999D01*
X548000Y362998D02*
X542002D01*
X548000Y366997D01*
X542002D01*
Y368996D02*
X548000D01*
Y371995D01*
X547000Y372995D01*
X543002D01*
X542002Y371995D01*
Y368996D01*
X532000Y376999D02*
X535999D01*
X533999Y378998D02*
Y375000D01*
X541997Y379998D02*
X537998D01*
Y376999D01*
X539997Y377999D01*
X540997D01*
X541997Y376999D01*
Y375000D01*
X540997Y374000D01*
X538998D01*
X537998Y375000D01*
X543996Y379998D02*
Y375999D01*
X545996Y374000D01*
X547995Y375999D01*
Y379998D01*
X611000Y480998D02*
Y476000D01*
X612000Y475000D01*
X613999D01*
X614999Y476000D01*
Y480998D01*
X616998D02*
X620997D01*
Y479998D01*
X616998Y476000D01*
Y475000D01*
X611000Y438998D02*
Y434000D01*
X612000Y433000D01*
X613999D01*
X614999Y434000D01*
Y438998D01*
X620997D02*
X618997Y437998D01*
X616998Y435999D01*
Y434000D01*
X617998Y433000D01*
X619997D01*
X620997Y434000D01*
Y434999D01*
X619997Y435999D01*
X616998D01*
X610000Y397998D02*
Y393000D01*
X611000Y392000D01*
X612999D01*
X613999Y393000D01*
Y397998D01*
X619997D02*
X615998D01*
Y394999D01*
X617997Y395999D01*
X618997D01*
X619997Y394999D01*
Y393000D01*
X618997Y392000D01*
X616998D01*
X615998Y393000D01*
X611000Y356998D02*
Y352000D01*
X612000Y351000D01*
X613999D01*
X614999Y352000D01*
Y356998D01*
X616998Y355998D02*
X617998Y356998D01*
X619997D01*
X620997Y355998D01*
Y354999D01*
X619997Y353999D01*
X618997D01*
X619997D01*
X620997Y352999D01*
Y352000D01*
X619997Y351000D01*
X617998D01*
X616998Y352000D01*
X574000Y330998D02*
Y326000D01*
X575000Y325000D01*
X576999D01*
X577999Y326000D01*
Y330998D01*
X583997Y325000D02*
X579998D01*
X583997Y328999D01*
Y329998D01*
X582997Y330998D01*
X580998D01*
X579998Y329998D01*
X386000Y444998D02*
X389999D01*
X387999D01*
Y439000D01*
X394997D02*
Y444998D01*
X391998Y441999D01*
X395997D01*
X381000Y348998D02*
X384999D01*
X382999D01*
Y343000D01*
X386998Y347998D02*
X387998Y348998D01*
X389997D01*
X390997Y347998D01*
Y346999D01*
X389997Y345999D01*
X388997D01*
X389997D01*
X390997Y344999D01*
Y344000D01*
X389997Y343000D01*
X387998D01*
X386998Y344000D01*
X409000Y381998D02*
X412999D01*
X410999D01*
Y376000D01*
X418997D02*
X414998D01*
X418997Y379999D01*
Y380998D01*
X417997Y381998D01*
X415998D01*
X414998Y380998D01*
X409000Y400998D02*
X412999D01*
X410999D01*
Y395000D01*
X414998D02*
X416997D01*
X415998D01*
Y400998D01*
X414998Y399998D01*
X573000Y484000D02*
Y489998D01*
X575999D01*
X576999Y488998D01*
Y486999D01*
X575999Y485999D01*
X573000D01*
X574999D02*
X576999Y484000D01*
X582997D02*
X578998D01*
X582997Y487999D01*
Y488998D01*
X581997Y489998D01*
X579998D01*
X578998Y488998D01*
X588995Y484000D02*
X584996D01*
X588995Y487999D01*
Y488998D01*
X587995Y489998D01*
X585996D01*
X584996Y488998D01*
X546000Y453000D02*
X551998D01*
Y450001D01*
X550998Y449001D01*
X548999D01*
X547999Y450001D01*
Y453000D01*
Y451001D02*
X546000Y449001D01*
Y443003D02*
Y447002D01*
X549999Y443003D01*
X550998D01*
X551998Y444003D01*
Y446002D01*
X550998Y447002D01*
X546000Y441004D02*
Y439005D01*
Y440004D01*
X551998D01*
X550998Y441004D01*
X532000Y471000D02*
Y476998D01*
X534999D01*
X535999Y475998D01*
Y473999D01*
X534999Y472999D01*
X532000D01*
X533999D02*
X535999Y471000D01*
X541997D02*
X537998D01*
X541997Y474999D01*
Y475998D01*
X540997Y476998D01*
X538998D01*
X537998Y475998D01*
X543996D02*
X544996Y476998D01*
X546995D01*
X547995Y475998D01*
Y472000D01*
X546995Y471000D01*
X544996D01*
X543996Y472000D01*
Y475998D01*
X598000Y449000D02*
X592002D01*
Y451999D01*
X593002Y452999D01*
X595001D01*
X596001Y451999D01*
Y449000D01*
Y450999D02*
X598000Y452999D01*
Y454998D02*
Y456997D01*
Y455998D01*
X592002D01*
X593002Y454998D01*
X597000Y459996D02*
X598000Y460996D01*
Y462995D01*
X597000Y463995D01*
X593002D01*
X592002Y462995D01*
Y460996D01*
X593002Y459996D01*
X594001D01*
X595001Y460996D01*
Y463995D01*
X546000Y432000D02*
X551998D01*
Y429001D01*
X550998Y428001D01*
X548999D01*
X547999Y429001D01*
Y432000D01*
Y430001D02*
X546000Y428001D01*
Y426002D02*
Y424003D01*
Y425002D01*
X551998D01*
X550998Y426002D01*
Y421004D02*
X551998Y420004D01*
Y418005D01*
X550998Y417005D01*
X549999D01*
X548999Y418005D01*
X547999Y417005D01*
X547000D01*
X546000Y418005D01*
Y420004D01*
X547000Y421004D01*
X547999D01*
X548999Y420004D01*
X549999Y421004D01*
X550998D01*
X548999Y420004D02*
Y418005D01*
X598000Y406000D02*
X592002D01*
Y408999D01*
X593002Y409999D01*
X595001D01*
X596001Y408999D01*
Y406000D01*
Y407999D02*
X598000Y409999D01*
Y411998D02*
Y413997D01*
Y412998D01*
X592002D01*
X593002Y411998D01*
X592002Y416996D02*
Y420995D01*
X593002D01*
X597000Y416996D01*
X598000D01*
X532000Y393000D02*
Y398998D01*
X534999D01*
X535999Y397998D01*
Y395999D01*
X534999Y394999D01*
X532000D01*
X533999D02*
X535999Y393000D01*
X537998D02*
X539997D01*
X538998D01*
Y398998D01*
X537998Y397998D01*
X546995Y398998D02*
X544996Y397998D01*
X542996Y395999D01*
Y394000D01*
X543996Y393000D01*
X545996D01*
X546995Y394000D01*
Y394999D01*
X545996Y395999D01*
X542996D01*
X475000Y392000D02*
Y397998D01*
X477999D01*
X478999Y396998D01*
Y394999D01*
X477999Y393999D01*
X475000D01*
X476999D02*
X478999Y392000D01*
X480998D02*
X482997D01*
X481998D01*
Y397998D01*
X480998Y396998D01*
X489995Y397998D02*
X485996D01*
Y394999D01*
X487996Y395999D01*
X488996D01*
X489995Y394999D01*
Y393000D01*
X488996Y392000D01*
X486996D01*
X485996Y393000D01*
X598000Y365000D02*
X592002D01*
Y367999D01*
X593002Y368999D01*
X595001D01*
X596001Y367999D01*
Y365000D01*
Y366999D02*
X598000Y368999D01*
Y370998D02*
Y372997D01*
Y371998D01*
X592002D01*
X593002Y370998D01*
X598000Y378995D02*
X592002D01*
X595001Y375996D01*
Y379995D01*
X485000Y403000D02*
X479002D01*
Y405999D01*
X480002Y406999D01*
X482001D01*
X483001Y405999D01*
Y403000D01*
Y404999D02*
X485000Y406999D01*
Y408998D02*
Y410997D01*
Y409998D01*
X479002D01*
X480002Y408998D01*
Y413996D02*
X479002Y414996D01*
Y416995D01*
X480002Y417995D01*
X481001D01*
X482001Y416995D01*
Y415996D01*
Y416995D01*
X483001Y417995D01*
X484000D01*
X485000Y416995D01*
Y414996D01*
X484000Y413996D01*
X598000Y325000D02*
X592002D01*
Y327999D01*
X593002Y328999D01*
X595001D01*
X596001Y327999D01*
Y325000D01*
Y326999D02*
X598000Y328999D01*
Y330998D02*
Y332997D01*
Y331998D01*
X592002D01*
X593002Y330998D01*
X598000Y335996D02*
Y337996D01*
Y336996D01*
X592002D01*
X593002Y335996D01*
X484000Y471000D02*
Y476998D01*
X486999D01*
X487999Y475998D01*
Y473999D01*
X486999Y472999D01*
X484000D01*
X485999D02*
X487999Y471000D01*
X489998D02*
X491997D01*
X490998D01*
Y476998D01*
X489998Y475998D01*
X494996D02*
X495996Y476998D01*
X497996D01*
X498995Y475998D01*
Y472000D01*
X497996Y471000D01*
X495996D01*
X494996Y472000D01*
Y475998D01*
X401000Y410000D02*
Y415998D01*
X403999D01*
X404999Y414998D01*
Y412999D01*
X403999Y411999D01*
X401000D01*
X402999D02*
X404999Y410000D01*
X406998Y411000D02*
X407998Y410000D01*
X409997D01*
X410997Y411000D01*
Y414998D01*
X409997Y415998D01*
X407998D01*
X406998Y414998D01*
Y413999D01*
X407998Y412999D01*
X410997D01*
X316000Y371000D02*
Y376998D01*
X318999D01*
X319999Y375998D01*
Y373999D01*
X318999Y372999D01*
X316000D01*
X317999D02*
X319999Y371000D01*
X321998Y375998D02*
X322998Y376998D01*
X324997D01*
X325997Y375998D01*
Y374999D01*
X324997Y373999D01*
X325997Y372999D01*
Y372000D01*
X324997Y371000D01*
X322998D01*
X321998Y372000D01*
Y372999D01*
X322998Y373999D01*
X321998Y374999D01*
Y375998D01*
X322998Y373999D02*
X324997D01*
X316000Y362000D02*
Y367998D01*
X318999D01*
X319999Y366998D01*
Y364999D01*
X318999Y363999D01*
X316000D01*
X317999D02*
X319999Y362000D01*
X321998Y367998D02*
X325997D01*
Y366998D01*
X321998Y363000D01*
Y362000D01*
X411000Y357000D02*
Y362998D01*
X413999D01*
X414999Y361998D01*
Y359999D01*
X413999Y358999D01*
X411000D01*
X412999D02*
X414999Y357000D01*
X420997Y362998D02*
X418997Y361998D01*
X416998Y359999D01*
Y358000D01*
X417998Y357000D01*
X419997D01*
X420997Y358000D01*
Y358999D01*
X419997Y359999D01*
X416998D01*
X316000Y350000D02*
Y355998D01*
X318999D01*
X319999Y354998D01*
Y352999D01*
X318999Y351999D01*
X316000D01*
X317999D02*
X319999Y350000D01*
X324997D02*
Y355998D01*
X321998Y352999D01*
X325997D01*
X316000Y341000D02*
Y346998D01*
X318999D01*
X319999Y345998D01*
Y343999D01*
X318999Y342999D01*
X316000D01*
X317999D02*
X319999Y341000D01*
X321998Y345998D02*
X322998Y346998D01*
X324997D01*
X325997Y345998D01*
Y344999D01*
X324997Y343999D01*
X323997D01*
X324997D01*
X325997Y342999D01*
Y342000D01*
X324997Y341000D01*
X322998D01*
X321998Y342000D01*
X380000Y334000D02*
Y339998D01*
X382999D01*
X383999Y338998D01*
Y336999D01*
X382999Y335999D01*
X380000D01*
X381999D02*
X383999Y334000D01*
X389997D02*
X385998D01*
X389997Y337999D01*
Y338998D01*
X388997Y339998D01*
X386998D01*
X385998Y338998D01*
X380000Y326000D02*
Y331998D01*
X382999D01*
X383999Y330998D01*
Y328999D01*
X382999Y327999D01*
X380000D01*
X381999D02*
X383999Y326000D01*
X385998D02*
X387997D01*
X386998D01*
Y331998D01*
X385998Y330998D01*
X555000Y474998D02*
Y469000D01*
X557999D01*
X558999Y470000D01*
Y473998D01*
X557999Y474998D01*
X555000D01*
X560998D02*
X564997D01*
Y473998D01*
X560998Y470000D01*
Y469000D01*
X593002D02*
X599000D01*
Y471999D01*
X598000Y472999D01*
X594002D01*
X593002Y471999D01*
Y469000D01*
Y478997D02*
X594002Y476997D01*
X596001Y474998D01*
X598000D01*
X599000Y475998D01*
Y477997D01*
X598000Y478997D01*
X597001D01*
X596001Y477997D01*
Y474998D01*
X593002Y425000D02*
X599000D01*
Y427999D01*
X598000Y428999D01*
X594002D01*
X593002Y427999D01*
Y425000D01*
Y434997D02*
Y430998D01*
X596001D01*
X595001Y432997D01*
Y433997D01*
X596001Y434997D01*
X598000D01*
X599000Y433997D01*
Y431998D01*
X598000Y430998D01*
X592002Y383236D02*
X598000D01*
Y386235D01*
X597001Y387235D01*
X593002D01*
X592002Y386235D01*
Y383236D01*
X598000Y392233D02*
X592002D01*
X595001Y389234D01*
Y393233D01*
X593002Y343000D02*
X599000D01*
Y345999D01*
X598000Y346999D01*
X594002D01*
X593002Y345999D01*
Y343000D01*
X594002Y348998D02*
X593002Y349998D01*
Y351997D01*
X594002Y352997D01*
X595001D01*
X596001Y351997D01*
Y350997D01*
Y351997D01*
X597001Y352997D01*
X598000D01*
X599000Y351997D01*
Y349998D01*
X598000Y348998D01*
X430000Y393998D02*
Y388000D01*
X432999D01*
X433999Y389000D01*
Y392998D01*
X432999Y393998D01*
X430000D01*
X439997Y388000D02*
X435998D01*
X439997Y391999D01*
Y392998D01*
X438997Y393998D01*
X436998D01*
X435998Y392998D01*
X687998Y472000D02*
Y468001D01*
Y470001D01*
X682000D01*
X686998Y462003D02*
X687998Y463003D01*
Y465002D01*
X686998Y466002D01*
X683000D01*
X682000Y465002D01*
Y463003D01*
X683000Y462003D01*
X682000Y457005D02*
X687998D01*
X684999Y460004D01*
Y456005D01*
X687998Y431000D02*
Y427001D01*
Y429001D01*
X682000D01*
X686998Y421003D02*
X687998Y422003D01*
Y424002D01*
X686998Y425002D01*
X683000D01*
X682000Y424002D01*
Y422003D01*
X683000Y421003D01*
X686998Y419004D02*
X687998Y418004D01*
Y416005D01*
X686998Y415005D01*
X685999D01*
X684999Y416005D01*
Y417004D01*
Y416005D01*
X683999Y415005D01*
X683000D01*
X682000Y416005D01*
Y418004D01*
X683000Y419004D01*
X687998Y391000D02*
Y387001D01*
Y389001D01*
X682000D01*
X686998Y381003D02*
X687998Y382003D01*
Y384002D01*
X686998Y385002D01*
X683000D01*
X682000Y384002D01*
Y382003D01*
X683000Y381003D01*
X682000Y375005D02*
Y379004D01*
X685999Y375005D01*
X686998D01*
X687998Y376005D01*
Y378004D01*
X686998Y379004D01*
X687998Y351000D02*
Y347001D01*
Y349001D01*
X682000D01*
X686998Y341003D02*
X687998Y342003D01*
Y344002D01*
X686998Y345002D01*
X683000D01*
X682000Y344002D01*
Y342003D01*
X683000Y341003D01*
X682000Y339004D02*
Y337004D01*
Y338004D01*
X687998D01*
X686998Y339004D01*
X537000Y382000D02*
Y387998D01*
X539999D01*
X540999Y386998D01*
Y384999D01*
X539999Y383999D01*
X537000D01*
X542998Y387998D02*
X546997D01*
X544997D01*
Y382000D01*
X548996D02*
Y385999D01*
X550995Y387998D01*
X552995Y385999D01*
Y382000D01*
Y384999D01*
X548996D01*
X554994Y385999D02*
Y382000D01*
Y383999D01*
X555994Y384999D01*
X556993Y385999D01*
X557993D01*
X564991Y387998D02*
Y382000D01*
X561992D01*
X560992Y383000D01*
Y384999D01*
X561992Y385999D01*
X564991D01*
X570989Y386998D02*
X569989Y387998D01*
X567990D01*
X566990Y386998D01*
Y383000D01*
X567990Y382000D01*
X569989D01*
X570989Y383000D01*
X575987Y387998D02*
X573988D01*
X572988Y386998D01*
Y383000D01*
X573988Y382000D01*
X575987D01*
X576987Y383000D01*
Y386998D01*
X575987Y387998D01*
X578986Y382000D02*
Y387998D01*
X582985Y382000D01*
Y387998D01*
X488000Y382000D02*
Y385999D01*
X489999Y387998D01*
X491999Y385999D01*
Y382000D01*
Y384999D01*
X488000D01*
X493998Y385999D02*
Y382000D01*
Y383999D01*
X494998Y384999D01*
X495997Y385999D01*
X496997D01*
X503995Y387998D02*
Y382000D01*
X500996D01*
X499996Y383000D01*
Y384999D01*
X500996Y385999D01*
X503995D01*
X505994Y382000D02*
Y387998D01*
X508993D01*
X509993Y386998D01*
Y384999D01*
X508993Y383999D01*
X505994D01*
X511992Y387998D02*
Y382000D01*
X513992Y383999D01*
X515991Y382000D01*
Y387998D01*
X517990Y382000D02*
Y387998D01*
X520989D01*
X521989Y386998D01*
Y384999D01*
X520989Y383999D01*
X517990D01*
X519990D02*
X521989Y382000D01*
X309000Y398000D02*
Y401999D01*
X310999Y403998D01*
X312999Y401999D01*
Y398000D01*
Y400999D01*
X309000D01*
X314998Y401999D02*
Y398000D01*
Y399999D01*
X315998Y400999D01*
X316997Y401999D01*
X317997D01*
X324995Y403998D02*
Y398000D01*
X321996D01*
X320996Y399000D01*
Y400999D01*
X321996Y401999D01*
X324995D01*
X330993Y402998D02*
X329993Y403998D01*
X327994D01*
X326994Y402998D01*
Y399000D01*
X327994Y398000D01*
X329993D01*
X330993Y399000D01*
X335991Y403998D02*
X333992D01*
X332992Y402998D01*
Y399000D01*
X333992Y398000D01*
X335991D01*
X336991Y399000D01*
Y402998D01*
X335991Y403998D01*
X338990Y398000D02*
Y403998D01*
X342989Y398000D01*
Y403998D01*
X644998Y450001D02*
X645998Y451001D01*
Y453000D01*
X644998Y454000D01*
X641000D01*
X640000Y453000D01*
Y451001D01*
X641000Y450001D01*
X640000Y448002D02*
Y446003D01*
Y447002D01*
X645998D01*
X644998Y448002D01*
X645998Y439005D02*
Y443004D01*
X642999D01*
X643999Y441004D01*
Y440004D01*
X642999Y439005D01*
X641000D01*
X640000Y440004D01*
Y442004D01*
X641000Y443004D01*
X644998Y408001D02*
X645998Y409001D01*
Y411000D01*
X644998Y412000D01*
X641000D01*
X640000Y411000D01*
Y409001D01*
X641000Y408001D01*
X640000Y406002D02*
Y404003D01*
Y405002D01*
X645998D01*
X644998Y406002D01*
X640000Y398005D02*
X645998D01*
X642999Y401004D01*
Y397005D01*
X626999Y488998D02*
X625999Y489998D01*
X624000D01*
X623000Y488998D01*
Y485000D01*
X624000Y484000D01*
X625999D01*
X626999Y485000D01*
X628998Y484000D02*
X630997D01*
X629998D01*
Y489998D01*
X628998Y488998D01*
X633996D02*
X634996Y489998D01*
X636996D01*
X637995Y488998D01*
Y487999D01*
X636996Y486999D01*
X635996D01*
X636996D01*
X637995Y485999D01*
Y485000D01*
X636996Y484000D01*
X634996D01*
X633996Y485000D01*
X644998Y366001D02*
X645998Y367001D01*
Y369000D01*
X644998Y370000D01*
X641000D01*
X640000Y369000D01*
Y367001D01*
X641000Y366001D01*
X640000Y364002D02*
Y362003D01*
Y363002D01*
X645998D01*
X644998Y364002D01*
X640000Y355005D02*
Y359004D01*
X643999Y355005D01*
X644998D01*
X645998Y356005D01*
Y358004D01*
X644998Y359004D01*
Y324001D02*
X645998Y325001D01*
Y327000D01*
X644998Y328000D01*
X641000D01*
X640000Y327000D01*
Y325001D01*
X641000Y324001D01*
X640000Y322002D02*
Y320003D01*
Y321002D01*
X645998D01*
X644998Y322002D01*
X640000Y317004D02*
Y315004D01*
Y316004D01*
X645998D01*
X644998Y317004D01*
X624999Y447998D02*
X623999Y448998D01*
X622000D01*
X621000Y447998D01*
Y444000D01*
X622000Y443000D01*
X623999D01*
X624999Y444000D01*
X626998Y443000D02*
X628997D01*
X627998D01*
Y448998D01*
X626998Y447998D01*
X631996D02*
X632996Y448998D01*
X634996D01*
X635995Y447998D01*
Y444000D01*
X634996Y443000D01*
X632996D01*
X631996Y444000D01*
Y447998D01*
X626999Y405998D02*
X625999Y406998D01*
X624000D01*
X623000Y405998D01*
Y402000D01*
X624000Y401000D01*
X625999D01*
X626999Y402000D01*
X628998D02*
X629998Y401000D01*
X631997D01*
X632997Y402000D01*
Y405998D01*
X631997Y406998D01*
X629998D01*
X628998Y405998D01*
Y404999D01*
X629998Y403999D01*
X632997D01*
X627999Y363998D02*
X626999Y364998D01*
X625000D01*
X624000Y363998D01*
Y360000D01*
X625000Y359000D01*
X626999D01*
X627999Y360000D01*
X632997Y359000D02*
Y364998D01*
X629998Y361999D01*
X633997D01*
X563002Y349999D02*
X562002Y348999D01*
Y347000D01*
X563002Y346000D01*
X567000D01*
X568000Y347000D01*
Y348999D01*
X567000Y349999D01*
X563002Y351998D02*
X562002Y352998D01*
Y354997D01*
X563002Y355997D01*
X564001D01*
X565001Y354997D01*
Y353997D01*
Y354997D01*
X566001Y355997D01*
X567000D01*
X568000Y354997D01*
Y352998D01*
X567000Y351998D01*
X566998Y319001D02*
X567998Y320001D01*
Y322000D01*
X566998Y323000D01*
X563000D01*
X562000Y322000D01*
Y320001D01*
X563000Y319001D01*
X562000Y313003D02*
Y317002D01*
X565999Y313003D01*
X566998D01*
X567998Y314003D01*
Y316002D01*
X566998Y317002D01*
X543000Y318998D02*
Y314000D01*
X544000Y313000D01*
X545999D01*
X546999Y314000D01*
Y318998D01*
X548998Y313000D02*
X550997D01*
X549998D01*
Y318998D01*
X548998Y317998D01*
X518000Y395998D02*
Y391000D01*
X519000Y390000D01*
X520999D01*
X521999Y391000D01*
Y395998D01*
X526997Y390000D02*
Y395998D01*
X523998Y392999D01*
X527997D01*
X434999Y357998D02*
X433999Y358998D01*
X432000D01*
X431000Y357998D01*
Y354000D01*
X432000Y353000D01*
X433999D01*
X434999Y354000D01*
X440997Y358998D02*
X436998D01*
Y355999D01*
X438997Y356999D01*
X439997D01*
X440997Y355999D01*
Y354000D01*
X439997Y353000D01*
X437998D01*
X436998Y354000D01*
X466999Y323998D02*
X465999Y324998D01*
X464000D01*
X463000Y323998D01*
Y320000D01*
X464000Y319000D01*
X465999D01*
X466999Y320000D01*
X472997Y324998D02*
X470997Y323998D01*
X468998Y321999D01*
Y320000D01*
X469998Y319000D01*
X471997D01*
X472997Y320000D01*
Y320999D01*
X471997Y321999D01*
X468998D01*
X471998Y349001D02*
X472998Y350001D01*
Y352000D01*
X471998Y353000D01*
X468000D01*
X467000Y352000D01*
Y350001D01*
X468000Y349001D01*
X472998Y347002D02*
Y343003D01*
X471998D01*
X468000Y347002D01*
X467000D01*
X483002Y428999D02*
X482002Y427999D01*
Y426000D01*
X483002Y425000D01*
X487000D01*
X488000Y426000D01*
Y427999D01*
X487000Y428999D01*
X483002Y430998D02*
X482002Y431998D01*
Y433997D01*
X483002Y434997D01*
X484001D01*
X485001Y433997D01*
X486001Y434997D01*
X487000D01*
X488000Y433997D01*
Y431998D01*
X487000Y430998D01*
X486001D01*
X485001Y431998D01*
X484001Y430998D01*
X483002D01*
X485001Y431998D02*
Y433997D01*
X482000Y367000D02*
X487998D01*
Y364001D01*
X486998Y363001D01*
X484999D01*
X483999Y364001D01*
Y367000D01*
Y365001D02*
X482000Y363001D01*
X487998Y357003D02*
Y361002D01*
X484999D01*
X485999Y359003D01*
Y358003D01*
X484999Y357003D01*
X483000D01*
X482000Y358003D01*
Y360002D01*
X483000Y361002D01*
X524999Y369998D02*
X523999Y370998D01*
X522000D01*
X521000Y369998D01*
Y366000D01*
X522000Y365000D01*
X523999D01*
X524999Y366000D01*
X526998Y365000D02*
X528997D01*
X527998D01*
Y370998D01*
X526998Y369998D01*
X535995Y370998D02*
X533996Y369998D01*
X531996Y367999D01*
Y366000D01*
X532996Y365000D01*
X534996D01*
X535995Y366000D01*
Y366999D01*
X534996Y367999D01*
X531996D01*
M02*
