G04 Layer_Physical_Order=2*
G04 Layer_Color=16711680*
%FSLAX25Y25*%
%MOIN*%
G70*
G01*
G75*
%ADD19C,0.02756*%
%ADD21C,0.02953*%
%ADD23R,0.05905X0.05905*%
%ADD24C,0.05905*%
%ADD25C,0.08000*%
%ADD26C,0.05905*%
%ADD27C,0.06496*%
%ADD28R,0.06496X0.06496*%
%ADD29C,0.06000*%
%ADD30C,0.06500*%
%ADD31C,0.05600*%
%ADD32C,0.11811*%
%ADD33C,0.07000*%
%ADD34C,0.04724*%
G36*
X677000Y478923D02*
X686000D01*
Y325077D01*
X677000D01*
X677000Y316000D01*
X311000D01*
X311000Y324882D01*
X302000D01*
Y478939D01*
X311000D01*
Y488000D01*
X483321D01*
X483989Y486031D01*
X483989Y486031D01*
X483307Y485143D01*
X482879Y484109D01*
X482733Y483000D01*
X482879Y481890D01*
X483307Y480857D01*
X483989Y479969D01*
X484876Y479288D01*
X485910Y478859D01*
X487020Y478713D01*
X488129Y478859D01*
X489163Y479288D01*
X490051Y479969D01*
X490732Y480857D01*
X491001Y481506D01*
X491701Y481649D01*
X492338D01*
X493038Y481506D01*
X493307Y480857D01*
X493989Y479969D01*
X494876Y479288D01*
X495910Y478859D01*
X497020Y478713D01*
X498129Y478859D01*
X499163Y479288D01*
X500051Y479969D01*
X500732Y480857D01*
X500993Y481486D01*
X501527Y481602D01*
X502493D01*
X503027Y481486D01*
X503288Y480857D01*
X503969Y479969D01*
X504857Y479288D01*
X505891Y478859D01*
X507000Y478713D01*
X508110Y478859D01*
X509143Y479288D01*
X510031Y479969D01*
X510712Y480857D01*
X510981Y481506D01*
X511682Y481649D01*
X512319D01*
X513019Y481506D01*
X513288Y480857D01*
X513969Y479969D01*
X514857Y479288D01*
X515891Y478859D01*
X517000Y478713D01*
X518110Y478859D01*
X519143Y479288D01*
X520031Y479969D01*
X520712Y480857D01*
X521141Y481890D01*
X521287Y483000D01*
X521141Y484109D01*
X520712Y485143D01*
X520031Y486031D01*
X520031Y486031D01*
X520699Y488000D01*
X532301D01*
X532969Y486031D01*
X532969Y486031D01*
X532288Y485143D01*
X531859Y484109D01*
X531713Y483000D01*
X531859Y481890D01*
X532288Y480857D01*
X532969Y479969D01*
X533857Y479288D01*
X534891Y478859D01*
X536000Y478713D01*
X537110Y478859D01*
X538143Y479288D01*
X539031Y479969D01*
X539712Y480857D01*
X539981Y481506D01*
X540682Y481649D01*
X541319D01*
X542019Y481506D01*
X542288Y480857D01*
X542969Y479969D01*
X543857Y479288D01*
X544890Y478859D01*
X546000Y478713D01*
X547110Y478859D01*
X548143Y479288D01*
X549031Y479969D01*
X549712Y480857D01*
X549973Y481486D01*
X550507Y481602D01*
X551473D01*
X552007Y481486D01*
X552268Y480857D01*
X552949Y479969D01*
X553837Y479288D01*
X554871Y478859D01*
X555980Y478713D01*
X557090Y478859D01*
X558124Y479288D01*
X559011Y479969D01*
X559693Y480857D01*
X559962Y481506D01*
X560662Y481649D01*
X561299D01*
X561999Y481506D01*
X562268Y480857D01*
X562949Y479969D01*
X563837Y479288D01*
X564871Y478859D01*
X565980Y478713D01*
X567090Y478859D01*
X568124Y479288D01*
X569011Y479969D01*
X569693Y480857D01*
X570121Y481890D01*
X570267Y483000D01*
X570121Y484109D01*
X569693Y485143D01*
X569011Y486031D01*
X569011Y486031D01*
X569679Y488000D01*
X575141D01*
X575533Y486031D01*
X575304Y485937D01*
X574602Y485398D01*
X574063Y484696D01*
X573724Y483878D01*
X573609Y483000D01*
X573724Y482122D01*
X574063Y481304D01*
X574602Y480602D01*
X575304Y480063D01*
X576122Y479724D01*
X577000Y479609D01*
X577878Y479724D01*
X578696Y480063D01*
X579363Y480576D01*
X597996D01*
X606614Y471957D01*
X606724Y471122D01*
X607063Y470304D01*
X607602Y469602D01*
X608304Y469063D01*
X609122Y468724D01*
X609957Y468614D01*
X615576Y462996D01*
Y439004D01*
X609957Y433386D01*
X609122Y433276D01*
X608304Y432937D01*
X607602Y432398D01*
X607063Y431696D01*
X606724Y430878D01*
X606609Y430000D01*
X606724Y429122D01*
X607063Y428304D01*
X607602Y427602D01*
X608304Y427063D01*
X609122Y426724D01*
X609957Y426615D01*
X615576Y420996D01*
Y397004D01*
X609957Y391386D01*
X609122Y391276D01*
X608304Y390937D01*
X607602Y390398D01*
X607063Y389696D01*
X606724Y388878D01*
X606609Y388000D01*
X606724Y387122D01*
X607063Y386304D01*
X607602Y385602D01*
X608304Y385063D01*
X609122Y384724D01*
X609957Y384614D01*
X615576Y378996D01*
Y356004D01*
X609957Y350385D01*
X609122Y350276D01*
X608304Y349937D01*
X607602Y349398D01*
X607063Y348696D01*
X606724Y347878D01*
X606609Y347000D01*
X606724Y346122D01*
X607063Y345304D01*
X607602Y344602D01*
X608304Y344063D01*
X609122Y343724D01*
X610000Y343609D01*
X610878Y343724D01*
X611696Y344063D01*
X612398Y344602D01*
X612937Y345304D01*
X613276Y346122D01*
X613385Y346957D01*
X619714Y353286D01*
X620240Y354072D01*
X620425Y355000D01*
Y380000D01*
X620240Y380928D01*
X619714Y381714D01*
X613429Y388000D01*
X619714Y394286D01*
X620240Y395072D01*
X620425Y396000D01*
Y422000D01*
X620240Y422928D01*
X619714Y423714D01*
X613429Y430000D01*
X619714Y436286D01*
X620240Y437072D01*
X620425Y438000D01*
Y464000D01*
X620240Y464928D01*
X619714Y465714D01*
X613385Y472043D01*
X613276Y472878D01*
X612937Y473696D01*
X612398Y474398D01*
X611696Y474937D01*
X610878Y475276D01*
X610043Y475386D01*
X600714Y484714D01*
X599928Y485240D01*
X599000Y485425D01*
X580249D01*
X579685Y486031D01*
X580543Y488000D01*
X677000D01*
Y478923D01*
D02*
G37*
%LPC*%
G36*
X664000Y379939D02*
X662646Y379806D01*
X661345Y379411D01*
X660145Y378769D01*
X659093Y377907D01*
X658230Y376855D01*
X657589Y375655D01*
X657194Y374354D01*
X657061Y373000D01*
X657194Y371646D01*
X657589Y370345D01*
X658230Y369145D01*
X659093Y368093D01*
X660145Y367231D01*
X661345Y366589D01*
X662646Y366194D01*
X664000Y366061D01*
X665354Y366194D01*
X666655Y366589D01*
X667855Y367231D01*
X668907Y368093D01*
X669769Y369145D01*
X670411Y370345D01*
X670806Y371646D01*
X670939Y373000D01*
X670806Y374354D01*
X670411Y375655D01*
X669769Y376855D01*
X668907Y377907D01*
X667855Y378769D01*
X666655Y379411D01*
X665354Y379806D01*
X664000Y379939D01*
D02*
G37*
G36*
Y359939D02*
X662646Y359806D01*
X661345Y359411D01*
X660145Y358769D01*
X659093Y357907D01*
X658230Y356855D01*
X657589Y355655D01*
X657194Y354354D01*
X657061Y353000D01*
X657194Y351646D01*
X657589Y350345D01*
X658230Y349145D01*
X659093Y348093D01*
X660145Y347231D01*
X661345Y346589D01*
X662646Y346194D01*
X664000Y346061D01*
X665354Y346194D01*
X666655Y346589D01*
X667855Y347231D01*
X668907Y348093D01*
X669769Y349145D01*
X670411Y350345D01*
X670806Y351646D01*
X670939Y353000D01*
X670806Y354354D01*
X670411Y355655D01*
X669769Y356855D01*
X668907Y357907D01*
X667855Y358769D01*
X666655Y359411D01*
X665354Y359806D01*
X664000Y359939D01*
D02*
G37*
G36*
X475114Y374268D02*
X468618D01*
X468228Y374190D01*
X467897Y373969D01*
X467676Y373638D01*
X467598Y373248D01*
Y366752D01*
X467676Y366362D01*
X467897Y366031D01*
X468228Y365810D01*
X468618Y365732D01*
X475114D01*
X475504Y365810D01*
X475835Y366031D01*
X476056Y366362D01*
X476134Y366752D01*
Y373248D01*
X476056Y373638D01*
X475835Y373969D01*
X475504Y374190D01*
X475114Y374268D01*
D02*
G37*
G36*
X430268Y388285D02*
X429159Y388139D01*
X428125Y387711D01*
X427238Y387030D01*
X426557Y386142D01*
X426129Y385109D01*
X425983Y384000D01*
X426129Y382891D01*
X426557Y381858D01*
X427238Y380970D01*
X428125Y380289D01*
X429159Y379861D01*
X430268Y379715D01*
X431377Y379861D01*
X432410Y380289D01*
X433297Y380970D01*
X433978Y381858D01*
X434406Y382891D01*
X434552Y384000D01*
X434406Y385109D01*
X433978Y386142D01*
X433297Y387030D01*
X432410Y387711D01*
X431377Y388139D01*
X430268Y388285D01*
D02*
G37*
G36*
X664000Y399939D02*
X662646Y399806D01*
X661345Y399411D01*
X660145Y398769D01*
X659093Y397907D01*
X658230Y396855D01*
X657589Y395655D01*
X657194Y394354D01*
X657061Y393000D01*
X657194Y391646D01*
X657589Y390345D01*
X658230Y389145D01*
X659093Y388093D01*
X660145Y387230D01*
X661345Y386589D01*
X662646Y386194D01*
X664000Y386061D01*
X665354Y386194D01*
X666655Y386589D01*
X667855Y387230D01*
X668907Y388093D01*
X669769Y389145D01*
X670411Y390345D01*
X670806Y391646D01*
X670939Y393000D01*
X670806Y394354D01*
X670411Y395655D01*
X669769Y396855D01*
X668907Y397907D01*
X667855Y398769D01*
X666655Y399411D01*
X665354Y399806D01*
X664000Y399939D01*
D02*
G37*
G36*
X396000Y381833D02*
X395008Y381702D01*
X394084Y381319D01*
X393290Y380710D01*
X392681Y379916D01*
X392298Y378992D01*
X392167Y378000D01*
X392298Y377008D01*
X392681Y376084D01*
X393290Y375290D01*
X394084Y374681D01*
X395008Y374298D01*
X396000Y374167D01*
X396992Y374298D01*
X397916Y374681D01*
X398710Y375290D01*
X399319Y376084D01*
X399702Y377008D01*
X399833Y378000D01*
X399702Y378992D01*
X399319Y379916D01*
X398710Y380710D01*
X397916Y381319D01*
X396992Y381702D01*
X396000Y381833D01*
D02*
G37*
G36*
X584000Y379287D02*
X582891Y379141D01*
X581857Y378712D01*
X580969Y378031D01*
X580288Y377143D01*
X580019Y376494D01*
X579319Y376351D01*
X578682D01*
X577981Y376494D01*
X577712Y377143D01*
X577031Y378031D01*
X576143Y378712D01*
X575109Y379141D01*
X574000Y379287D01*
X572891Y379141D01*
X571857Y378712D01*
X570969Y378031D01*
X570288Y377143D01*
X570027Y376514D01*
X569493Y376398D01*
X568527D01*
X567993Y376514D01*
X567732Y377143D01*
X567051Y378031D01*
X566163Y378712D01*
X565129Y379141D01*
X564020Y379287D01*
X562910Y379141D01*
X561876Y378712D01*
X560989Y378031D01*
X560307Y377143D01*
X560038Y376494D01*
X559338Y376351D01*
X558701D01*
X558001Y376494D01*
X557732Y377143D01*
X557051Y378031D01*
X556163Y378712D01*
X555129Y379141D01*
X554020Y379287D01*
X552910Y379141D01*
X551876Y378712D01*
X550989Y378031D01*
X550307Y377143D01*
X549879Y376110D01*
X549733Y375000D01*
X549879Y373890D01*
X550307Y372857D01*
X550989Y371969D01*
X551876Y371288D01*
X552910Y370859D01*
X554020Y370713D01*
X555129Y370859D01*
X556163Y371288D01*
X557051Y371969D01*
X557732Y372857D01*
X558001Y373506D01*
X558701Y373649D01*
X559338D01*
X560038Y373506D01*
X560307Y372857D01*
X560989Y371969D01*
X561876Y371288D01*
X562910Y370859D01*
X564020Y370713D01*
X565129Y370859D01*
X566163Y371288D01*
X567051Y371969D01*
X567732Y372857D01*
X567993Y373486D01*
X568527Y373602D01*
X569493D01*
X570027Y373486D01*
X570288Y372857D01*
X570969Y371969D01*
X571857Y371288D01*
X572891Y370859D01*
X574000Y370713D01*
X575109Y370859D01*
X576143Y371288D01*
X577031Y371969D01*
X577712Y372857D01*
X577981Y373506D01*
X578682Y373649D01*
X579319D01*
X580019Y373506D01*
X580288Y372857D01*
X580969Y371969D01*
X581857Y371288D01*
X582891Y370859D01*
X584000Y370713D01*
X585110Y370859D01*
X586143Y371288D01*
X587031Y371969D01*
X587712Y372857D01*
X588141Y373890D01*
X588287Y375000D01*
X588141Y376110D01*
X587712Y377143D01*
X587031Y378031D01*
X586143Y378712D01*
X585110Y379141D01*
X584000Y379287D01*
D02*
G37*
G36*
X426000Y348043D02*
X424695Y347871D01*
X423478Y347368D01*
X422434Y346566D01*
X421632Y345522D01*
X421129Y344305D01*
X420957Y343000D01*
X421129Y341695D01*
X421632Y340478D01*
X422434Y339434D01*
X423478Y338632D01*
X424695Y338129D01*
X426000Y337957D01*
X427305Y338129D01*
X428522Y338632D01*
X429566Y339434D01*
X430368Y340478D01*
X430871Y341695D01*
X431043Y343000D01*
X430871Y344305D01*
X430368Y345522D01*
X429566Y346566D01*
X428522Y347368D01*
X427305Y347871D01*
X426000Y348043D01*
D02*
G37*
G36*
X547000Y474425D02*
X486000D01*
X485072Y474240D01*
X484286Y473714D01*
X478286Y467714D01*
X477760Y466928D01*
X477575Y466000D01*
Y456363D01*
X477063Y455696D01*
X476724Y454878D01*
X476609Y454000D01*
X476724Y453122D01*
X477063Y452304D01*
X477602Y451602D01*
X478304Y451063D01*
X479122Y450724D01*
X480000Y450609D01*
X480878Y450724D01*
X481696Y451063D01*
X482398Y451602D01*
X482937Y452304D01*
X483276Y453122D01*
X483391Y454000D01*
X483276Y454878D01*
X482937Y455696D01*
X482424Y456363D01*
Y464996D01*
X484041Y466612D01*
X484140Y466584D01*
X485789Y465577D01*
X485713Y465000D01*
X485859Y463891D01*
X486288Y462857D01*
X486969Y461969D01*
X487857Y461288D01*
X488506Y461019D01*
X488649Y460319D01*
Y459682D01*
X488506Y458981D01*
X487857Y458712D01*
X486969Y458031D01*
X486288Y457143D01*
X485859Y456110D01*
X485713Y455000D01*
X485859Y453891D01*
X486288Y452857D01*
X486969Y451969D01*
X487857Y451288D01*
X488891Y450859D01*
X490000Y450713D01*
X491110Y450859D01*
X492143Y451288D01*
X493031Y451969D01*
X493712Y452857D01*
X494141Y453891D01*
X494287Y455000D01*
X494141Y456110D01*
X493712Y457143D01*
X493031Y458031D01*
X492143Y458712D01*
X491494Y458981D01*
X491351Y459682D01*
Y460319D01*
X491494Y461019D01*
X492143Y461288D01*
X493031Y461969D01*
X493712Y462857D01*
X494141Y463891D01*
X494287Y465000D01*
X494141Y466110D01*
X493712Y467143D01*
X493686Y467178D01*
X493750Y467556D01*
X494433Y469086D01*
X495564Y469171D01*
X497028Y467675D01*
Y462047D01*
X497105Y461657D01*
X497326Y461326D01*
X497657Y461105D01*
X498047Y461028D01*
X503953D01*
X504343Y461105D01*
X504674Y461326D01*
X504895Y461657D01*
X504972Y462047D01*
Y467607D01*
X504972Y467953D01*
X505948Y469184D01*
X506439Y469576D01*
X527236D01*
X527827Y468477D01*
X528018Y467607D01*
X527547Y466993D01*
X527149Y466032D01*
X527013Y465000D01*
X527149Y463968D01*
X527547Y463007D01*
X528181Y462181D01*
X529007Y461547D01*
X529968Y461149D01*
X531000Y461013D01*
X532032Y461149D01*
X532993Y461547D01*
X533819Y462181D01*
X534220Y462704D01*
X535600Y462806D01*
X536439Y462659D01*
X536969Y461969D01*
X537857Y461288D01*
X538506Y461019D01*
X538649Y460319D01*
Y459682D01*
X538506Y458981D01*
X537857Y458712D01*
X536969Y458031D01*
X536439Y457341D01*
X535600Y457194D01*
X534220Y457296D01*
X533819Y457819D01*
X532993Y458453D01*
X532032Y458851D01*
X531000Y458987D01*
X529968Y458851D01*
X529007Y458453D01*
X528181Y457819D01*
X527547Y456993D01*
X527149Y456032D01*
X527013Y455000D01*
X527149Y453968D01*
X527547Y453007D01*
X528181Y452181D01*
X529007Y451547D01*
X529968Y451149D01*
X531000Y451013D01*
X532032Y451149D01*
X532993Y451547D01*
X533819Y452181D01*
X534220Y452704D01*
X535600Y452806D01*
X536439Y452659D01*
X536969Y451969D01*
X537857Y451288D01*
X538891Y450859D01*
X540000Y450713D01*
X541110Y450859D01*
X542143Y451288D01*
X543031Y451969D01*
X543712Y452857D01*
X544141Y453891D01*
X544287Y455000D01*
X544141Y456110D01*
X543712Y457143D01*
X543031Y458031D01*
X542143Y458712D01*
X541494Y458981D01*
X541351Y459682D01*
Y460319D01*
X541494Y461019D01*
X542143Y461288D01*
X543031Y461969D01*
X543712Y462857D01*
X544141Y463891D01*
X544287Y465000D01*
X544141Y466110D01*
X543712Y467143D01*
X543357Y467607D01*
X543820Y469039D01*
X544101Y469398D01*
X546099Y469473D01*
X556575Y458996D01*
Y444000D01*
X556760Y443072D01*
X557286Y442286D01*
X562015Y437556D01*
X562129Y436695D01*
X562633Y435478D01*
X563434Y434434D01*
X563746Y434195D01*
X563882Y433856D01*
Y432144D01*
X563746Y431805D01*
X563434Y431566D01*
X562633Y430522D01*
X562129Y429305D01*
X561957Y428000D01*
X562129Y426695D01*
X562633Y425478D01*
X563434Y424434D01*
X563746Y424195D01*
X563882Y423856D01*
Y422144D01*
X563746Y421805D01*
X563434Y421566D01*
X562633Y420522D01*
X562129Y419305D01*
X561957Y418000D01*
X562129Y416695D01*
X562633Y415478D01*
X563434Y414434D01*
X563746Y414195D01*
X563882Y413856D01*
Y412144D01*
X563746Y411805D01*
X563434Y411566D01*
X562633Y410522D01*
X562129Y409305D01*
X561957Y408000D01*
X562129Y406695D01*
X562633Y405478D01*
X563434Y404434D01*
X564478Y403632D01*
X565695Y403129D01*
X567000Y402957D01*
X568305Y403129D01*
X569522Y403632D01*
X570566Y404434D01*
X570805Y404746D01*
X571144Y404882D01*
X572856D01*
X573195Y404746D01*
X573434Y404434D01*
X574478Y403632D01*
X575695Y403129D01*
X577000Y402957D01*
X578305Y403129D01*
X579522Y403632D01*
X580566Y404434D01*
X581367Y405478D01*
X581871Y406695D01*
X582043Y408000D01*
X581871Y409305D01*
X581367Y410522D01*
X580566Y411566D01*
X580254Y411805D01*
X580118Y412144D01*
Y413856D01*
X580254Y414195D01*
X580566Y414434D01*
X581367Y415478D01*
X581871Y416695D01*
X582043Y418000D01*
X581871Y419305D01*
X581367Y420522D01*
X580566Y421566D01*
X580254Y421805D01*
X580118Y422144D01*
Y423856D01*
X580254Y424195D01*
X580566Y424434D01*
X581367Y425478D01*
X581871Y426695D01*
X582043Y428000D01*
X581871Y429305D01*
X581367Y430522D01*
X580566Y431566D01*
X580254Y431805D01*
X580118Y432144D01*
Y433856D01*
X580254Y434195D01*
X580566Y434434D01*
X581367Y435478D01*
X581871Y436695D01*
X582043Y438000D01*
X581871Y439305D01*
X581367Y440522D01*
X580566Y441566D01*
X580254Y441805D01*
X580118Y442144D01*
Y443856D01*
X580254Y444195D01*
X580566Y444434D01*
X581367Y445478D01*
X581871Y446695D01*
X582043Y448000D01*
X581871Y449305D01*
X581367Y450522D01*
X580566Y451566D01*
X579522Y452367D01*
X579424Y452408D01*
Y456996D01*
X587004Y464575D01*
X602996D01*
X606614Y460957D01*
X606724Y460122D01*
X607063Y459304D01*
X607576Y458637D01*
Y443004D01*
X599786Y435214D01*
X599260Y434428D01*
X599076Y433500D01*
Y427500D01*
X599260Y426572D01*
X599786Y425786D01*
X606614Y418957D01*
X606724Y418122D01*
X607063Y417304D01*
X607576Y416637D01*
Y401004D01*
X599286Y392714D01*
X598760Y391928D01*
X598575Y391000D01*
Y386000D01*
X598760Y385072D01*
X599286Y384286D01*
X606614Y376957D01*
X606724Y376122D01*
X607063Y375304D01*
X607576Y374637D01*
Y360004D01*
X599786Y352214D01*
X599260Y351428D01*
X599076Y350500D01*
Y344500D01*
X599260Y343572D01*
X599786Y342786D01*
X606614Y335957D01*
X606724Y335122D01*
X607063Y334304D01*
X607602Y333602D01*
X608304Y333063D01*
X609122Y332724D01*
X610000Y332609D01*
X610878Y332724D01*
X611696Y333063D01*
X612398Y333602D01*
X612937Y334304D01*
X613276Y335122D01*
X613391Y336000D01*
X613276Y336878D01*
X612937Y337696D01*
X612398Y338398D01*
X611696Y338937D01*
X610878Y339276D01*
X610043Y339386D01*
X603925Y345504D01*
Y349496D01*
X611714Y357286D01*
X612240Y358072D01*
X612425Y359000D01*
X612425Y359000D01*
Y374637D01*
X612937Y375304D01*
X613276Y376122D01*
X613391Y377000D01*
X613276Y377878D01*
X612937Y378696D01*
X612398Y379398D01*
X611696Y379937D01*
X610878Y380276D01*
X610043Y380385D01*
X603425Y387004D01*
Y389996D01*
X611714Y398286D01*
X612240Y399072D01*
X612425Y400000D01*
Y416637D01*
X612937Y417304D01*
X613276Y418122D01*
X613391Y419000D01*
X613276Y419878D01*
X612937Y420696D01*
X612398Y421398D01*
X611696Y421937D01*
X610878Y422276D01*
X610043Y422386D01*
X603925Y428504D01*
Y432496D01*
X611714Y440286D01*
X612240Y441072D01*
X612425Y442000D01*
X612425Y442000D01*
Y458637D01*
X612937Y459304D01*
X613276Y460122D01*
X613391Y461000D01*
X613276Y461878D01*
X612937Y462696D01*
X612398Y463398D01*
X611696Y463937D01*
X610878Y464276D01*
X610043Y464386D01*
X605714Y468714D01*
X604928Y469240D01*
X604000Y469424D01*
X586000D01*
X585072Y469240D01*
X584286Y468714D01*
X575286Y459714D01*
X574760Y458928D01*
X574576Y458000D01*
Y452408D01*
X574478Y452367D01*
X573434Y451566D01*
X573195Y451254D01*
X572856Y451118D01*
X571144D01*
X570805Y451254D01*
X570566Y451566D01*
X569522Y452367D01*
X568305Y452871D01*
X567000Y453043D01*
X565695Y452871D01*
X564478Y452367D01*
X563434Y451566D01*
X563393Y451513D01*
X561424Y452181D01*
Y460000D01*
X561240Y460928D01*
X560714Y461714D01*
X548714Y473714D01*
X547928Y474240D01*
X547000Y474425D01*
D02*
G37*
G36*
X664000Y339939D02*
X662646Y339806D01*
X661345Y339411D01*
X660145Y338770D01*
X659093Y337907D01*
X658230Y336855D01*
X657589Y335655D01*
X657194Y334354D01*
X657061Y333000D01*
X657194Y331646D01*
X657589Y330345D01*
X658230Y329145D01*
X659093Y328093D01*
X660145Y327231D01*
X661345Y326589D01*
X662646Y326194D01*
X664000Y326061D01*
X665354Y326194D01*
X666655Y326589D01*
X667855Y327231D01*
X668907Y328093D01*
X669769Y329145D01*
X670411Y330345D01*
X670806Y331646D01*
X670939Y333000D01*
X670806Y334354D01*
X670411Y335655D01*
X669769Y336855D01*
X668907Y337907D01*
X667855Y338770D01*
X666655Y339411D01*
X665354Y339806D01*
X664000Y339939D01*
D02*
G37*
G36*
X552000Y347539D02*
X550825Y347384D01*
X549731Y346931D01*
X548791Y346209D01*
X548069Y345269D01*
X547616Y344175D01*
X547461Y343000D01*
X547616Y341825D01*
X548069Y340731D01*
X548791Y339791D01*
X549731Y339069D01*
X550825Y338616D01*
X552000Y338461D01*
X553175Y338616D01*
X554269Y339069D01*
X555209Y339791D01*
X555931Y340731D01*
X556384Y341825D01*
X556539Y343000D01*
X556384Y344175D01*
X555931Y345269D01*
X555209Y346209D01*
X554269Y346931D01*
X553175Y347384D01*
X552000Y347539D01*
D02*
G37*
G36*
X532000D02*
X530825Y347384D01*
X529731Y346931D01*
X528791Y346209D01*
X528069Y345269D01*
X528065Y345260D01*
X525935D01*
X525931Y345269D01*
X525209Y346209D01*
X524269Y346931D01*
X523175Y347384D01*
X522000Y347539D01*
X520825Y347384D01*
X519731Y346931D01*
X518791Y346209D01*
X518069Y345269D01*
X517616Y344175D01*
X517461Y343000D01*
X517616Y341825D01*
X518069Y340731D01*
X518791Y339791D01*
X519731Y339069D01*
X520825Y338616D01*
X522000Y338461D01*
X523175Y338616D01*
X524269Y339069D01*
X525209Y339791D01*
X525931Y340731D01*
X525935Y340740D01*
X528065D01*
X528069Y340731D01*
X528791Y339791D01*
X529731Y339069D01*
X530825Y338616D01*
X532000Y338461D01*
X533175Y338616D01*
X534269Y339069D01*
X535209Y339791D01*
X535931Y340731D01*
X536384Y341825D01*
X536539Y343000D01*
X536384Y344175D01*
X535931Y345269D01*
X535209Y346209D01*
X534269Y346931D01*
X533175Y347384D01*
X532000Y347539D01*
D02*
G37*
G36*
X502000D02*
X500825Y347384D01*
X499731Y346931D01*
X498791Y346209D01*
X498069Y345269D01*
X498065Y345260D01*
X495935D01*
X495931Y345269D01*
X495209Y346209D01*
X494269Y346931D01*
X493175Y347384D01*
X492000Y347539D01*
X490825Y347384D01*
X489731Y346931D01*
X488791Y346209D01*
X488069Y345269D01*
X487616Y344175D01*
X487461Y343000D01*
X487616Y341825D01*
X488069Y340731D01*
X488791Y339791D01*
X489731Y339069D01*
X490825Y338616D01*
X492000Y338461D01*
X493175Y338616D01*
X494269Y339069D01*
X495209Y339791D01*
X495931Y340731D01*
X495935Y340740D01*
X498065D01*
X498069Y340731D01*
X498791Y339791D01*
X499731Y339069D01*
X500825Y338616D01*
X502000Y338461D01*
X503175Y338616D01*
X504269Y339069D01*
X505209Y339791D01*
X505931Y340731D01*
X506384Y341825D01*
X506539Y343000D01*
X506384Y344175D01*
X505931Y345269D01*
X505209Y346209D01*
X504269Y346931D01*
X503175Y347384D01*
X502000Y347539D01*
D02*
G37*
G36*
X454000Y349287D02*
X452890Y349141D01*
X451857Y348712D01*
X450969Y348031D01*
X450288Y347143D01*
X449859Y346110D01*
X449713Y345000D01*
X449859Y343891D01*
X450288Y342857D01*
X450969Y341969D01*
X451857Y341288D01*
X452890Y340859D01*
X454000Y340713D01*
X455110Y340859D01*
X456143Y341288D01*
X457031Y341969D01*
X457712Y342857D01*
X458141Y343891D01*
X458287Y345000D01*
X458141Y346110D01*
X457712Y347143D01*
X457031Y348031D01*
X456143Y348712D01*
X455110Y349141D01*
X454000Y349287D01*
D02*
G37*
G36*
X396000Y434833D02*
X395008Y434702D01*
X394084Y434319D01*
X393290Y433710D01*
X392681Y432916D01*
X392298Y431992D01*
X392167Y431000D01*
X392298Y430008D01*
X392681Y429084D01*
X393290Y428290D01*
X394084Y427681D01*
X395008Y427298D01*
X396000Y427167D01*
X396992Y427298D01*
X397916Y427681D01*
X398710Y428290D01*
X399319Y429084D01*
X399702Y430008D01*
X399833Y431000D01*
X399702Y431992D01*
X399319Y432916D01*
X398710Y433710D01*
X397916Y434319D01*
X396992Y434702D01*
X396000Y434833D01*
D02*
G37*
G36*
X501000Y458987D02*
X499968Y458851D01*
X499007Y458453D01*
X498181Y457819D01*
X497547Y456993D01*
X497149Y456032D01*
X497013Y455000D01*
X497149Y453968D01*
X497547Y453007D01*
X498181Y452181D01*
X499007Y451547D01*
X499968Y451149D01*
X501000Y451013D01*
X502032Y451149D01*
X502993Y451547D01*
X503819Y452181D01*
X504453Y453007D01*
X504851Y453968D01*
X504987Y455000D01*
X504851Y456032D01*
X504453Y456993D01*
X503819Y457819D01*
X502993Y458453D01*
X502032Y458851D01*
X501000Y458987D01*
D02*
G37*
G36*
X664000Y479939D02*
X662646Y479806D01*
X661345Y479411D01*
X660145Y478769D01*
X659093Y477907D01*
X658230Y476855D01*
X657589Y475655D01*
X657194Y474354D01*
X657061Y473000D01*
X657194Y471646D01*
X657589Y470345D01*
X658230Y469145D01*
X659093Y468093D01*
X660145Y467231D01*
X661345Y466589D01*
X662646Y466194D01*
X664000Y466061D01*
X665354Y466194D01*
X666655Y466589D01*
X667855Y467231D01*
X668907Y468093D01*
X669769Y469145D01*
X670411Y470345D01*
X670806Y471646D01*
X670939Y473000D01*
X670806Y474354D01*
X670411Y475655D01*
X669769Y476855D01*
X668907Y477907D01*
X667855Y478769D01*
X666655Y479411D01*
X665354Y479806D01*
X664000Y479939D01*
D02*
G37*
G36*
Y459939D02*
X662646Y459806D01*
X661345Y459411D01*
X660145Y458770D01*
X659093Y457907D01*
X658230Y456855D01*
X657589Y455655D01*
X657194Y454354D01*
X657061Y453000D01*
X657194Y451646D01*
X657589Y450345D01*
X658230Y449145D01*
X659093Y448093D01*
X660145Y447230D01*
X661345Y446589D01*
X662646Y446194D01*
X664000Y446061D01*
X665354Y446194D01*
X666655Y446589D01*
X667855Y447230D01*
X668907Y448093D01*
X669769Y449145D01*
X670411Y450345D01*
X670806Y451646D01*
X670939Y453000D01*
X670806Y454354D01*
X670411Y455655D01*
X669769Y456855D01*
X668907Y457907D01*
X667855Y458770D01*
X666655Y459411D01*
X665354Y459806D01*
X664000Y459939D01*
D02*
G37*
G36*
X429000Y456987D02*
X427968Y456851D01*
X427007Y456453D01*
X426181Y455819D01*
X425547Y454993D01*
X425149Y454032D01*
X425013Y453000D01*
X425149Y451968D01*
X425547Y451007D01*
X426181Y450181D01*
X427007Y449547D01*
X427968Y449149D01*
X429000Y449013D01*
X430032Y449149D01*
X430993Y449547D01*
X431819Y450181D01*
X432453Y451007D01*
X432851Y451968D01*
X432987Y453000D01*
X432851Y454032D01*
X432453Y454993D01*
X431819Y455819D01*
X430993Y456453D01*
X430032Y456851D01*
X429000Y456987D01*
D02*
G37*
G36*
X399000D02*
X397968Y456851D01*
X397007Y456453D01*
X396181Y455819D01*
X395547Y454993D01*
X395149Y454032D01*
X395013Y453000D01*
X395149Y451968D01*
X395547Y451007D01*
X396181Y450181D01*
X397007Y449547D01*
X397968Y449149D01*
X399000Y449013D01*
X400032Y449149D01*
X400993Y449547D01*
X401819Y450181D01*
X402453Y451007D01*
X402851Y451968D01*
X402987Y453000D01*
X402851Y454032D01*
X402453Y454993D01*
X401819Y455819D01*
X400993Y456453D01*
X400032Y456851D01*
X399000Y456987D01*
D02*
G37*
G36*
X389000D02*
X387968Y456851D01*
X387007Y456453D01*
X386181Y455819D01*
X385547Y454993D01*
X385149Y454032D01*
X385013Y453000D01*
X385149Y451968D01*
X385547Y451007D01*
X386181Y450181D01*
X387007Y449547D01*
X387968Y449149D01*
X389000Y449013D01*
X390032Y449149D01*
X390993Y449547D01*
X391819Y450181D01*
X392453Y451007D01*
X392851Y451968D01*
X392987Y453000D01*
X392851Y454032D01*
X392453Y454993D01*
X391819Y455819D01*
X390993Y456453D01*
X390032Y456851D01*
X389000Y456987D01*
D02*
G37*
G36*
Y476987D02*
X387968Y476851D01*
X387007Y476453D01*
X386181Y475819D01*
X385547Y474993D01*
X385149Y474032D01*
X385013Y473000D01*
X385149Y471968D01*
X385547Y471007D01*
X386181Y470181D01*
X387007Y469547D01*
X387968Y469149D01*
X389000Y469013D01*
X390032Y469149D01*
X390993Y469547D01*
X391819Y470181D01*
X392453Y471007D01*
X392851Y471968D01*
X392987Y473000D01*
X392851Y474032D01*
X392453Y474993D01*
X391819Y475819D01*
X390993Y476453D01*
X390032Y476851D01*
X389000Y476987D01*
D02*
G37*
G36*
X491000Y419287D02*
X489890Y419141D01*
X488857Y418712D01*
X487969Y418031D01*
X487288Y417143D01*
X486859Y416110D01*
X486713Y415000D01*
X486859Y413891D01*
X487288Y412857D01*
X487969Y411969D01*
X488857Y411288D01*
X489506Y411019D01*
X489649Y410319D01*
Y409682D01*
X489506Y408981D01*
X488857Y408712D01*
X487969Y408031D01*
X487288Y407143D01*
X486859Y406110D01*
X486713Y405000D01*
X486859Y403891D01*
X487288Y402857D01*
X487969Y401969D01*
X488857Y401288D01*
X489890Y400859D01*
X491000Y400713D01*
X492109Y400859D01*
X493143Y401288D01*
X494031Y401969D01*
X494712Y402857D01*
X495141Y403891D01*
X495157Y404016D01*
X497143Y404016D01*
X497149Y403968D01*
X497547Y403007D01*
X498181Y402181D01*
X499007Y401547D01*
X499968Y401149D01*
X501000Y401013D01*
X502032Y401149D01*
X502993Y401547D01*
X503819Y402181D01*
X504453Y403007D01*
X504851Y403968D01*
X504987Y405000D01*
X504851Y406032D01*
X504453Y406993D01*
X503819Y407819D01*
X502993Y408453D01*
X502032Y408851D01*
X501000Y408987D01*
X499968Y408851D01*
X499007Y408453D01*
X498181Y407819D01*
X497547Y406993D01*
X497149Y406032D01*
X497143Y405984D01*
X495157Y405984D01*
X495141Y406110D01*
X494712Y407143D01*
X494031Y408031D01*
X493143Y408712D01*
X492494Y408981D01*
X492351Y409682D01*
Y410319D01*
X492494Y411019D01*
X493143Y411288D01*
X494031Y411969D01*
X494712Y412857D01*
X495141Y413891D01*
X495157Y414016D01*
X497143Y414016D01*
X497149Y413968D01*
X497547Y413007D01*
X498181Y412181D01*
X499007Y411547D01*
X499968Y411149D01*
X501000Y411013D01*
X502032Y411149D01*
X502993Y411547D01*
X503819Y412181D01*
X504453Y413007D01*
X504851Y413968D01*
X504987Y415000D01*
X504851Y416032D01*
X504453Y416993D01*
X503819Y417819D01*
X502993Y418453D01*
X502032Y418851D01*
X501000Y418987D01*
X499968Y418851D01*
X499007Y418453D01*
X498181Y417819D01*
X497547Y416993D01*
X497149Y416032D01*
X497143Y415984D01*
X495157Y415984D01*
X495141Y416110D01*
X494712Y417143D01*
X494031Y418031D01*
X493143Y418712D01*
X492109Y419141D01*
X491000Y419287D01*
D02*
G37*
G36*
X664000Y419939D02*
X662646Y419806D01*
X661345Y419411D01*
X660145Y418770D01*
X659093Y417907D01*
X658230Y416855D01*
X657589Y415655D01*
X657194Y414354D01*
X657061Y413000D01*
X657194Y411646D01*
X657589Y410345D01*
X658230Y409145D01*
X659093Y408093D01*
X660145Y407231D01*
X661345Y406589D01*
X662646Y406194D01*
X664000Y406061D01*
X665354Y406194D01*
X666655Y406589D01*
X667855Y407231D01*
X668907Y408093D01*
X669769Y409145D01*
X670411Y410345D01*
X670806Y411646D01*
X670939Y413000D01*
X670806Y414354D01*
X670411Y415655D01*
X669769Y416855D01*
X668907Y417907D01*
X667855Y418770D01*
X666655Y419411D01*
X665354Y419806D01*
X664000Y419939D01*
D02*
G37*
G36*
X429000Y476987D02*
X427968Y476851D01*
X427007Y476453D01*
X426181Y475819D01*
X425547Y474993D01*
X425149Y474032D01*
X425013Y473000D01*
X425149Y471968D01*
X425547Y471007D01*
X426181Y470181D01*
X427007Y469547D01*
X427968Y469149D01*
X429000Y469013D01*
X430032Y469149D01*
X430993Y469547D01*
X431819Y470181D01*
X432453Y471007D01*
X432851Y471968D01*
X432987Y473000D01*
X432851Y474032D01*
X432453Y474993D01*
X431819Y475819D01*
X430993Y476453D01*
X430032Y476851D01*
X429000Y476987D01*
D02*
G37*
G36*
X540000Y419287D02*
X538891Y419141D01*
X537857Y418712D01*
X536969Y418031D01*
X536439Y417341D01*
X535600Y417194D01*
X534220Y417296D01*
X533819Y417819D01*
X532993Y418453D01*
X532032Y418851D01*
X531000Y418987D01*
X529968Y418851D01*
X529007Y418453D01*
X528181Y417819D01*
X527547Y416993D01*
X527149Y416032D01*
X527013Y415000D01*
X527149Y413968D01*
X527547Y413007D01*
X528181Y412181D01*
X529007Y411547D01*
X529968Y411149D01*
X531000Y411013D01*
X532032Y411149D01*
X532993Y411547D01*
X533819Y412181D01*
X534220Y412704D01*
X535600Y412806D01*
X536439Y412659D01*
X536969Y411969D01*
X537857Y411288D01*
X538506Y411019D01*
X538649Y410319D01*
Y409682D01*
X538506Y408981D01*
X537857Y408712D01*
X536969Y408031D01*
X536439Y407341D01*
X535600Y407194D01*
X534220Y407296D01*
X533819Y407819D01*
X532993Y408453D01*
X532032Y408851D01*
X531000Y408987D01*
X529968Y408851D01*
X529007Y408453D01*
X528181Y407819D01*
X527547Y406993D01*
X527149Y406032D01*
X527013Y405000D01*
X527149Y403968D01*
X527547Y403007D01*
X528181Y402181D01*
X529007Y401547D01*
X529968Y401149D01*
X531000Y401013D01*
X532032Y401149D01*
X532993Y401547D01*
X533819Y402181D01*
X534220Y402704D01*
X535600Y402806D01*
X536439Y402659D01*
X536969Y401969D01*
X537857Y401288D01*
X538891Y400859D01*
X540000Y400713D01*
X541110Y400859D01*
X542143Y401288D01*
X543031Y401969D01*
X543712Y402857D01*
X544141Y403891D01*
X544287Y405000D01*
X544141Y406110D01*
X543712Y407143D01*
X543031Y408031D01*
X542143Y408712D01*
X541494Y408981D01*
X541351Y409682D01*
Y410319D01*
X541494Y411019D01*
X542143Y411288D01*
X543031Y411969D01*
X543712Y412857D01*
X544141Y413891D01*
X544287Y415000D01*
X544141Y416110D01*
X543712Y417143D01*
X543031Y418031D01*
X542143Y418712D01*
X541110Y419141D01*
X540000Y419287D01*
D02*
G37*
G36*
X399000Y476987D02*
X397968Y476851D01*
X397007Y476453D01*
X396181Y475819D01*
X395547Y474993D01*
X395149Y474032D01*
X395013Y473000D01*
X395149Y471968D01*
X395547Y471007D01*
X396181Y470181D01*
X397007Y469547D01*
X397968Y469149D01*
X399000Y469013D01*
X399368Y469062D01*
X409475Y458954D01*
Y423525D01*
X383046D01*
X372872Y433699D01*
X373043Y435000D01*
X372871Y436305D01*
X372368Y437522D01*
X371566Y438566D01*
X370522Y439367D01*
X369305Y439871D01*
X368000Y440043D01*
X366695Y439871D01*
X365478Y439367D01*
X364434Y438566D01*
X364195Y438254D01*
X363856Y438118D01*
X362144D01*
X361805Y438254D01*
X361566Y438566D01*
X361254Y438805D01*
X361118Y439144D01*
Y440856D01*
X361254Y441195D01*
X361566Y441434D01*
X362368Y442478D01*
X362871Y443695D01*
X363043Y445000D01*
X362871Y446305D01*
X362368Y447522D01*
X361566Y448566D01*
X361254Y448805D01*
X361118Y449144D01*
Y450856D01*
X361254Y451195D01*
X361566Y451434D01*
X362368Y452478D01*
X362871Y453695D01*
X363043Y455000D01*
X362871Y456305D01*
X362368Y457522D01*
X361566Y458566D01*
X361254Y458805D01*
X361118Y459144D01*
Y460856D01*
X361254Y461195D01*
X361566Y461434D01*
X362368Y462478D01*
X362871Y463695D01*
X363043Y465000D01*
X362871Y466305D01*
X362368Y467522D01*
X362302Y467607D01*
X363273Y469576D01*
X369996D01*
X372575Y466996D01*
Y442000D01*
X372760Y441072D01*
X373286Y440286D01*
X382214Y431357D01*
X382167Y431000D01*
X382298Y430008D01*
X382681Y429084D01*
X383290Y428290D01*
X384084Y427681D01*
X385008Y427298D01*
X386000Y427167D01*
X386992Y427298D01*
X387916Y427681D01*
X388710Y428290D01*
X389319Y429084D01*
X389702Y430008D01*
X389833Y431000D01*
X389702Y431992D01*
X389319Y432916D01*
X388710Y433710D01*
X387916Y434319D01*
X386992Y434702D01*
X386000Y434833D01*
X385643Y434786D01*
X377425Y443004D01*
Y468000D01*
X377240Y468928D01*
X376714Y469714D01*
X372714Y473714D01*
X371928Y474240D01*
X371000Y474425D01*
X353799D01*
X352871Y474240D01*
X352085Y473714D01*
X347286Y468915D01*
X346760Y468129D01*
X346575Y467201D01*
Y443161D01*
X346760Y442234D01*
X347286Y441447D01*
X351644Y437089D01*
X351870Y436938D01*
X353056Y435752D01*
X352957Y435000D01*
X353129Y433695D01*
X353632Y432478D01*
X354434Y431434D01*
X354746Y431195D01*
X354882Y430856D01*
Y429144D01*
X354746Y428805D01*
X354434Y428566D01*
X353632Y427522D01*
X353129Y426305D01*
X352957Y425000D01*
X353129Y423695D01*
X353632Y422478D01*
X354434Y421434D01*
X354946Y421041D01*
X355110Y420453D01*
Y419311D01*
X354946Y418722D01*
X354434Y418330D01*
X353632Y417285D01*
X353129Y416069D01*
X352957Y414764D01*
X353129Y413458D01*
X353632Y412242D01*
X354434Y411198D01*
X354946Y410805D01*
X355110Y410217D01*
Y409075D01*
X354946Y408486D01*
X354434Y408094D01*
X353632Y407049D01*
X353129Y405833D01*
X352957Y404528D01*
X353129Y403222D01*
X353632Y402006D01*
X354434Y400961D01*
X354946Y400569D01*
X355110Y399980D01*
Y398839D01*
X354946Y398250D01*
X354434Y397857D01*
X353739Y396952D01*
X351512D01*
X350585Y396767D01*
X349798Y396242D01*
X332530Y378974D01*
X332004Y378187D01*
X331820Y377259D01*
Y348756D01*
X331869Y348505D01*
X331741Y348334D01*
X329546Y347883D01*
X313424Y364004D01*
Y422665D01*
X315393Y423057D01*
X315633Y422478D01*
X316434Y421434D01*
X317478Y420633D01*
X318695Y420129D01*
X320000Y419957D01*
X321305Y420129D01*
X322522Y420633D01*
X323566Y421434D01*
X323805Y421746D01*
X324144Y421882D01*
X325856D01*
X326195Y421746D01*
X326434Y421434D01*
X327478Y420633D01*
X328695Y420129D01*
X330000Y419957D01*
X331305Y420129D01*
X332522Y420633D01*
X333566Y421434D01*
X334367Y422478D01*
X334871Y423695D01*
X335043Y425000D01*
X334871Y426305D01*
X334367Y427522D01*
X333566Y428566D01*
X333254Y428805D01*
X333118Y429144D01*
Y430856D01*
X333254Y431195D01*
X333566Y431434D01*
X334367Y432478D01*
X334871Y433695D01*
X335043Y435000D01*
X334871Y436305D01*
X334367Y437522D01*
X333566Y438566D01*
X333254Y438805D01*
X333118Y439144D01*
Y440856D01*
X333254Y441195D01*
X333566Y441434D01*
X334367Y442478D01*
X334871Y443695D01*
X335043Y445000D01*
X334871Y446305D01*
X334367Y447522D01*
X333566Y448566D01*
X333254Y448805D01*
X333118Y449144D01*
Y450856D01*
X333254Y451195D01*
X333566Y451434D01*
X334367Y452478D01*
X334871Y453695D01*
X335043Y455000D01*
X334871Y456305D01*
X334367Y457522D01*
X333566Y458566D01*
X333254Y458805D01*
X333118Y459144D01*
Y460856D01*
X333254Y461195D01*
X333566Y461434D01*
X334367Y462478D01*
X334871Y463695D01*
X335043Y465000D01*
X334871Y466305D01*
X334367Y467522D01*
X333566Y468566D01*
X332522Y469368D01*
X331305Y469871D01*
X330000Y470043D01*
X328695Y469871D01*
X327478Y469368D01*
X326434Y468566D01*
X325633Y467522D01*
X325129Y466305D01*
X324957Y465000D01*
X325129Y463695D01*
X325633Y462478D01*
X326434Y461434D01*
X326577Y459357D01*
X325643Y458423D01*
X323566Y458566D01*
X322522Y459368D01*
X321305Y459871D01*
X320000Y460043D01*
X318695Y459871D01*
X317478Y459368D01*
X316434Y458566D01*
X315633Y457522D01*
X315129Y456305D01*
X314957Y455000D01*
X315028Y454457D01*
X309286Y448714D01*
X308760Y447928D01*
X308576Y447000D01*
Y363000D01*
X308760Y362072D01*
X309286Y361286D01*
X325721Y344850D01*
X325609Y344000D01*
X325724Y343122D01*
X326063Y342304D01*
X326602Y341602D01*
X327304Y341063D01*
X328122Y340724D01*
X329000Y340609D01*
X329878Y340724D01*
X330696Y341063D01*
X331398Y341602D01*
X331937Y342304D01*
X332276Y343122D01*
X332391Y344000D01*
X332331Y344456D01*
X333433Y345259D01*
X334094Y345477D01*
X352286Y327286D01*
X353072Y326760D01*
X354000Y326575D01*
X391637D01*
X392304Y326063D01*
X393122Y325724D01*
X394000Y325609D01*
X394878Y325724D01*
X395696Y326063D01*
X396398Y326602D01*
X396937Y327304D01*
X397276Y328122D01*
X397391Y329000D01*
X397276Y329878D01*
X396937Y330696D01*
X396398Y331398D01*
X395696Y331937D01*
Y334063D01*
X396398Y334602D01*
X396937Y335304D01*
X397276Y336122D01*
X397391Y337000D01*
X397276Y337878D01*
X396937Y338696D01*
X396398Y339398D01*
X395696Y339937D01*
X394878Y340276D01*
X394000Y340391D01*
X393122Y340276D01*
X392304Y339937D01*
X391637Y339424D01*
X353004D01*
X340424Y352004D01*
Y358371D01*
X341851Y359508D01*
X342393Y359689D01*
X343000Y359609D01*
X343878Y359724D01*
X344696Y360063D01*
X345363Y360576D01*
X352371D01*
X353508Y359149D01*
X353689Y358607D01*
X353609Y358000D01*
X353724Y357122D01*
X354063Y356304D01*
X354602Y355602D01*
X354664Y355554D01*
X354760Y355072D01*
X355286Y354286D01*
X360286Y349286D01*
X361072Y348760D01*
X362000Y348575D01*
X419000D01*
X419928Y348760D01*
X420714Y349286D01*
X431848Y360420D01*
X432374Y361206D01*
X432558Y362134D01*
Y366506D01*
X433164Y366970D01*
X433845Y367858D01*
X434272Y368891D01*
X434418Y370000D01*
X434272Y371109D01*
X433845Y372142D01*
X433164Y373030D01*
X432276Y373711D01*
X431243Y374139D01*
X430134Y374285D01*
X429025Y374139D01*
X427991Y373711D01*
X427104Y373030D01*
X426423Y372142D01*
X425995Y371109D01*
X425849Y370000D01*
X425995Y368891D01*
X426423Y367858D01*
X427104Y366970D01*
X427709Y366506D01*
Y363138D01*
X417996Y353425D01*
X399513D01*
X398867Y354925D01*
X398789Y355393D01*
X399319Y356084D01*
X399702Y357008D01*
X399833Y358000D01*
X399702Y358992D01*
X399319Y359916D01*
X398710Y360710D01*
X398613Y360785D01*
X399281Y362753D01*
X418486D01*
X418602Y362602D01*
X419304Y362063D01*
X420122Y361724D01*
X421000Y361609D01*
X421878Y361724D01*
X422696Y362063D01*
X423398Y362602D01*
X423937Y363304D01*
X424276Y364122D01*
X424391Y365000D01*
X424276Y365878D01*
X423937Y366696D01*
X423398Y367398D01*
X422696Y367937D01*
X421878Y368276D01*
X421000Y368391D01*
X420122Y368276D01*
X419304Y367937D01*
X418869Y367602D01*
X387495D01*
X382354Y372744D01*
X382482Y373428D01*
X383005Y373837D01*
X384674Y374436D01*
X385008Y374298D01*
X386000Y374167D01*
X386992Y374298D01*
X387916Y374681D01*
X388710Y375290D01*
X389319Y376084D01*
X389702Y377008D01*
X389833Y378000D01*
X389702Y378992D01*
X389319Y379916D01*
X388710Y380710D01*
X387916Y381319D01*
X386992Y381702D01*
X386000Y381833D01*
X385008Y381702D01*
X384084Y381319D01*
X383393Y380789D01*
X382925Y380867D01*
X381424Y381513D01*
Y394487D01*
X382925Y395133D01*
X383393Y395211D01*
X384084Y394681D01*
X385008Y394298D01*
X386000Y394167D01*
X386992Y394298D01*
X387916Y394681D01*
X388710Y395290D01*
X389319Y396084D01*
X389702Y397008D01*
X389833Y398000D01*
X389720Y398859D01*
X389849Y399192D01*
X390947Y400679D01*
X391053D01*
X392150Y399192D01*
X392280Y398859D01*
X392167Y398000D01*
X392298Y397008D01*
X392681Y396084D01*
X393290Y395290D01*
X394084Y394681D01*
X395008Y394298D01*
X396000Y394167D01*
X396992Y394298D01*
X397916Y394681D01*
X398710Y395290D01*
X399319Y396084D01*
X399702Y397008D01*
X399833Y398000D01*
X399702Y398992D01*
X399447Y399607D01*
X399875Y400680D01*
X400527Y401576D01*
X461996D01*
X473335Y390236D01*
X472520Y388268D01*
X468752D01*
X468362Y388190D01*
X468031Y387969D01*
X467810Y387638D01*
X467732Y387248D01*
Y380752D01*
X467810Y380362D01*
X468031Y380031D01*
X468362Y379810D01*
X468752Y379732D01*
X475248D01*
X475638Y379810D01*
X475969Y380031D01*
X476190Y380362D01*
X476268Y380752D01*
Y384520D01*
X478236Y385335D01*
X491286Y372286D01*
X492072Y371760D01*
X493000Y371575D01*
X500592D01*
X500632Y371478D01*
X501434Y370434D01*
X502478Y369633D01*
X503695Y369129D01*
X505000Y368957D01*
X506305Y369129D01*
X507522Y369633D01*
X508566Y370434D01*
X509368Y371478D01*
X509871Y372695D01*
X510043Y374000D01*
X509871Y375305D01*
X509368Y376522D01*
X508566Y377566D01*
X507522Y378367D01*
X506305Y378871D01*
X505000Y379043D01*
X503695Y378871D01*
X502478Y378367D01*
X501434Y377566D01*
X500632Y376522D01*
X500592Y376425D01*
X494004D01*
X465932Y404496D01*
X494011Y432576D01*
X497878D01*
X498181Y432181D01*
X499007Y431547D01*
X499968Y431149D01*
X501000Y431013D01*
X502032Y431149D01*
X502993Y431547D01*
X503819Y432181D01*
X504453Y433007D01*
X504851Y433968D01*
X504987Y435000D01*
X504851Y436032D01*
X504453Y436993D01*
X503819Y437819D01*
X502993Y438453D01*
X502032Y438851D01*
X501000Y438987D01*
X499968Y438851D01*
X499007Y438453D01*
X498181Y437819D01*
X497878Y437425D01*
X493007D01*
X492079Y437240D01*
X491293Y436714D01*
X461003Y406425D01*
X420819D01*
X419717Y407724D01*
X419450Y408393D01*
X419530Y409000D01*
X419518Y409090D01*
X434004Y423575D01*
X445592D01*
X445633Y423478D01*
X446434Y422434D01*
X446746Y422195D01*
X446882Y421856D01*
Y420144D01*
X446746Y419805D01*
X446434Y419566D01*
X445633Y418522D01*
X445129Y417305D01*
X444957Y416000D01*
X445129Y414695D01*
X445633Y413478D01*
X446434Y412434D01*
X447478Y411632D01*
X448695Y411129D01*
X450000Y410957D01*
X451305Y411129D01*
X452522Y411632D01*
X453566Y412434D01*
X453805Y412746D01*
X454144Y412882D01*
X455856D01*
X456195Y412746D01*
X456434Y412434D01*
X457478Y411632D01*
X458695Y411129D01*
X460000Y410957D01*
X461305Y411129D01*
X462522Y411632D01*
X463566Y412434D01*
X464367Y413478D01*
X464871Y414695D01*
X465043Y416000D01*
X464871Y417305D01*
X464367Y418522D01*
X463566Y419566D01*
X463254Y419805D01*
X463118Y420144D01*
Y421856D01*
X463254Y422195D01*
X463566Y422434D01*
X464367Y423478D01*
X464871Y424695D01*
X465043Y426000D01*
X464871Y427305D01*
X464367Y428522D01*
X463566Y429566D01*
X463254Y429805D01*
X463118Y430144D01*
Y431856D01*
X463254Y432195D01*
X463566Y432434D01*
X464367Y433478D01*
X464871Y434695D01*
X465043Y436000D01*
X464871Y437305D01*
X464367Y438522D01*
X463566Y439566D01*
X463254Y439805D01*
X463118Y440144D01*
Y441856D01*
X463254Y442195D01*
X463566Y442434D01*
X464367Y443478D01*
X464871Y444695D01*
X465043Y446000D01*
X464871Y447305D01*
X464367Y448522D01*
X463566Y449566D01*
X463254Y449805D01*
X463118Y450144D01*
Y451856D01*
X463254Y452195D01*
X463566Y452434D01*
X464367Y453478D01*
X464871Y454695D01*
X465043Y456000D01*
X464871Y457305D01*
X464367Y458522D01*
X463566Y459566D01*
X463054Y459959D01*
X462890Y460547D01*
Y461689D01*
X463054Y462278D01*
X463566Y462670D01*
X464367Y463715D01*
X464871Y464931D01*
X465043Y466236D01*
X464871Y467542D01*
X464367Y468758D01*
X463566Y469802D01*
X462522Y470604D01*
X461305Y471107D01*
X460000Y471279D01*
X458695Y471107D01*
X457478Y470604D01*
X456434Y469802D01*
X455632Y468758D01*
X455129Y467542D01*
X454957Y466236D01*
X455129Y464931D01*
X455632Y463715D01*
X456434Y462670D01*
X456946Y462278D01*
X457110Y461689D01*
Y460547D01*
X456946Y459959D01*
X456434Y459566D01*
X455632Y458522D01*
X455129Y457305D01*
X454957Y456000D01*
X455129Y454695D01*
X455632Y453478D01*
X456434Y452434D01*
X456746Y452195D01*
X456882Y451856D01*
Y450144D01*
X456746Y449805D01*
X456434Y449566D01*
X455632Y448522D01*
X455129Y447305D01*
X454957Y446000D01*
X455129Y444695D01*
X455632Y443478D01*
X456434Y442434D01*
X456746Y442195D01*
X456882Y441856D01*
Y440144D01*
X456746Y439805D01*
X456434Y439566D01*
X455632Y438522D01*
X455129Y437305D01*
X454957Y436000D01*
X455129Y434695D01*
X455632Y433478D01*
X456434Y432434D01*
X456577Y430357D01*
X455643Y429423D01*
X453566Y429566D01*
X452522Y430368D01*
X451305Y430871D01*
X450000Y431043D01*
X448695Y430871D01*
X447478Y430368D01*
X446434Y429566D01*
X445633Y428522D01*
X445592Y428425D01*
X433000D01*
X432072Y428240D01*
X431286Y427714D01*
X416090Y412518D01*
X416000Y412530D01*
X415086Y412410D01*
X414235Y412057D01*
X413504Y411496D01*
X412943Y410765D01*
X412590Y409914D01*
X412470Y409000D01*
X412550Y408393D01*
X412283Y407724D01*
X411181Y406425D01*
X390004D01*
X374271Y422158D01*
X374312Y422334D01*
X376477Y422952D01*
X380215Y419215D01*
X381034Y418667D01*
X382000Y418475D01*
X409541D01*
X410235Y417943D01*
X411086Y417590D01*
X412000Y417470D01*
X412914Y417590D01*
X413765Y417943D01*
X414496Y418504D01*
X415057Y419235D01*
X415410Y420086D01*
X415530Y421000D01*
X415410Y421914D01*
X415057Y422765D01*
X414525Y423459D01*
Y460000D01*
X414333Y460966D01*
X413785Y461785D01*
X402939Y472632D01*
X402987Y473000D01*
X402851Y474032D01*
X402453Y474993D01*
X401819Y475819D01*
X400993Y476453D01*
X400032Y476851D01*
X399000Y476987D01*
D02*
G37*
G36*
X664000Y439939D02*
X662646Y439806D01*
X661345Y439411D01*
X660145Y438769D01*
X659093Y437907D01*
X658230Y436855D01*
X657589Y435655D01*
X657194Y434354D01*
X657061Y433000D01*
X657194Y431646D01*
X657589Y430345D01*
X658230Y429145D01*
X659093Y428093D01*
X660145Y427231D01*
X661345Y426589D01*
X662646Y426194D01*
X664000Y426061D01*
X665354Y426194D01*
X666655Y426589D01*
X667855Y427231D01*
X668907Y428093D01*
X669769Y429145D01*
X670411Y430345D01*
X670806Y431646D01*
X670939Y433000D01*
X670806Y434354D01*
X670411Y435655D01*
X669769Y436855D01*
X668907Y437907D01*
X667855Y438769D01*
X666655Y439411D01*
X665354Y439806D01*
X664000Y439939D01*
D02*
G37*
%LPD*%
G36*
X391586Y333366D02*
X391544Y332384D01*
X390548Y331424D01*
X355211D01*
X354068Y332843D01*
X354815Y334576D01*
X391044D01*
X391586Y333366D01*
D02*
G37*
G36*
X353129Y382750D02*
X353632Y381534D01*
X354434Y380489D01*
X354946Y380096D01*
X355110Y379508D01*
Y378366D01*
X354946Y377778D01*
X354434Y377385D01*
X353632Y376341D01*
X353129Y375124D01*
X352957Y373819D01*
X353129Y372514D01*
X353552Y371493D01*
X352559Y369799D01*
X350783Y369646D01*
X346386Y374043D01*
X346276Y374878D01*
X345937Y375696D01*
X345398Y376398D01*
X345120Y376611D01*
X344737Y378192D01*
X344764Y379039D01*
X348653Y382927D01*
X353105D01*
X353129Y382750D01*
D02*
G37*
G36*
X385803Y403768D02*
X385076Y401711D01*
X385008Y401702D01*
X384084Y401319D01*
X383393Y400789D01*
X382925Y400867D01*
X381424Y401513D01*
Y404000D01*
X381240Y404928D01*
X380714Y405714D01*
X374199Y412230D01*
X374264Y412523D01*
X376421Y413151D01*
X385803Y403768D01*
D02*
G37*
G36*
X381500Y360828D02*
X382021Y360426D01*
X382562Y359631D01*
X382298Y358992D01*
X382167Y358000D01*
X382298Y357008D01*
X382681Y356084D01*
X383211Y355393D01*
X383133Y354925D01*
X382487Y353425D01*
X375629D01*
X374492Y354852D01*
X374311Y355393D01*
X374385Y355957D01*
X379091Y360663D01*
X379500Y360609D01*
X380378Y360724D01*
X381094Y361021D01*
X381500Y360828D01*
D02*
G37*
G36*
X368409Y360508D02*
X368874Y358607D01*
X368602Y358398D01*
X368063Y357696D01*
X367724Y356878D01*
X367609Y356000D01*
X367689Y355393D01*
X367509Y354852D01*
X366371Y353425D01*
X363004D01*
X359992Y356437D01*
X360276Y357122D01*
X360391Y358000D01*
X360311Y358607D01*
X360491Y359149D01*
X361629Y360576D01*
X368371D01*
X368409Y360508D01*
D02*
G37*
G36*
X393387Y360785D02*
X393290Y360710D01*
X392681Y359916D01*
X392298Y358992D01*
X392167Y358000D01*
X392298Y357008D01*
X392681Y356084D01*
X393211Y355393D01*
X393133Y354925D01*
X392487Y353425D01*
X389513D01*
X388867Y354925D01*
X388789Y355393D01*
X389319Y356084D01*
X389702Y357008D01*
X389833Y358000D01*
X389702Y358992D01*
X389319Y359916D01*
X388710Y360710D01*
X388613Y360785D01*
X389281Y362753D01*
X392719D01*
X393387Y360785D01*
D02*
G37*
D19*
X386491Y365178D02*
X421822D01*
X368000Y415000D02*
X379000Y404000D01*
X367000Y415000D02*
X368000D01*
X367000Y435236D02*
X368441D01*
X367000Y424000D02*
Y425236D01*
X357000D02*
X367000D01*
X504000Y374000D02*
X505000Y373000D01*
X334244Y348756D02*
Y377259D01*
Y348756D02*
X354000Y329000D01*
X334244Y377259D02*
X351512Y394528D01*
X559000Y444000D02*
X567000Y436000D01*
X421000Y365000D02*
X421644D01*
X421822Y365178D01*
X338000Y351000D02*
X352000Y337000D01*
X394000D01*
X343000Y363000D02*
X371513D01*
X379000Y370487D01*
X338000Y351000D02*
Y375704D01*
X347648Y385352D01*
X370201Y367000D02*
X375000Y371799D01*
X350000Y367000D02*
X370201D01*
X343000Y374000D02*
X350000Y367000D01*
X329000Y344000D02*
Y345000D01*
X311000Y363000D02*
X329000Y345000D01*
X368236Y404764D02*
X375000Y398000D01*
X367000Y404764D02*
X368236D01*
X375000Y371799D02*
Y398000D01*
X354000Y329000D02*
X394000D01*
X430134Y362134D02*
Y370000D01*
X419000Y351000D02*
X430134Y362134D01*
X362000Y351000D02*
X419000D01*
X433000Y426000D02*
X450000D01*
X416000Y409000D02*
X433000Y426000D01*
X463000Y404000D02*
X493000Y374000D01*
X389000Y404000D02*
X463000D01*
X368000Y425000D02*
X389000Y404000D01*
X493007Y435000D02*
X501000D01*
X462504Y404496D02*
X493007Y435000D01*
X493000Y374000D02*
X504000D01*
X577000Y448000D02*
Y458000D01*
Y446000D02*
Y448000D01*
X599000Y483000D02*
X610000Y472000D01*
X577000Y483000D02*
X599000D01*
X371000Y356000D02*
X379000Y364000D01*
X379500D01*
X379000Y370487D02*
Y372669D01*
X386491Y365178D01*
X357000Y356000D02*
X362000Y351000D01*
X375000Y442000D02*
X386000Y431000D01*
X375000Y442000D02*
Y468000D01*
X371000Y472000D02*
X375000Y468000D01*
X353799Y472000D02*
X371000D01*
X349000Y467201D02*
X353799Y472000D01*
X351512Y394528D02*
X357000D01*
X486000Y472000D02*
X547000D01*
X355940Y385352D02*
X357000Y384291D01*
X601500Y427500D02*
X610000Y419000D01*
X601000Y386000D02*
X610000Y377000D01*
X601500Y344500D02*
X610000Y336000D01*
Y472000D02*
X618000Y464000D01*
X610000Y430000D02*
X618000Y438000D01*
X610000Y388000D02*
X618000Y396000D01*
X357000Y356000D02*
Y358000D01*
X311000Y363000D02*
Y447000D01*
X610000Y388000D02*
X618000Y380000D01*
Y396000D02*
Y422000D01*
X610000Y430000D02*
X618000Y422000D01*
Y438000D02*
Y464000D01*
X577000Y458000D02*
X586000Y467000D01*
X604000D01*
X610000Y461000D01*
X601500Y427500D02*
Y433500D01*
X610000Y442000D01*
Y461000D01*
X601000Y386000D02*
Y391000D01*
X610000Y400000D01*
Y419000D01*
X601500Y344500D02*
Y350500D01*
X610000Y359000D01*
Y377000D01*
X480000Y466000D02*
X486000Y472000D01*
X547000D02*
X559000Y460000D01*
Y444000D02*
Y460000D01*
X480000Y454000D02*
Y466000D01*
X353358Y438803D02*
X353433D01*
X349000Y443161D02*
X353358Y438803D01*
X349000Y443161D02*
Y467201D01*
X379000Y372669D02*
Y404000D01*
X347648Y385352D02*
X355940D01*
X311000Y447000D02*
X319000Y455000D01*
X353433Y438803D02*
X357000Y435236D01*
X610000Y347000D02*
X618000Y355000D01*
Y380000D01*
D21*
X399000Y473000D02*
X412000Y460000D01*
Y421000D02*
Y460000D01*
X368000Y435000D02*
X382000Y421000D01*
X412000D01*
D23*
X501000Y465000D02*
D03*
D24*
Y455000D02*
D03*
Y445000D02*
D03*
Y435000D02*
D03*
Y425000D02*
D03*
Y415000D02*
D03*
Y405000D02*
D03*
X531000Y465000D02*
D03*
Y455000D02*
D03*
Y445000D02*
D03*
Y435000D02*
D03*
Y425000D02*
D03*
Y415000D02*
D03*
Y405000D02*
D03*
D25*
X358000Y394291D02*
D03*
X368000D02*
D03*
X358000Y435000D02*
D03*
Y445000D02*
D03*
Y455000D02*
D03*
Y465000D02*
D03*
X368000Y425000D02*
D03*
Y435000D02*
D03*
Y445000D02*
D03*
Y455000D02*
D03*
Y465000D02*
D03*
X358000Y425000D02*
D03*
Y414764D02*
D03*
X368000D02*
D03*
Y404528D02*
D03*
X358000D02*
D03*
Y384055D02*
D03*
X368000D02*
D03*
Y373819D02*
D03*
X358000D02*
D03*
X426000Y333000D02*
D03*
Y343000D02*
D03*
X460000Y446000D02*
D03*
Y436000D02*
D03*
Y426000D02*
D03*
Y416000D02*
D03*
X450000Y456000D02*
D03*
Y446000D02*
D03*
Y436000D02*
D03*
Y426000D02*
D03*
Y416000D02*
D03*
X460000Y456000D02*
D03*
Y466236D02*
D03*
X450000D02*
D03*
X320000Y435000D02*
D03*
Y445000D02*
D03*
Y455000D02*
D03*
Y465000D02*
D03*
X330000Y425000D02*
D03*
Y435000D02*
D03*
Y445000D02*
D03*
Y455000D02*
D03*
Y465000D02*
D03*
X320000Y425000D02*
D03*
X505000Y364000D02*
D03*
Y374000D02*
D03*
X577000Y438000D02*
D03*
Y428000D02*
D03*
Y418000D02*
D03*
Y408000D02*
D03*
X567000Y448000D02*
D03*
Y438000D02*
D03*
Y428000D02*
D03*
Y418000D02*
D03*
Y408000D02*
D03*
X577000Y448000D02*
D03*
D26*
X429000Y473000D02*
D03*
X399000D02*
D03*
X389000D02*
D03*
X429000Y453000D02*
D03*
X399000D02*
D03*
X389000D02*
D03*
D27*
X430134Y370000D02*
D03*
X430268Y384000D02*
D03*
D28*
X471866Y370000D02*
D03*
X472000Y384000D02*
D03*
D29*
X686000Y316000D02*
D03*
Y488000D02*
D03*
X302000D02*
D03*
Y316000D02*
D03*
D30*
X555980Y483000D02*
D03*
X565980D02*
D03*
X546000D02*
D03*
X536000D02*
D03*
X507000D02*
D03*
X517000D02*
D03*
X497020D02*
D03*
X487020D02*
D03*
X573980Y365000D02*
D03*
X583980D02*
D03*
X564000D02*
D03*
X554000D02*
D03*
X574000Y375000D02*
D03*
X584000D02*
D03*
X564020D02*
D03*
X554020D02*
D03*
X540000Y465000D02*
D03*
Y455000D02*
D03*
Y405000D02*
D03*
Y415000D02*
D03*
X490000Y465000D02*
D03*
Y455000D02*
D03*
X491000Y405000D02*
D03*
Y415000D02*
D03*
X454000Y345000D02*
D03*
Y355000D02*
D03*
D31*
X386000Y378000D02*
D03*
X406000D02*
D03*
X396000D02*
D03*
X386000Y358000D02*
D03*
X406000D02*
D03*
X396000D02*
D03*
X386000Y431000D02*
D03*
X406000D02*
D03*
X396000D02*
D03*
X386000Y398000D02*
D03*
X406000D02*
D03*
X396000D02*
D03*
D32*
X664000Y473000D02*
D03*
Y453000D02*
D03*
Y353000D02*
D03*
Y333000D02*
D03*
Y393000D02*
D03*
Y373000D02*
D03*
Y433000D02*
D03*
Y413000D02*
D03*
D33*
X552000Y343000D02*
D03*
X542000D02*
D03*
X532000D02*
D03*
X522000D02*
D03*
X502000D02*
D03*
X492000D02*
D03*
X482000D02*
D03*
D34*
X649000Y443000D02*
D03*
Y439000D02*
D03*
Y402000D02*
D03*
Y398000D02*
D03*
Y358000D02*
D03*
Y362000D02*
D03*
X421000Y365000D02*
D03*
X394000Y337000D02*
D03*
X343000Y363000D02*
D03*
X329000Y344000D02*
D03*
X416000Y409000D02*
D03*
X412000Y421000D02*
D03*
X577000Y483000D02*
D03*
X379500Y364000D02*
D03*
X371000Y356000D02*
D03*
X610000Y430000D02*
D03*
Y419000D02*
D03*
Y388000D02*
D03*
Y377000D02*
D03*
Y472000D02*
D03*
Y461000D02*
D03*
Y336000D02*
D03*
Y347000D02*
D03*
X357000Y358000D02*
D03*
X480000Y454000D02*
D03*
X394000Y329000D02*
D03*
X343000Y374000D02*
D03*
M02*
