G04 Layer_Color=32896*
%FSLAX25Y25*%
%MOIN*%
G70*
G01*
G75*
%ADD32C,0.00500*%
%ADD34C,0.01000*%
D32*
X457000Y443000D02*
X471000D01*
X457000Y451000D02*
X471000D01*
Y443000D02*
Y451000D01*
X457000Y443000D02*
Y451000D01*
Y433000D02*
X471000D01*
X457000Y441000D02*
X471000D01*
Y433000D02*
Y441000D01*
X457000Y433000D02*
Y441000D01*
Y423000D02*
X471000D01*
X457000Y431000D02*
X471000D01*
Y423000D02*
Y431000D01*
X457000Y423000D02*
Y431000D01*
Y413000D02*
X471000D01*
X457000Y421000D02*
X471000D01*
Y413000D02*
Y421000D01*
X457000Y413000D02*
Y421000D01*
Y403000D02*
X471000D01*
X457000Y411000D02*
X471000D01*
Y403000D02*
Y411000D01*
X457000Y403000D02*
Y411000D01*
Y393000D02*
X471000D01*
X457000Y401000D02*
X471000D01*
Y393000D02*
Y401000D01*
X457000Y393000D02*
Y401000D01*
Y378000D02*
X471000D01*
X457000Y386000D02*
X471000D01*
Y378000D02*
Y386000D01*
X457000Y378000D02*
Y386000D01*
Y368000D02*
X471000D01*
X457000Y376000D02*
X471000D01*
Y368000D02*
Y376000D01*
X457000Y368000D02*
Y376000D01*
Y358000D02*
X471000D01*
X457000Y366000D02*
X471000D01*
Y358000D02*
Y366000D01*
X457000Y358000D02*
Y366000D01*
Y348000D02*
X471000D01*
X457000Y356000D02*
X471000D01*
Y348000D02*
Y356000D01*
X457000Y348000D02*
Y356000D01*
Y338000D02*
X471000D01*
X457000Y346000D02*
X471000D01*
Y338000D02*
Y346000D01*
X457000Y338000D02*
Y346000D01*
Y328000D02*
X471000D01*
X457000Y336000D02*
X471000D01*
Y328000D02*
Y336000D01*
X457000Y328000D02*
Y336000D01*
D34*
X167500Y303000D02*
Y340500D01*
Y303000D02*
X392500D01*
Y340500D01*
X167500D02*
X392500D01*
X163138Y465707D02*
Y467121D01*
X164552Y468534D01*
X165966D01*
X168793Y465707D01*
Y464293D01*
X167379Y462879D01*
X165966D01*
X158897D02*
X160311Y464293D01*
X161724D01*
X164552Y461466D01*
Y460052D01*
X163138Y458638D01*
X161724D01*
X158897Y461466D01*
Y462879D01*
X161018Y456518D02*
X156776Y460759D01*
X158190Y453690D01*
X153949Y457931D01*
X156776Y452276D02*
X155362Y450862D01*
X156069Y451569D01*
X151828Y455811D01*
X153242D01*
X187138Y465586D02*
Y467000D01*
X188552Y468414D01*
X189966D01*
X192793Y465586D01*
Y464173D01*
X191379Y462759D01*
X189966D01*
X182897D02*
X184311Y464173D01*
X185724D01*
X188552Y461345D01*
Y459931D01*
X187138Y458518D01*
X185724D01*
X182897Y461345D01*
Y462759D01*
X185018Y456397D02*
X180776Y460638D01*
X182190Y453569D01*
X177949Y457811D01*
Y449328D02*
X180776Y452156D01*
X175121D01*
X174414Y452862D01*
Y454276D01*
X175828Y455690D01*
X177242D01*
X211138Y465586D02*
Y467000D01*
X212552Y468414D01*
X213966D01*
X216793Y465586D01*
Y464173D01*
X215379Y462759D01*
X213966D01*
X206897D02*
X208311Y464173D01*
X209724D01*
X212552Y461345D01*
Y459931D01*
X211138Y458518D01*
X209724D01*
X206897Y461345D01*
Y462759D01*
X209017Y456397D02*
X204776Y460638D01*
X206190Y453569D01*
X201949Y457811D01*
X201242Y455690D02*
X199828D01*
X198414Y454276D01*
Y452862D01*
X199121Y452156D01*
X200535D01*
X201242Y452862D01*
X200535Y452156D01*
Y450742D01*
X201242Y450035D01*
X202656D01*
X204069Y451449D01*
Y452862D01*
X235138Y465586D02*
Y467000D01*
X236552Y468414D01*
X237966D01*
X240793Y465586D01*
Y464173D01*
X239379Y462759D01*
X237966D01*
X230897D02*
X232311Y464173D01*
X233724D01*
X236552Y461345D01*
Y459931D01*
X235138Y458518D01*
X233724D01*
X230897Y461345D01*
Y462759D01*
X233017Y456397D02*
X228776Y460638D01*
X230190Y453569D01*
X225949Y457811D01*
X226656Y450035D02*
X222414Y454276D01*
X226656D01*
X223828Y451449D01*
X259138Y465586D02*
Y467000D01*
X260552Y468414D01*
X261966D01*
X264793Y465586D01*
Y464173D01*
X263379Y462759D01*
X261966D01*
X254897D02*
X256311Y464173D01*
X257724D01*
X260552Y461345D01*
Y459931D01*
X259138Y458518D01*
X257724D01*
X254897Y461345D01*
Y462759D01*
X257017Y456397D02*
X252776Y460638D01*
X254190Y453569D01*
X249949Y457811D01*
X245707Y453569D02*
X248535Y456397D01*
X250656Y454276D01*
X248535Y453569D01*
X247828Y452862D01*
Y451449D01*
X249242Y450035D01*
X250656D01*
X252069Y451449D01*
Y452862D01*
X283138Y465586D02*
Y467000D01*
X284552Y468414D01*
X285966D01*
X288793Y465586D01*
Y464173D01*
X287379Y462759D01*
X285966D01*
X278897D02*
X280311Y464173D01*
X281724D01*
X284552Y461345D01*
Y459931D01*
X283138Y458518D01*
X281724D01*
X278897Y461345D01*
Y462759D01*
X281017Y456397D02*
X276776Y460638D01*
X278190Y453569D01*
X273949Y457811D01*
X269707Y453569D02*
X271828Y454276D01*
X274656D01*
X276069Y452862D01*
Y451449D01*
X274656Y450035D01*
X273242D01*
X272535Y450742D01*
Y452156D01*
X274656Y454276D01*
X307138Y465586D02*
Y467000D01*
X308552Y468414D01*
X309966D01*
X312793Y465586D01*
Y464173D01*
X311379Y462759D01*
X309966D01*
X302897D02*
X304311Y464173D01*
X305724D01*
X308552Y461345D01*
Y459931D01*
X307138Y458518D01*
X305724D01*
X302897Y461345D01*
Y462759D01*
X305017Y456397D02*
X300776Y460638D01*
X302190Y453569D01*
X297949Y457811D01*
X296535Y456397D02*
X293707Y453569D01*
X294414Y452862D01*
X300069D01*
X300776Y452156D01*
X331138Y465707D02*
Y467121D01*
X332552Y468534D01*
X333966D01*
X336793Y465707D01*
Y464293D01*
X335379Y462879D01*
X333966D01*
X326897D02*
X328311Y464293D01*
X329724D01*
X332552Y461466D01*
Y460052D01*
X331138Y458638D01*
X329724D01*
X326897Y461466D01*
Y462879D01*
X329017Y456518D02*
X324776Y460759D01*
X326190Y453690D01*
X321949Y457931D01*
X321242Y455811D02*
X319828D01*
X318414Y454397D01*
Y452983D01*
X319121Y452276D01*
X320535D01*
Y450862D01*
X321242Y450156D01*
X322656D01*
X324069Y451569D01*
Y452983D01*
X323362Y453690D01*
X321949D01*
Y455104D01*
X321242Y455811D01*
X321949Y453690D02*
X320535Y452276D01*
X355138Y465707D02*
Y467121D01*
X356552Y468534D01*
X357966D01*
X360793Y465707D01*
Y464293D01*
X359379Y462879D01*
X357966D01*
X350897D02*
X352311Y464293D01*
X353724D01*
X356552Y461466D01*
Y460052D01*
X355138Y458638D01*
X353724D01*
X350897Y461466D01*
Y462879D01*
X353017Y456518D02*
X348776Y460759D01*
X350190Y453690D01*
X345949Y457931D01*
X348069Y452983D02*
Y451569D01*
X346656Y450156D01*
X345242D01*
X342414Y452983D01*
Y454397D01*
X343828Y455811D01*
X345242D01*
X345949Y455104D01*
Y453690D01*
X343828Y451569D01*
X379138Y465707D02*
Y467121D01*
X380552Y468534D01*
X381966D01*
X384793Y465707D01*
Y464293D01*
X383379Y462879D01*
X381966D01*
X374897D02*
X376311Y464293D01*
X377724D01*
X380552Y461466D01*
Y460052D01*
X379138Y458638D01*
X377724D01*
X374897Y461466D01*
Y462879D01*
X377017Y456518D02*
X372776Y460759D01*
X374190Y453690D01*
X369949Y457931D01*
X372776Y452276D02*
X371362Y450862D01*
X372069Y451569D01*
X367828Y455811D01*
X369242D01*
X365707Y452276D02*
X364294D01*
X362880Y450862D01*
Y449449D01*
X365707Y446621D01*
X367121D01*
X368535Y448035D01*
Y449449D01*
X365707Y452276D01*
X403138Y465707D02*
Y467121D01*
X404552Y468534D01*
X405966D01*
X408793Y465707D01*
Y464293D01*
X407379Y462879D01*
X405966D01*
X398897D02*
X400311Y464293D01*
X401724D01*
X404552Y461466D01*
Y460052D01*
X403138Y458638D01*
X401724D01*
X398897Y461466D01*
Y462879D01*
X401018Y456518D02*
X396776Y460759D01*
X398190Y453690D01*
X393949Y457931D01*
X396776Y452276D02*
X395362Y450862D01*
X396069Y451569D01*
X391828Y455811D01*
X393242D01*
Y448742D02*
X391828Y447328D01*
X392535Y448035D01*
X388294Y452276D01*
X389707D01*
X427138Y465707D02*
Y467121D01*
X428552Y468534D01*
X429966D01*
X432793Y465707D01*
Y464293D01*
X431379Y462879D01*
X429966D01*
X422897D02*
X424311Y464293D01*
X425724D01*
X428552Y461466D01*
Y460052D01*
X427138Y458638D01*
X425724D01*
X422897Y461466D01*
Y462879D01*
X425017Y456518D02*
X420776Y460759D01*
X422190Y453690D01*
X417949Y457931D01*
X420776Y452276D02*
X419362Y450862D01*
X420069Y451569D01*
X415828Y455811D01*
X417242D01*
X414414Y445914D02*
X417242Y448742D01*
X411587D01*
X410880Y449449D01*
Y450862D01*
X412294Y452276D01*
X413707D01*
X493498Y414499D02*
X494498Y413499D01*
Y411500D01*
X493498Y410500D01*
X489500D01*
X488500Y411500D01*
Y413499D01*
X489500Y414499D01*
X494498Y419497D02*
Y417498D01*
X493498Y416498D01*
X489500D01*
X488500Y417498D01*
Y419497D01*
X489500Y420497D01*
X493498D01*
X494498Y419497D01*
X488500Y422496D02*
X494498D01*
X488500Y426495D01*
X494498D01*
X488500Y428494D02*
Y430493D01*
Y429494D01*
X494498D01*
X493498Y428494D01*
Y433493D02*
X494498Y434492D01*
Y436492D01*
X493498Y437491D01*
X492499D01*
X491499Y436492D01*
Y435492D01*
Y436492D01*
X490499Y437491D01*
X489500D01*
X488500Y436492D01*
Y434492D01*
X489500Y433493D01*
X493498Y348499D02*
X494498Y347499D01*
Y345500D01*
X493498Y344500D01*
X489500D01*
X488500Y345500D01*
Y347499D01*
X489500Y348499D01*
X494498Y353497D02*
Y351498D01*
X493498Y350498D01*
X489500D01*
X488500Y351498D01*
Y353497D01*
X489500Y354497D01*
X493498D01*
X494498Y353497D01*
X488500Y356496D02*
X494498D01*
X488500Y360495D01*
X494498D01*
X488500Y362494D02*
Y364493D01*
Y363494D01*
X494498D01*
X493498Y362494D01*
X488500Y370492D02*
X494498D01*
X491499Y367493D01*
Y371491D01*
X152001Y228998D02*
X153001Y229998D01*
X155000D01*
X156000Y228998D01*
Y225000D01*
X155000Y224000D01*
X153001D01*
X152001Y225000D01*
X147003Y229998D02*
X149002D01*
X150002Y228998D01*
Y225000D01*
X149002Y224000D01*
X147003D01*
X146003Y225000D01*
Y228998D01*
X147003Y229998D01*
X144004Y224000D02*
Y229998D01*
X140005Y224000D01*
Y229998D01*
X138006Y224000D02*
X136006D01*
X137006D01*
Y229998D01*
X138006Y228998D01*
X129009Y229998D02*
X133007D01*
Y226999D01*
X131008Y227999D01*
X130008D01*
X129009Y226999D01*
Y225000D01*
X130008Y224000D01*
X132008D01*
X133007Y225000D01*
X191001Y228998D02*
X192001Y229998D01*
X194000D01*
X195000Y228998D01*
Y225000D01*
X194000Y224000D01*
X192001D01*
X191001Y225000D01*
X186003Y229998D02*
X188002D01*
X189002Y228998D01*
Y225000D01*
X188002Y224000D01*
X186003D01*
X185003Y225000D01*
Y228998D01*
X186003Y229998D01*
X183004Y224000D02*
Y229998D01*
X179005Y224000D01*
Y229998D01*
X177006Y224000D02*
X175006D01*
X176006D01*
Y229998D01*
X177006Y228998D01*
X168009Y229998D02*
X170008Y228998D01*
X172007Y226999D01*
Y225000D01*
X171008Y224000D01*
X169008D01*
X168009Y225000D01*
Y225999D01*
X169008Y226999D01*
X172007D01*
X231001Y228998D02*
X232001Y229998D01*
X234000D01*
X235000Y228998D01*
Y225000D01*
X234000Y224000D01*
X232001D01*
X231001Y225000D01*
X226003Y229998D02*
X228002D01*
X229002Y228998D01*
Y225000D01*
X228002Y224000D01*
X226003D01*
X225003Y225000D01*
Y228998D01*
X226003Y229998D01*
X223004Y224000D02*
Y229998D01*
X219005Y224000D01*
Y229998D01*
X217006Y224000D02*
X215006D01*
X216006D01*
Y229998D01*
X217006Y228998D01*
X212007Y229998D02*
X208009D01*
Y228998D01*
X212007Y225000D01*
Y224000D01*
X271001Y228998D02*
X272001Y229998D01*
X274000D01*
X275000Y228998D01*
Y225000D01*
X274000Y224000D01*
X272001D01*
X271001Y225000D01*
X266003Y229998D02*
X268002D01*
X269002Y228998D01*
Y225000D01*
X268002Y224000D01*
X266003D01*
X265003Y225000D01*
Y228998D01*
X266003Y229998D01*
X263004Y224000D02*
Y229998D01*
X259005Y224000D01*
Y229998D01*
X257006Y224000D02*
X255007D01*
X256006D01*
Y229998D01*
X257006Y228998D01*
X252007D02*
X251008Y229998D01*
X249008D01*
X248009Y228998D01*
Y227999D01*
X249008Y226999D01*
X248009Y225999D01*
Y225000D01*
X249008Y224000D01*
X251008D01*
X252007Y225000D01*
Y225999D01*
X251008Y226999D01*
X252007Y227999D01*
Y228998D01*
X251008Y226999D02*
X249008D01*
X311001Y228998D02*
X312001Y229998D01*
X314000D01*
X315000Y228998D01*
Y225000D01*
X314000Y224000D01*
X312001D01*
X311001Y225000D01*
X306003Y229998D02*
X308002D01*
X309002Y228998D01*
Y225000D01*
X308002Y224000D01*
X306003D01*
X305003Y225000D01*
Y228998D01*
X306003Y229998D01*
X303004Y224000D02*
Y229998D01*
X299005Y224000D01*
Y229998D01*
X297006Y224000D02*
X295006D01*
X296006D01*
Y229998D01*
X297006Y228998D01*
X292007Y225000D02*
X291008Y224000D01*
X289008D01*
X288009Y225000D01*
Y228998D01*
X289008Y229998D01*
X291008D01*
X292007Y228998D01*
Y227999D01*
X291008Y226999D01*
X288009D01*
X352001Y228998D02*
X353001Y229998D01*
X355000D01*
X356000Y228998D01*
Y225000D01*
X355000Y224000D01*
X353001D01*
X352001Y225000D01*
X347003Y229998D02*
X349002D01*
X350002Y228998D01*
Y225000D01*
X349002Y224000D01*
X347003D01*
X346003Y225000D01*
Y228998D01*
X347003Y229998D01*
X344004Y224000D02*
Y229998D01*
X340005Y224000D01*
Y229998D01*
X334007Y224000D02*
X338006D01*
X334007Y227999D01*
Y228998D01*
X335007Y229998D01*
X337006D01*
X338006Y228998D01*
X332008D02*
X331008Y229998D01*
X329009D01*
X328009Y228998D01*
Y225000D01*
X329009Y224000D01*
X331008D01*
X332008Y225000D01*
Y228998D01*
X390001D02*
X391001Y229998D01*
X393000D01*
X394000Y228998D01*
Y225000D01*
X393000Y224000D01*
X391001D01*
X390001Y225000D01*
X385003Y229998D02*
X387002D01*
X388002Y228998D01*
Y225000D01*
X387002Y224000D01*
X385003D01*
X384003Y225000D01*
Y228998D01*
X385003Y229998D01*
X382004Y224000D02*
Y229998D01*
X378005Y224000D01*
Y229998D01*
X372007Y224000D02*
X376006D01*
X372007Y227999D01*
Y228998D01*
X373007Y229998D01*
X375006D01*
X376006Y228998D01*
X370008Y224000D02*
X368008D01*
X369008D01*
Y229998D01*
X370008Y228998D01*
X431001D02*
X432001Y229998D01*
X434000D01*
X435000Y228998D01*
Y225000D01*
X434000Y224000D01*
X432001D01*
X431001Y225000D01*
X426003Y229998D02*
X428002D01*
X429002Y228998D01*
Y225000D01*
X428002Y224000D01*
X426003D01*
X425003Y225000D01*
Y228998D01*
X426003Y229998D01*
X423004Y224000D02*
Y229998D01*
X419005Y224000D01*
Y229998D01*
X413007Y224000D02*
X417006D01*
X413007Y227999D01*
Y228998D01*
X414007Y229998D01*
X416006D01*
X417006Y228998D01*
X407009Y224000D02*
X411008D01*
X407009Y227999D01*
Y228998D01*
X408009Y229998D01*
X410008D01*
X411008Y228998D01*
X124498Y325999D02*
X125498Y324999D01*
Y323000D01*
X124498Y322000D01*
X120500D01*
X119500Y323000D01*
Y324999D01*
X120500Y325999D01*
X125498Y330997D02*
Y328998D01*
X124498Y327998D01*
X120500D01*
X119500Y328998D01*
Y330997D01*
X120500Y331997D01*
X124498D01*
X125498Y330997D01*
X119500Y333996D02*
X125498D01*
X119500Y337995D01*
X125498D01*
X119500Y343993D02*
Y339994D01*
X123499Y343993D01*
X124498D01*
X125498Y342993D01*
Y340994D01*
X124498Y339994D01*
Y345992D02*
X125498Y346992D01*
Y348991D01*
X124498Y349991D01*
X123499D01*
X122499Y348991D01*
Y347992D01*
Y348991D01*
X121499Y349991D01*
X120500D01*
X119500Y348991D01*
Y346992D01*
X120500Y345992D01*
X493498Y291999D02*
X494498Y290999D01*
Y289000D01*
X493498Y288000D01*
X489500D01*
X488500Y289000D01*
Y290999D01*
X489500Y291999D01*
X494498Y296997D02*
Y294998D01*
X493498Y293998D01*
X489500D01*
X488500Y294998D01*
Y296997D01*
X489500Y297997D01*
X493498D01*
X494498Y296997D01*
X488500Y299996D02*
X494498D01*
X488500Y303995D01*
X494498D01*
X488500Y309993D02*
Y305994D01*
X492499Y309993D01*
X493498D01*
X494498Y308993D01*
Y306994D01*
X493498Y305994D01*
X488500Y314991D02*
X494498D01*
X491499Y311992D01*
Y315991D01*
X492998Y246499D02*
X493998Y245499D01*
Y243500D01*
X492998Y242500D01*
X489000D01*
X488000Y243500D01*
Y245499D01*
X489000Y246499D01*
X493998Y251497D02*
Y249498D01*
X492998Y248498D01*
X489000D01*
X488000Y249498D01*
Y251497D01*
X489000Y252497D01*
X492998D01*
X493998Y251497D01*
X488000Y254496D02*
X493998D01*
X488000Y258495D01*
X493998D01*
X488000Y264493D02*
Y260494D01*
X491999Y264493D01*
X492998D01*
X493998Y263493D01*
Y261494D01*
X492998Y260494D01*
X493998Y270491D02*
Y266492D01*
X490999D01*
X491999Y268492D01*
Y269491D01*
X490999Y270491D01*
X489000D01*
X488000Y269491D01*
Y267492D01*
X489000Y266492D01*
X139138Y466707D02*
Y468121D01*
X140552Y469534D01*
X141966D01*
X144793Y466707D01*
Y465293D01*
X143379Y463879D01*
X141966D01*
X134897D02*
X136311Y465293D01*
X137724D01*
X140552Y462466D01*
Y461052D01*
X139138Y459638D01*
X137724D01*
X134897Y462466D01*
Y463879D01*
X137018Y457517D02*
X132776Y461759D01*
X134190Y454690D01*
X129949Y458931D01*
Y450449D02*
X132776Y453276D01*
X127121D01*
X126414Y453983D01*
Y455397D01*
X127828Y456811D01*
X129242D01*
X121466Y450449D02*
X123587Y451156D01*
X126414D01*
X127828Y449742D01*
Y448328D01*
X126414Y446914D01*
X125001D01*
X124294Y447621D01*
Y449035D01*
X126414Y451156D01*
X455000Y444000D02*
Y449998D01*
X452001D01*
X451001Y448998D01*
Y446999D01*
X452001Y445999D01*
X455000D01*
X453001D02*
X451001Y444000D01*
X449002D02*
X447003D01*
X448002D01*
Y449998D01*
X449002Y448998D01*
X444004D02*
X443004Y449998D01*
X441005D01*
X440005Y448998D01*
Y447999D01*
X441005Y446999D01*
X442004D01*
X441005D01*
X440005Y445999D01*
Y445000D01*
X441005Y444000D01*
X443004D01*
X444004Y445000D01*
X455000Y433364D02*
Y439362D01*
X452001D01*
X451001Y438362D01*
Y436363D01*
X452001Y435363D01*
X455000D01*
X453001D02*
X451001Y433364D01*
X449002D02*
X447003D01*
X448002D01*
Y439362D01*
X449002Y438362D01*
X441005Y433364D02*
Y439362D01*
X444004Y436363D01*
X440005D01*
X455000Y423727D02*
Y429725D01*
X452001D01*
X451001Y428726D01*
Y426726D01*
X452001Y425727D01*
X455000D01*
X453001D02*
X451001Y423727D01*
X449002D02*
X447003D01*
X448002D01*
Y429725D01*
X449002Y428726D01*
X440005Y429725D02*
X444004D01*
Y426726D01*
X442004Y427726D01*
X441005D01*
X440005Y426726D01*
Y424727D01*
X441005Y423727D01*
X443004D01*
X444004Y424727D01*
X455000Y414091D02*
Y420089D01*
X452001D01*
X451001Y419089D01*
Y417090D01*
X452001Y416090D01*
X455000D01*
X453001D02*
X451001Y414091D01*
X449002D02*
X447003D01*
X448002D01*
Y420089D01*
X449002Y419089D01*
X440005Y420089D02*
X442004Y419089D01*
X444004Y417090D01*
Y415091D01*
X443004Y414091D01*
X441005D01*
X440005Y415091D01*
Y416090D01*
X441005Y417090D01*
X444004D01*
X455000Y403455D02*
Y409453D01*
X452001D01*
X451001Y408453D01*
Y406454D01*
X452001Y405454D01*
X455000D01*
X453001D02*
X451001Y403455D01*
X449002D02*
X447003D01*
X448002D01*
Y409453D01*
X449002Y408453D01*
X444004Y409453D02*
X440005D01*
Y408453D01*
X444004Y404454D01*
Y403455D01*
X455000Y393818D02*
Y399816D01*
X452001D01*
X451001Y398817D01*
Y396817D01*
X452001Y395818D01*
X455000D01*
X453001D02*
X451001Y393818D01*
X449002D02*
X447003D01*
X448002D01*
Y399816D01*
X449002Y398817D01*
X444004D02*
X443004Y399816D01*
X441005D01*
X440005Y398817D01*
Y397817D01*
X441005Y396817D01*
X440005Y395818D01*
Y394818D01*
X441005Y393818D01*
X443004D01*
X444004Y394818D01*
Y395818D01*
X443004Y396817D01*
X444004Y397817D01*
Y398817D01*
X443004Y396817D02*
X441005D01*
X455000Y379182D02*
Y385180D01*
X452001D01*
X451001Y384180D01*
Y382181D01*
X452001Y381181D01*
X455000D01*
X453001D02*
X451001Y379182D01*
X449002D02*
X447003D01*
X448002D01*
Y385180D01*
X449002Y384180D01*
X444004Y380182D02*
X443004Y379182D01*
X441005D01*
X440005Y380182D01*
Y384180D01*
X441005Y385180D01*
X443004D01*
X444004Y384180D01*
Y383181D01*
X443004Y382181D01*
X440005D01*
X455000Y369546D02*
Y375543D01*
X452001D01*
X451001Y374544D01*
Y372545D01*
X452001Y371545D01*
X455000D01*
X453001D02*
X451001Y369546D01*
X445003D02*
X449002D01*
X445003Y373544D01*
Y374544D01*
X446003Y375543D01*
X448002D01*
X449002Y374544D01*
X443004D02*
X442004Y375543D01*
X440005D01*
X439005Y374544D01*
Y370545D01*
X440005Y369546D01*
X442004D01*
X443004Y370545D01*
Y374544D01*
X455000Y358909D02*
Y364907D01*
X452001D01*
X451001Y363908D01*
Y361908D01*
X452001Y360909D01*
X455000D01*
X453001D02*
X451001Y358909D01*
X445003D02*
X449002D01*
X445003Y362908D01*
Y363908D01*
X446003Y364907D01*
X448002D01*
X449002Y363908D01*
X443004Y358909D02*
X441005D01*
X442004D01*
Y364907D01*
X443004Y363908D01*
X455000Y349000D02*
Y354998D01*
X452001D01*
X451001Y353998D01*
Y351999D01*
X452001Y350999D01*
X455000D01*
X453001D02*
X451001Y349000D01*
X445003D02*
X449002D01*
X445003Y352999D01*
Y353998D01*
X446003Y354998D01*
X448002D01*
X449002Y353998D01*
X439005Y349000D02*
X443004D01*
X439005Y352999D01*
Y353998D01*
X440005Y354998D01*
X442004D01*
X443004Y353998D01*
X455000Y338636D02*
Y344634D01*
X452001D01*
X451001Y343635D01*
Y341635D01*
X452001Y340636D01*
X455000D01*
X453001D02*
X451001Y338636D01*
X445003D02*
X449002D01*
X445003Y342635D01*
Y343635D01*
X446003Y344634D01*
X448002D01*
X449002Y343635D01*
X443004D02*
X442004Y344634D01*
X440005D01*
X439005Y343635D01*
Y342635D01*
X440005Y341635D01*
X441005D01*
X440005D01*
X439005Y340636D01*
Y339636D01*
X440005Y338636D01*
X442004D01*
X443004Y339636D01*
X455000Y329000D02*
Y334998D01*
X452001D01*
X451001Y333998D01*
Y331999D01*
X452001Y330999D01*
X455000D01*
X453001D02*
X451001Y329000D01*
X445003D02*
X449002D01*
X445003Y332999D01*
Y333998D01*
X446003Y334998D01*
X448002D01*
X449002Y333998D01*
X440005Y329000D02*
Y334998D01*
X443004Y331999D01*
X439005D01*
X387500Y330500D02*
Y336498D01*
X384501D01*
X383501Y335498D01*
Y333499D01*
X384501Y332499D01*
X387500D01*
X381502Y336498D02*
Y330500D01*
Y333499D01*
X380502Y334499D01*
X378503D01*
X377503Y333499D01*
Y330500D01*
X374504D02*
X372505D01*
X371505Y331500D01*
Y333499D01*
X372505Y334499D01*
X374504D01*
X375504Y333499D01*
Y331500D01*
X374504Y330500D01*
X368506Y335498D02*
Y334499D01*
X369506D01*
X367507D01*
X368506D01*
Y331500D01*
X367507Y330500D01*
X363508D02*
X361508D01*
X360509Y331500D01*
Y333499D01*
X361508Y334499D01*
X363508D01*
X364507Y333499D01*
Y331500D01*
X363508Y330500D01*
X354511Y336498D02*
Y330500D01*
X357510D01*
X358509Y331500D01*
Y333499D01*
X357510Y334499D01*
X354511D01*
X352511Y330500D02*
X350512D01*
X351512D01*
Y334499D01*
X352511D01*
X346513Y330500D02*
X344514D01*
X343514Y331500D01*
Y333499D01*
X344514Y334499D01*
X346513D01*
X347513Y333499D01*
Y331500D01*
X346513Y330500D01*
X337516Y336498D02*
Y330500D01*
X340515D01*
X341515Y331500D01*
Y333499D01*
X340515Y334499D01*
X337516D01*
X332518Y330500D02*
X334517D01*
X335517Y331500D01*
Y333499D01*
X334517Y334499D01*
X332518D01*
X331518Y333499D01*
Y332499D01*
X335517D01*
X322521Y334499D02*
X320522D01*
X319522Y333499D01*
Y330500D01*
X322521D01*
X323521Y331500D01*
X322521Y332499D01*
X319522D01*
X317523Y330500D02*
Y334499D01*
X314524D01*
X313524Y333499D01*
Y330500D01*
X307526Y336498D02*
Y330500D01*
X310525D01*
X311525Y331500D01*
Y333499D01*
X310525Y334499D01*
X307526D01*
X299529Y336498D02*
X295530D01*
X297529D01*
Y330500D01*
X293530Y336498D02*
Y330500D01*
Y333499D01*
X292531Y334499D01*
X290531D01*
X289532Y333499D01*
Y330500D01*
X284533D02*
X286533D01*
X287532Y331500D01*
Y333499D01*
X286533Y334499D01*
X284533D01*
X283534Y333499D01*
Y332499D01*
X287532D01*
X281534Y334499D02*
Y330500D01*
Y332499D01*
X280535Y333499D01*
X279535Y334499D01*
X278535D01*
X275536Y330500D02*
Y334499D01*
X274536D01*
X273537Y333499D01*
Y330500D01*
Y333499D01*
X272537Y334499D01*
X271537Y333499D01*
Y330500D01*
X268538D02*
X266539D01*
X265539Y331500D01*
Y333499D01*
X266539Y334499D01*
X268538D01*
X269538Y333499D01*
Y331500D01*
X268538Y330500D01*
X259541Y334499D02*
X262540D01*
X263540Y333499D01*
Y331500D01*
X262540Y330500D01*
X259541D01*
X256542D02*
X254543D01*
X253543Y331500D01*
Y333499D01*
X254543Y334499D01*
X256542D01*
X257542Y333499D01*
Y331500D01*
X256542Y330500D01*
X251544Y334499D02*
Y331500D01*
X250544Y330500D01*
X247545D01*
Y334499D01*
X245546Y328501D02*
Y334499D01*
X242547D01*
X241547Y333499D01*
Y331500D01*
X242547Y330500D01*
X245546D01*
X239548D02*
X237548D01*
X238548D01*
Y336498D01*
X239548D01*
X231551Y330500D02*
X233550D01*
X234549Y331500D01*
Y333499D01*
X233550Y334499D01*
X231551D01*
X230551Y333499D01*
Y332499D01*
X234549D01*
X222553Y330500D02*
Y334499D01*
X220554Y336498D01*
X218555Y334499D01*
Y330500D01*
Y333499D01*
X222553D01*
X216555Y330500D02*
Y334499D01*
X215556D01*
X214556Y333499D01*
Y330500D01*
Y333499D01*
X213556Y334499D01*
X212557Y333499D01*
Y330500D01*
X210557Y328501D02*
Y334499D01*
X207558D01*
X206558Y333499D01*
Y331500D01*
X207558Y330500D01*
X210557D01*
X204559D02*
X202560D01*
X203559D01*
Y336498D01*
X204559D01*
X199561Y330500D02*
X197561D01*
X198561D01*
Y334499D01*
X199561D01*
X193563Y330500D02*
Y335498D01*
Y333499D01*
X194562D01*
X192563D01*
X193563D01*
Y335498D01*
X192563Y336498D01*
X189564Y330500D02*
X187565D01*
X188564D01*
Y334499D01*
X189564D01*
X181567Y330500D02*
X183566D01*
X184566Y331500D01*
Y333499D01*
X183566Y334499D01*
X181567D01*
X180567Y333499D01*
Y332499D01*
X184566D01*
X178568Y334499D02*
Y330500D01*
Y332499D01*
X177568Y333499D01*
X176568Y334499D01*
X175569D01*
X383501Y320500D02*
Y324498D01*
X384501Y325498D01*
X386500D01*
X387500Y324498D01*
Y320500D01*
X386500Y319500D01*
X384501D01*
X385501Y321499D02*
X383501Y319500D01*
X384501D02*
X383501Y320500D01*
X381502Y323499D02*
Y320500D01*
X380502Y319500D01*
X377503D01*
Y323499D01*
X374504D02*
X372505D01*
X371505Y322499D01*
Y319500D01*
X374504D01*
X375504Y320500D01*
X374504Y321499D01*
X371505D01*
X369506Y319500D02*
Y323499D01*
X366507D01*
X365507Y322499D01*
Y319500D01*
X362508Y324498D02*
Y323499D01*
X363508D01*
X361508D01*
X362508D01*
Y320500D01*
X361508Y319500D01*
X358509Y323499D02*
Y320500D01*
X357510Y319500D01*
X354511D01*
Y323499D01*
X352511Y319500D02*
Y323499D01*
X351512D01*
X350512Y322499D01*
Y319500D01*
Y322499D01*
X349512Y323499D01*
X348513Y322499D01*
Y319500D01*
X336516Y324498D02*
X337516Y325498D01*
X339515D01*
X340515Y324498D01*
Y323499D01*
X339515Y322499D01*
X337516D01*
X336516Y321499D01*
Y320500D01*
X337516Y319500D01*
X339515D01*
X340515Y320500D01*
X334517Y323499D02*
Y320500D01*
X333518Y319500D01*
X330518D01*
Y318500D01*
X331518Y317501D01*
X332518D01*
X330518Y319500D02*
Y323499D01*
X328519Y319500D02*
X325520D01*
X324520Y320500D01*
X325520Y321499D01*
X327519D01*
X328519Y322499D01*
X327519Y323499D01*
X324520D01*
X321521Y324498D02*
Y323499D01*
X322521D01*
X320522D01*
X321521D01*
Y320500D01*
X320522Y319500D01*
X314524D02*
X316523D01*
X317523Y320500D01*
Y322499D01*
X316523Y323499D01*
X314524D01*
X313524Y322499D01*
Y321499D01*
X317523D01*
X311525Y319500D02*
Y323499D01*
X310525D01*
X309525Y322499D01*
Y319500D01*
Y322499D01*
X308526Y323499D01*
X307526Y322499D01*
Y319500D01*
X305526D02*
X302527D01*
X301528Y320500D01*
X302527Y321499D01*
X304527D01*
X305526Y322499D01*
X304527Y323499D01*
X301528D01*
X289532Y319500D02*
X290531Y320500D01*
X291531Y319500D01*
X292531D01*
X293530Y320500D01*
Y321499D01*
X292531Y322499D01*
X293530Y323499D01*
Y324498D01*
X292531Y325498D01*
X291531D01*
X290531Y324498D01*
Y323499D01*
X291531Y322499D01*
X290531Y321499D01*
Y320500D01*
X289532Y322499D02*
X290531Y321499D01*
X292531Y322499D02*
X291531D01*
X281534Y325498D02*
Y319500D01*
X278535D01*
X277536Y320500D01*
Y324498D01*
X278535Y325498D01*
X281534D01*
X272537Y319500D02*
X274536D01*
X275536Y320500D01*
Y322499D01*
X274536Y323499D01*
X272537D01*
X271537Y322499D01*
Y321499D01*
X275536D01*
X269538Y323499D02*
X267539Y319500D01*
X265539Y323499D01*
X263540Y319500D02*
X261541D01*
X262540D01*
Y323499D01*
X263540D01*
X254543D02*
X257542D01*
X258542Y322499D01*
Y320500D01*
X257542Y319500D01*
X254543D01*
X249545D02*
X251544D01*
X252544Y320500D01*
Y322499D01*
X251544Y323499D01*
X249545D01*
X248545Y322499D01*
Y321499D01*
X252544D01*
X246546Y319500D02*
X243547D01*
X242547Y320500D01*
X243547Y321499D01*
X245546D01*
X246546Y322499D01*
X245546Y323499D01*
X242547D01*
X230551Y324498D02*
X231551Y325498D01*
X233550D01*
X234549Y324498D01*
Y320500D01*
X233550Y319500D01*
X231551D01*
X230551Y320500D01*
Y322499D01*
X232550D01*
X228551Y323499D02*
Y319500D01*
Y321499D01*
X227552Y322499D01*
X226552Y323499D01*
X225552D01*
X221554Y319500D02*
X219554D01*
X218555Y320500D01*
Y322499D01*
X219554Y323499D01*
X221554D01*
X222553Y322499D01*
Y320500D01*
X221554Y319500D01*
X216555Y323499D02*
Y320500D01*
X215556Y319500D01*
X212557D01*
Y323499D01*
X210557Y317501D02*
Y323499D01*
X207558D01*
X206558Y322499D01*
Y320500D01*
X207558Y319500D01*
X210557D01*
X387000Y308500D02*
Y314498D01*
X384001D01*
X383001Y313498D01*
Y311499D01*
X384001Y310499D01*
X387000D01*
X385001D02*
X383001Y308500D01*
X378003D02*
X380002D01*
X381002Y309500D01*
Y311499D01*
X380002Y312499D01*
X378003D01*
X377003Y311499D01*
Y310499D01*
X381002D01*
X375004Y312499D02*
X373005Y308500D01*
X371005Y312499D01*
X369006Y308500D02*
Y309500D01*
X368006D01*
Y308500D01*
X369006D01*
X358009D02*
Y312499D01*
X356010Y314498D01*
X354011Y312499D01*
Y308500D01*
Y311499D01*
X358009D01*
X351012Y307500D02*
X350012Y308500D01*
Y309500D01*
X351012D01*
Y308500D01*
X350012D01*
X351012Y307500D01*
X352011Y306501D01*
X340015Y308500D02*
Y314498D01*
X338016Y312499D01*
X336017Y314498D01*
Y308500D01*
X333017Y312499D02*
X331018D01*
X330018Y311499D01*
Y308500D01*
X333017D01*
X334017Y309500D01*
X333017Y310499D01*
X330018D01*
X328019Y312499D02*
Y308500D01*
Y310499D01*
X327019Y311499D01*
X326020Y312499D01*
X325020D01*
X318022D02*
X321021D01*
X322021Y311499D01*
Y309500D01*
X321021Y308500D01*
X318022D01*
X316023Y314498D02*
Y308500D01*
Y311499D01*
X315023Y312499D01*
X313024D01*
X312024Y311499D01*
Y308500D01*
X300028D02*
X304027D01*
X300028Y312499D01*
Y313498D01*
X301028Y314498D01*
X303027D01*
X304027Y313498D01*
X298029D02*
X297029Y314498D01*
X295030D01*
X294030Y313498D01*
Y309500D01*
X295030Y308500D01*
X297029D01*
X298029Y309500D01*
Y313498D01*
X292031Y308500D02*
X290031D01*
X291031D01*
Y314498D01*
X292031Y313498D01*
X287032D02*
X286033Y314498D01*
X284033D01*
X283034Y313498D01*
Y312499D01*
X284033Y311499D01*
X283034Y310499D01*
Y309500D01*
X284033Y308500D01*
X286033D01*
X287032Y309500D01*
Y310499D01*
X286033Y311499D01*
X287032Y312499D01*
Y313498D01*
X286033Y311499D02*
X284033D01*
M02*
