G04 Layer_Physical_Order=2*
G04 Layer_Color=16711680*
%FSLAX25Y25*%
%MOIN*%
G70*
G01*
G75*
%ADD18R,0.03150X0.05512*%
%ADD20C,0.02000*%
%ADD21C,0.03000*%
%ADD26C,0.06500*%
%ADD27C,0.08000*%
%ADD28C,0.11811*%
%ADD29C,0.06000*%
%ADD30C,0.05000*%
G36*
X477000Y458000D02*
X481471Y458000D01*
X481521Y457973D01*
X482860Y457567D01*
X484252Y457430D01*
X485644Y457567D01*
X486983Y457973D01*
X487033Y458000D01*
X492500Y458000D01*
Y233515D01*
X484252D01*
X484252Y233515D01*
X484252Y233515D01*
X477000D01*
X477000Y220000D01*
X125500D01*
Y233500D01*
X125485Y233515D01*
X110000D01*
Y458189D01*
X114976D01*
X115379Y457973D01*
X116718Y457567D01*
X118110Y457430D01*
X119502Y457567D01*
X120841Y457973D01*
X121245Y458189D01*
X125500D01*
X125484Y472500D01*
X477000D01*
X477000Y458000D01*
D02*
G37*
%LPC*%
G36*
X372000Y257939D02*
X370646Y257806D01*
X369345Y257411D01*
X368145Y256769D01*
X367093Y255907D01*
X366231Y254855D01*
X365589Y253655D01*
X365194Y252354D01*
X365061Y251000D01*
X365194Y249646D01*
X365589Y248345D01*
X366231Y247145D01*
X367093Y246093D01*
X368145Y245231D01*
X369345Y244589D01*
X370646Y244194D01*
X372000Y244061D01*
X373354Y244194D01*
X374655Y244589D01*
X375855Y245231D01*
X376907Y246093D01*
X377769Y247145D01*
X378411Y248345D01*
X378806Y249646D01*
X378939Y251000D01*
X378806Y252354D01*
X378411Y253655D01*
X377769Y254855D01*
X376907Y255907D01*
X375855Y256769D01*
X374655Y257411D01*
X373354Y257806D01*
X372000Y257939D01*
D02*
G37*
G36*
X392000D02*
X390646Y257806D01*
X389345Y257411D01*
X388145Y256769D01*
X387093Y255907D01*
X386230Y254855D01*
X385589Y253655D01*
X385194Y252354D01*
X385061Y251000D01*
X385194Y249646D01*
X385589Y248345D01*
X386230Y247145D01*
X387093Y246093D01*
X388145Y245231D01*
X389345Y244589D01*
X390646Y244194D01*
X392000Y244061D01*
X393354Y244194D01*
X394655Y244589D01*
X395855Y245231D01*
X396907Y246093D01*
X397769Y247145D01*
X398411Y248345D01*
X398806Y249646D01*
X398939Y251000D01*
X398806Y252354D01*
X398411Y253655D01*
X397769Y254855D01*
X396907Y255907D01*
X395855Y256769D01*
X394655Y257411D01*
X393354Y257806D01*
X392000Y257939D01*
D02*
G37*
G36*
X352000D02*
X350646Y257806D01*
X349345Y257411D01*
X348145Y256769D01*
X347093Y255907D01*
X346231Y254855D01*
X345589Y253655D01*
X345194Y252354D01*
X345061Y251000D01*
X345194Y249646D01*
X345589Y248345D01*
X346231Y247145D01*
X347093Y246093D01*
X348145Y245231D01*
X349345Y244589D01*
X350646Y244194D01*
X352000Y244061D01*
X353354Y244194D01*
X354655Y244589D01*
X355855Y245231D01*
X356907Y246093D01*
X357769Y247145D01*
X358411Y248345D01*
X358806Y249646D01*
X358939Y251000D01*
X358806Y252354D01*
X358411Y253655D01*
X357769Y254855D01*
X356907Y255907D01*
X355855Y256769D01*
X354655Y257411D01*
X353354Y257806D01*
X352000Y257939D01*
D02*
G37*
G36*
X312000D02*
X310646Y257806D01*
X309345Y257411D01*
X308145Y256769D01*
X307093Y255907D01*
X306230Y254855D01*
X305589Y253655D01*
X305194Y252354D01*
X305061Y251000D01*
X305194Y249646D01*
X305589Y248345D01*
X306230Y247145D01*
X307093Y246093D01*
X308145Y245231D01*
X309345Y244589D01*
X310646Y244194D01*
X312000Y244061D01*
X313354Y244194D01*
X314655Y244589D01*
X315855Y245231D01*
X316907Y246093D01*
X317770Y247145D01*
X318411Y248345D01*
X318806Y249646D01*
X318939Y251000D01*
X318806Y252354D01*
X318411Y253655D01*
X317770Y254855D01*
X316907Y255907D01*
X315855Y256769D01*
X314655Y257411D01*
X313354Y257806D01*
X312000Y257939D01*
D02*
G37*
G36*
X332000D02*
X330646Y257806D01*
X329345Y257411D01*
X328145Y256769D01*
X327093Y255907D01*
X326231Y254855D01*
X325589Y253655D01*
X325194Y252354D01*
X325061Y251000D01*
X325194Y249646D01*
X325589Y248345D01*
X326231Y247145D01*
X327093Y246093D01*
X328145Y245231D01*
X329345Y244589D01*
X330646Y244194D01*
X332000Y244061D01*
X333354Y244194D01*
X334655Y244589D01*
X335855Y245231D01*
X336907Y246093D01*
X337770Y247145D01*
X338411Y248345D01*
X338806Y249646D01*
X338939Y251000D01*
X338806Y252354D01*
X338411Y253655D01*
X337770Y254855D01*
X336907Y255907D01*
X335855Y256769D01*
X334655Y257411D01*
X333354Y257806D01*
X332000Y257939D01*
D02*
G37*
G36*
X137000Y346043D02*
X135695Y345871D01*
X134478Y345368D01*
X133434Y344566D01*
X132633Y343522D01*
X132129Y342305D01*
X131957Y341000D01*
X132129Y339695D01*
X132633Y338478D01*
X133434Y337434D01*
X134478Y336632D01*
X135695Y336129D01*
X136672Y336000D01*
X135695Y335871D01*
X134478Y335367D01*
X133434Y334566D01*
X132633Y333522D01*
X132129Y332305D01*
X131957Y331000D01*
X132129Y329695D01*
X132633Y328478D01*
X133434Y327434D01*
X134478Y326632D01*
X135695Y326129D01*
X137000Y325957D01*
X138305Y326129D01*
X139522Y326632D01*
X140566Y327434D01*
X141367Y328478D01*
X141871Y329695D01*
X142043Y331000D01*
X141871Y332305D01*
X141367Y333522D01*
X140566Y334566D01*
X139522Y335367D01*
X138305Y335871D01*
X137328Y336000D01*
X138305Y336129D01*
X139522Y336632D01*
X140566Y337434D01*
X141367Y338478D01*
X141871Y339695D01*
X142043Y341000D01*
X141871Y342305D01*
X141367Y343522D01*
X140566Y344566D01*
X139522Y345368D01*
X138305Y345871D01*
X137000Y346043D01*
D02*
G37*
G36*
X403949Y357287D02*
X402839Y357141D01*
X401805Y356712D01*
X400918Y356031D01*
X400237Y355143D01*
X399808Y354110D01*
X399662Y353000D01*
X399808Y351890D01*
X400237Y350857D01*
X400918Y349969D01*
X401805Y349288D01*
X402839Y348859D01*
X403949Y348713D01*
X405058Y348859D01*
X405162Y348903D01*
X413507Y340558D01*
X414169Y340116D01*
X414949Y339961D01*
X457425D01*
Y338244D01*
X462575D01*
Y345756D01*
X457425D01*
Y344039D01*
X415794D01*
X408046Y351786D01*
X408089Y351890D01*
X408236Y353000D01*
X408089Y354110D01*
X407661Y355143D01*
X406980Y356031D01*
X406092Y356712D01*
X405058Y357141D01*
X403949Y357287D01*
D02*
G37*
G36*
X482000Y322043D02*
X480695Y321871D01*
X479478Y321368D01*
X478434Y320566D01*
X477633Y319522D01*
X477129Y318305D01*
X476957Y317000D01*
X477129Y315695D01*
X477633Y314478D01*
X478434Y313434D01*
X479478Y312632D01*
X480695Y312129D01*
X481672Y312000D01*
X480695Y311871D01*
X479478Y311368D01*
X478434Y310566D01*
X477633Y309522D01*
X477129Y308305D01*
X476957Y307000D01*
X477129Y305695D01*
X477633Y304478D01*
X478434Y303434D01*
X479478Y302632D01*
X480695Y302129D01*
X481672Y302000D01*
X480695Y301871D01*
X479478Y301367D01*
X478434Y300566D01*
X477633Y299522D01*
X477129Y298305D01*
X476957Y297000D01*
X477129Y295695D01*
X477633Y294478D01*
X478434Y293434D01*
X479478Y292633D01*
X480695Y292129D01*
X481672Y292000D01*
X480695Y291871D01*
X479478Y291368D01*
X478434Y290566D01*
X477633Y289522D01*
X477129Y288305D01*
X476957Y287000D01*
X477129Y285695D01*
X477633Y284478D01*
X478434Y283434D01*
X479478Y282632D01*
X480695Y282129D01*
X482000Y281957D01*
X483305Y282129D01*
X484522Y282632D01*
X485566Y283434D01*
X486368Y284478D01*
X486871Y285695D01*
X487043Y287000D01*
X486871Y288305D01*
X486368Y289522D01*
X485566Y290566D01*
X484522Y291368D01*
X483305Y291871D01*
X482328Y292000D01*
X483305Y292129D01*
X484522Y292633D01*
X485566Y293434D01*
X486368Y294478D01*
X486871Y295695D01*
X487043Y297000D01*
X486871Y298305D01*
X486368Y299522D01*
X485566Y300566D01*
X484522Y301367D01*
X483305Y301871D01*
X482328Y302000D01*
X483305Y302129D01*
X484522Y302632D01*
X485566Y303434D01*
X486368Y304478D01*
X486871Y305695D01*
X487043Y307000D01*
X486871Y308305D01*
X486368Y309522D01*
X485566Y310566D01*
X484522Y311368D01*
X483305Y311871D01*
X482328Y312000D01*
X483305Y312129D01*
X484522Y312632D01*
X485566Y313434D01*
X486368Y314478D01*
X486871Y315695D01*
X487043Y317000D01*
X486871Y318305D01*
X486368Y319522D01*
X485566Y320566D01*
X484522Y321368D01*
X483305Y321871D01*
X482000Y322043D01*
D02*
G37*
G36*
X412000Y257939D02*
X410646Y257806D01*
X409345Y257411D01*
X408145Y256769D01*
X407093Y255907D01*
X406230Y254855D01*
X405589Y253655D01*
X405194Y252354D01*
X405061Y251000D01*
X405194Y249646D01*
X405589Y248345D01*
X406230Y247145D01*
X407093Y246093D01*
X408145Y245231D01*
X409345Y244589D01*
X410646Y244194D01*
X412000Y244061D01*
X413354Y244194D01*
X414655Y244589D01*
X415855Y245231D01*
X416907Y246093D01*
X417769Y247145D01*
X418411Y248345D01*
X418806Y249646D01*
X418939Y251000D01*
X418806Y252354D01*
X418411Y253655D01*
X417769Y254855D01*
X416907Y255907D01*
X415855Y256769D01*
X414655Y257411D01*
X413354Y257806D01*
X412000Y257939D01*
D02*
G37*
G36*
X432000D02*
X430646Y257806D01*
X429345Y257411D01*
X428145Y256769D01*
X427093Y255907D01*
X426230Y254855D01*
X425589Y253655D01*
X425194Y252354D01*
X425061Y251000D01*
X425194Y249646D01*
X425589Y248345D01*
X426230Y247145D01*
X427093Y246093D01*
X428145Y245231D01*
X429345Y244589D01*
X430646Y244194D01*
X432000Y244061D01*
X433354Y244194D01*
X434655Y244589D01*
X435855Y245231D01*
X436907Y246093D01*
X437770Y247145D01*
X438411Y248345D01*
X438806Y249646D01*
X438939Y251000D01*
X438806Y252354D01*
X438411Y253655D01*
X437770Y254855D01*
X436907Y255907D01*
X435855Y256769D01*
X434655Y257411D01*
X433354Y257806D01*
X432000Y257939D01*
D02*
G37*
G36*
X172000D02*
X170646Y257806D01*
X169345Y257411D01*
X168145Y256769D01*
X167093Y255907D01*
X166230Y254855D01*
X165589Y253655D01*
X165194Y252354D01*
X165061Y251000D01*
X165194Y249646D01*
X165589Y248345D01*
X166230Y247145D01*
X167093Y246093D01*
X168145Y245231D01*
X169345Y244589D01*
X170646Y244194D01*
X172000Y244061D01*
X173354Y244194D01*
X174655Y244589D01*
X175855Y245231D01*
X176907Y246093D01*
X177769Y247145D01*
X178411Y248345D01*
X178806Y249646D01*
X178939Y251000D01*
X178806Y252354D01*
X178411Y253655D01*
X177769Y254855D01*
X176907Y255907D01*
X175855Y256769D01*
X174655Y257411D01*
X173354Y257806D01*
X172000Y257939D01*
D02*
G37*
G36*
X192000D02*
X190646Y257806D01*
X189345Y257411D01*
X188145Y256769D01*
X187093Y255907D01*
X186231Y254855D01*
X185589Y253655D01*
X185194Y252354D01*
X185061Y251000D01*
X185194Y249646D01*
X185589Y248345D01*
X186231Y247145D01*
X187093Y246093D01*
X188145Y245231D01*
X189345Y244589D01*
X190646Y244194D01*
X192000Y244061D01*
X193354Y244194D01*
X194655Y244589D01*
X195855Y245231D01*
X196907Y246093D01*
X197769Y247145D01*
X198411Y248345D01*
X198806Y249646D01*
X198939Y251000D01*
X198806Y252354D01*
X198411Y253655D01*
X197769Y254855D01*
X196907Y255907D01*
X195855Y256769D01*
X194655Y257411D01*
X193354Y257806D01*
X192000Y257939D01*
D02*
G37*
G36*
X152000D02*
X150646Y257806D01*
X149345Y257411D01*
X148145Y256769D01*
X147093Y255907D01*
X146230Y254855D01*
X145589Y253655D01*
X145194Y252354D01*
X145061Y251000D01*
X145194Y249646D01*
X145589Y248345D01*
X146230Y247145D01*
X147093Y246093D01*
X148145Y245231D01*
X149345Y244589D01*
X150646Y244194D01*
X152000Y244061D01*
X153354Y244194D01*
X154655Y244589D01*
X155855Y245231D01*
X156907Y246093D01*
X157770Y247145D01*
X158411Y248345D01*
X158806Y249646D01*
X158939Y251000D01*
X158806Y252354D01*
X158411Y253655D01*
X157770Y254855D01*
X156907Y255907D01*
X155855Y256769D01*
X154655Y257411D01*
X153354Y257806D01*
X152000Y257939D01*
D02*
G37*
G36*
X482000Y277043D02*
X480695Y276871D01*
X479478Y276367D01*
X478434Y275566D01*
X477633Y274522D01*
X477129Y273305D01*
X476957Y272000D01*
X477129Y270695D01*
X477633Y269478D01*
X478434Y268434D01*
X479478Y267633D01*
X480695Y267129D01*
X481672Y267000D01*
X480695Y266871D01*
X479478Y266368D01*
X478434Y265566D01*
X477633Y264522D01*
X477129Y263305D01*
X476957Y262000D01*
X477129Y260695D01*
X477633Y259478D01*
X478434Y258434D01*
X479478Y257632D01*
X480695Y257129D01*
X481672Y257000D01*
X480695Y256871D01*
X479478Y256367D01*
X478434Y255566D01*
X477633Y254522D01*
X477129Y253305D01*
X476957Y252000D01*
X477129Y250695D01*
X477633Y249478D01*
X478434Y248434D01*
X479478Y247633D01*
X480695Y247129D01*
X481672Y247000D01*
X480695Y246871D01*
X479478Y246368D01*
X478434Y245566D01*
X477633Y244522D01*
X477129Y243305D01*
X476957Y242000D01*
X477129Y240695D01*
X477633Y239478D01*
X478434Y238434D01*
X479478Y237632D01*
X480695Y237129D01*
X482000Y236957D01*
X483305Y237129D01*
X484522Y237632D01*
X485566Y238434D01*
X486368Y239478D01*
X486871Y240695D01*
X487043Y242000D01*
X486871Y243305D01*
X486368Y244522D01*
X485566Y245566D01*
X484522Y246368D01*
X483305Y246871D01*
X482328Y247000D01*
X483305Y247129D01*
X484522Y247633D01*
X485566Y248434D01*
X486368Y249478D01*
X486871Y250695D01*
X487043Y252000D01*
X486871Y253305D01*
X486368Y254522D01*
X485566Y255566D01*
X484522Y256367D01*
X483305Y256871D01*
X482328Y257000D01*
X483305Y257129D01*
X484522Y257632D01*
X485566Y258434D01*
X486368Y259478D01*
X486871Y260695D01*
X487043Y262000D01*
X486871Y263305D01*
X486368Y264522D01*
X485566Y265566D01*
X484522Y266368D01*
X483305Y266871D01*
X482328Y267000D01*
X483305Y267129D01*
X484522Y267633D01*
X485566Y268434D01*
X486368Y269478D01*
X486871Y270695D01*
X487043Y272000D01*
X486871Y273305D01*
X486368Y274522D01*
X485566Y275566D01*
X484522Y276367D01*
X483305Y276871D01*
X482000Y277043D01*
D02*
G37*
G36*
X132000Y257939D02*
X130646Y257806D01*
X129345Y257411D01*
X128145Y256769D01*
X127093Y255907D01*
X126231Y254855D01*
X125589Y253655D01*
X125194Y252354D01*
X125061Y251000D01*
X125194Y249646D01*
X125589Y248345D01*
X126231Y247145D01*
X127093Y246093D01*
X128145Y245231D01*
X129345Y244589D01*
X130646Y244194D01*
X132000Y244061D01*
X133354Y244194D01*
X134655Y244589D01*
X135855Y245231D01*
X136907Y246093D01*
X137769Y247145D01*
X138411Y248345D01*
X138806Y249646D01*
X138939Y251000D01*
X138806Y252354D01*
X138411Y253655D01*
X137769Y254855D01*
X136907Y255907D01*
X135855Y256769D01*
X134655Y257411D01*
X133354Y257806D01*
X132000Y257939D01*
D02*
G37*
G36*
X272000D02*
X270646Y257806D01*
X269345Y257411D01*
X268145Y256769D01*
X267093Y255907D01*
X266231Y254855D01*
X265589Y253655D01*
X265194Y252354D01*
X265061Y251000D01*
X265194Y249646D01*
X265589Y248345D01*
X266231Y247145D01*
X267093Y246093D01*
X268145Y245231D01*
X269345Y244589D01*
X270646Y244194D01*
X272000Y244061D01*
X273354Y244194D01*
X274655Y244589D01*
X275855Y245231D01*
X276907Y246093D01*
X277769Y247145D01*
X278411Y248345D01*
X278806Y249646D01*
X278939Y251000D01*
X278806Y252354D01*
X278411Y253655D01*
X277769Y254855D01*
X276907Y255907D01*
X275855Y256769D01*
X274655Y257411D01*
X273354Y257806D01*
X272000Y257939D01*
D02*
G37*
G36*
X292000D02*
X290646Y257806D01*
X289345Y257411D01*
X288145Y256769D01*
X287093Y255907D01*
X286230Y254855D01*
X285589Y253655D01*
X285194Y252354D01*
X285061Y251000D01*
X285194Y249646D01*
X285589Y248345D01*
X286230Y247145D01*
X287093Y246093D01*
X288145Y245231D01*
X289345Y244589D01*
X290646Y244194D01*
X292000Y244061D01*
X293354Y244194D01*
X294655Y244589D01*
X295855Y245231D01*
X296907Y246093D01*
X297769Y247145D01*
X298411Y248345D01*
X298806Y249646D01*
X298939Y251000D01*
X298806Y252354D01*
X298411Y253655D01*
X297769Y254855D01*
X296907Y255907D01*
X295855Y256769D01*
X294655Y257411D01*
X293354Y257806D01*
X292000Y257939D01*
D02*
G37*
G36*
X252000D02*
X250646Y257806D01*
X249345Y257411D01*
X248145Y256769D01*
X247093Y255907D01*
X246231Y254855D01*
X245589Y253655D01*
X245194Y252354D01*
X245061Y251000D01*
X245194Y249646D01*
X245589Y248345D01*
X246231Y247145D01*
X247093Y246093D01*
X248145Y245231D01*
X249345Y244589D01*
X250646Y244194D01*
X252000Y244061D01*
X253354Y244194D01*
X254655Y244589D01*
X255855Y245231D01*
X256907Y246093D01*
X257769Y247145D01*
X258411Y248345D01*
X258806Y249646D01*
X258939Y251000D01*
X258806Y252354D01*
X258411Y253655D01*
X257769Y254855D01*
X256907Y255907D01*
X255855Y256769D01*
X254655Y257411D01*
X253354Y257806D01*
X252000Y257939D01*
D02*
G37*
G36*
X212000D02*
X210646Y257806D01*
X209345Y257411D01*
X208145Y256769D01*
X207093Y255907D01*
X206230Y254855D01*
X205589Y253655D01*
X205194Y252354D01*
X205061Y251000D01*
X205194Y249646D01*
X205589Y248345D01*
X206230Y247145D01*
X207093Y246093D01*
X208145Y245231D01*
X209345Y244589D01*
X210646Y244194D01*
X212000Y244061D01*
X213354Y244194D01*
X214655Y244589D01*
X215855Y245231D01*
X216907Y246093D01*
X217770Y247145D01*
X218411Y248345D01*
X218806Y249646D01*
X218939Y251000D01*
X218806Y252354D01*
X218411Y253655D01*
X217770Y254855D01*
X216907Y255907D01*
X215855Y256769D01*
X214655Y257411D01*
X213354Y257806D01*
X212000Y257939D01*
D02*
G37*
G36*
X232000D02*
X230646Y257806D01*
X229345Y257411D01*
X228145Y256769D01*
X227093Y255907D01*
X226231Y254855D01*
X225589Y253655D01*
X225194Y252354D01*
X225061Y251000D01*
X225194Y249646D01*
X225589Y248345D01*
X226231Y247145D01*
X227093Y246093D01*
X228145Y245231D01*
X229345Y244589D01*
X230646Y244194D01*
X232000Y244061D01*
X233354Y244194D01*
X234655Y244589D01*
X235855Y245231D01*
X236907Y246093D01*
X237770Y247145D01*
X238411Y248345D01*
X238806Y249646D01*
X238939Y251000D01*
X238806Y252354D01*
X238411Y253655D01*
X237770Y254855D01*
X236907Y255907D01*
X235855Y256769D01*
X234655Y257411D01*
X233354Y257806D01*
X232000Y257939D01*
D02*
G37*
G36*
X194949Y367287D02*
X193839Y367141D01*
X192806Y366712D01*
X191918Y366031D01*
X191236Y365143D01*
X190808Y364109D01*
X190662Y363000D01*
X190808Y361891D01*
X191236Y360857D01*
X191918Y359969D01*
X192806Y359288D01*
X193839Y358859D01*
X194949Y358713D01*
X196058Y358859D01*
X197092Y359288D01*
X197980Y359969D01*
X198661Y360857D01*
X199089Y361891D01*
X199235Y363000D01*
X199089Y364109D01*
X198661Y365143D01*
X197980Y366031D01*
X197092Y366712D01*
X196058Y367141D01*
X194949Y367287D01*
D02*
G37*
G36*
X139000Y408287D02*
X137891Y408141D01*
X136857Y407712D01*
X135969Y407031D01*
X135288Y406143D01*
X134859Y405110D01*
X134713Y404000D01*
X134859Y402890D01*
X135288Y401857D01*
X135969Y400969D01*
X136857Y400288D01*
X137891Y399859D01*
X139000Y399713D01*
X140110Y399859D01*
X141143Y400288D01*
X142031Y400969D01*
X142712Y401857D01*
X143141Y402890D01*
X143287Y404000D01*
X143141Y405110D01*
X142712Y406143D01*
X142031Y407031D01*
X141143Y407712D01*
X140110Y408141D01*
X139000Y408287D01*
D02*
G37*
G36*
Y444043D02*
X137695Y443871D01*
X136478Y443367D01*
X135434Y442566D01*
X134633Y441522D01*
X134129Y440305D01*
X133957Y439000D01*
X134129Y437695D01*
X134633Y436478D01*
X135434Y435434D01*
X136478Y434632D01*
X137695Y434129D01*
X139000Y433957D01*
X140305Y434129D01*
X141522Y434632D01*
X142566Y435434D01*
X143368Y436478D01*
X143871Y437695D01*
X144043Y439000D01*
X143871Y440305D01*
X143368Y441522D01*
X142566Y442566D01*
X141522Y443367D01*
X140305Y443871D01*
X139000Y444043D01*
D02*
G37*
G36*
X403949Y397287D02*
X402839Y397141D01*
X401805Y396712D01*
X400918Y396031D01*
X400237Y395143D01*
X399808Y394110D01*
X399662Y393000D01*
X399808Y391891D01*
X399851Y391786D01*
X394558Y386493D01*
X394116Y385831D01*
X393961Y385051D01*
Y345000D01*
X394116Y344220D01*
X394558Y343558D01*
X407558Y330558D01*
X408220Y330116D01*
X409000Y329961D01*
X409000Y329961D01*
X457425D01*
Y328244D01*
X462575D01*
Y335756D01*
X457425D01*
Y334039D01*
X409845D01*
X398039Y345845D01*
Y384207D01*
X402735Y388902D01*
X402839Y388859D01*
X403949Y388713D01*
X405058Y388859D01*
X406092Y389288D01*
X406980Y389969D01*
X407661Y390857D01*
X408089Y391891D01*
X408236Y393000D01*
X408089Y394110D01*
X407661Y395143D01*
X406980Y396031D01*
X406092Y396712D01*
X405058Y397141D01*
X403949Y397287D01*
D02*
G37*
G36*
Y387287D02*
X402839Y387141D01*
X401805Y386712D01*
X400918Y386031D01*
X400237Y385143D01*
X399808Y384109D01*
X399662Y383000D01*
X399808Y381891D01*
X400237Y380857D01*
X400918Y379969D01*
X401805Y379288D01*
X402839Y378859D01*
X403949Y378713D01*
X405058Y378859D01*
X406092Y379288D01*
X406980Y379969D01*
X407661Y380857D01*
X408089Y381891D01*
X408236Y383000D01*
X408089Y384109D01*
X407661Y385143D01*
X406980Y386031D01*
X406092Y386712D01*
X405058Y387141D01*
X403949Y387287D01*
D02*
G37*
G36*
X482000Y387043D02*
X480695Y386871D01*
X479478Y386368D01*
X478434Y385566D01*
X477654Y384549D01*
X470575D01*
Y385756D01*
X465425D01*
Y378244D01*
X470575D01*
Y379451D01*
X477654D01*
X478434Y378434D01*
X479478Y377632D01*
X480695Y377129D01*
X481672Y377000D01*
X480695Y376871D01*
X479478Y376367D01*
X478434Y375566D01*
X477654Y374549D01*
X470575D01*
Y375756D01*
X465425D01*
Y368244D01*
X470575D01*
Y369451D01*
X477654D01*
X478434Y368434D01*
X479478Y367633D01*
X480695Y367129D01*
X481672Y367000D01*
X480695Y366871D01*
X479478Y366368D01*
X478434Y365566D01*
X477654Y364549D01*
X470575D01*
Y365756D01*
X465425D01*
Y358244D01*
X470575D01*
Y359451D01*
X477654D01*
X478434Y358434D01*
X479478Y357632D01*
X480695Y357129D01*
X481672Y357000D01*
X480695Y356871D01*
X479478Y356367D01*
X478434Y355566D01*
X477654Y354549D01*
X470575D01*
Y355756D01*
X465425D01*
Y348244D01*
X470575D01*
Y349451D01*
X477654D01*
X478434Y348434D01*
X479478Y347633D01*
X480695Y347129D01*
X481672Y347000D01*
X480695Y346871D01*
X479478Y346368D01*
X478434Y345566D01*
X477654Y344549D01*
X470575D01*
Y345756D01*
X465425D01*
Y338244D01*
X470575D01*
Y339451D01*
X477654D01*
X478434Y338434D01*
X479478Y337632D01*
X480695Y337129D01*
X481672Y337000D01*
X480695Y336871D01*
X479478Y336368D01*
X478434Y335566D01*
X477654Y334549D01*
X470575D01*
Y335756D01*
X465425D01*
Y328244D01*
X470575D01*
Y329451D01*
X477654D01*
X478434Y328434D01*
X479478Y327632D01*
X480695Y327129D01*
X482000Y326957D01*
X483305Y327129D01*
X484522Y327632D01*
X485566Y328434D01*
X486368Y329478D01*
X486871Y330695D01*
X487043Y332000D01*
X486871Y333305D01*
X486368Y334522D01*
X485566Y335566D01*
X484522Y336368D01*
X483305Y336871D01*
X482328Y337000D01*
X483305Y337129D01*
X484522Y337632D01*
X485566Y338434D01*
X486368Y339478D01*
X486871Y340695D01*
X487043Y342000D01*
X486871Y343305D01*
X486368Y344522D01*
X485566Y345566D01*
X484522Y346368D01*
X483305Y346871D01*
X482328Y347000D01*
X483305Y347129D01*
X484522Y347633D01*
X485566Y348434D01*
X486368Y349478D01*
X486871Y350695D01*
X487043Y352000D01*
X486871Y353305D01*
X486368Y354522D01*
X485566Y355566D01*
X484522Y356367D01*
X483305Y356871D01*
X482328Y357000D01*
X483305Y357129D01*
X484522Y357632D01*
X485566Y358434D01*
X486368Y359478D01*
X486871Y360695D01*
X487043Y362000D01*
X486871Y363305D01*
X486368Y364522D01*
X485566Y365566D01*
X484522Y366368D01*
X483305Y366871D01*
X482328Y367000D01*
X483305Y367129D01*
X484522Y367633D01*
X485566Y368434D01*
X486368Y369478D01*
X486871Y370695D01*
X487043Y372000D01*
X486871Y373305D01*
X486368Y374522D01*
X485566Y375566D01*
X484522Y376367D01*
X483305Y376871D01*
X482328Y377000D01*
X483305Y377129D01*
X484522Y377632D01*
X485566Y378434D01*
X486368Y379478D01*
X486871Y380695D01*
X487043Y382000D01*
X486871Y383305D01*
X486368Y384522D01*
X485566Y385566D01*
X484522Y386368D01*
X483305Y386871D01*
X482000Y387043D01*
D02*
G37*
G36*
X462575Y450756D02*
X457425D01*
Y449039D01*
X449000D01*
X448220Y448884D01*
X447558Y448442D01*
X434155Y435039D01*
X430052D01*
X430566Y435434D01*
X431367Y436478D01*
X431871Y437695D01*
X432043Y439000D01*
X431871Y440305D01*
X431367Y441522D01*
X430566Y442566D01*
X429522Y443367D01*
X428305Y443871D01*
X427000Y444043D01*
X425695Y443871D01*
X424478Y443367D01*
X423434Y442566D01*
X422633Y441522D01*
X422129Y440305D01*
X421957Y439000D01*
X422129Y437695D01*
X422633Y436478D01*
X423434Y435434D01*
X423948Y435039D01*
X406051D01*
X406566Y435434D01*
X407368Y436478D01*
X407871Y437695D01*
X408043Y439000D01*
X407871Y440305D01*
X407368Y441522D01*
X406566Y442566D01*
X405522Y443367D01*
X404305Y443871D01*
X403000Y444043D01*
X401695Y443871D01*
X400478Y443367D01*
X399434Y442566D01*
X398633Y441522D01*
X398129Y440305D01*
X397957Y439000D01*
X398129Y437695D01*
X398633Y436478D01*
X399434Y435434D01*
X399949Y435039D01*
X382051D01*
X382566Y435434D01*
X383367Y436478D01*
X383871Y437695D01*
X384043Y439000D01*
X383871Y440305D01*
X383367Y441522D01*
X382566Y442566D01*
X381522Y443367D01*
X380305Y443871D01*
X379000Y444043D01*
X377695Y443871D01*
X376478Y443367D01*
X375434Y442566D01*
X374633Y441522D01*
X374129Y440305D01*
X373957Y439000D01*
X374129Y437695D01*
X374633Y436478D01*
X375434Y435434D01*
X375949Y435039D01*
X358051D01*
X358566Y435434D01*
X359367Y436478D01*
X359871Y437695D01*
X360043Y439000D01*
X359871Y440305D01*
X359367Y441522D01*
X358566Y442566D01*
X357522Y443367D01*
X356305Y443871D01*
X355000Y444043D01*
X353695Y443871D01*
X352478Y443367D01*
X351434Y442566D01*
X350633Y441522D01*
X350129Y440305D01*
X349957Y439000D01*
X350129Y437695D01*
X350633Y436478D01*
X351434Y435434D01*
X351948Y435039D01*
X334051D01*
X334566Y435434D01*
X335367Y436478D01*
X335871Y437695D01*
X336043Y439000D01*
X335871Y440305D01*
X335367Y441522D01*
X334566Y442566D01*
X333522Y443367D01*
X332305Y443871D01*
X331000Y444043D01*
X329695Y443871D01*
X328478Y443367D01*
X327434Y442566D01*
X326632Y441522D01*
X326129Y440305D01*
X325957Y439000D01*
X326129Y437695D01*
X326632Y436478D01*
X327434Y435434D01*
X327948Y435039D01*
X310051D01*
X310566Y435434D01*
X311368Y436478D01*
X311871Y437695D01*
X312043Y439000D01*
X311871Y440305D01*
X311368Y441522D01*
X310566Y442566D01*
X309522Y443367D01*
X308305Y443871D01*
X307000Y444043D01*
X305695Y443871D01*
X304478Y443367D01*
X303434Y442566D01*
X302632Y441522D01*
X302129Y440305D01*
X301957Y439000D01*
X302129Y437695D01*
X302632Y436478D01*
X303434Y435434D01*
X303948Y435039D01*
X286052D01*
X286566Y435434D01*
X287368Y436478D01*
X287871Y437695D01*
X288043Y439000D01*
X287871Y440305D01*
X287368Y441522D01*
X286566Y442566D01*
X285522Y443367D01*
X284305Y443871D01*
X283000Y444043D01*
X281695Y443871D01*
X280478Y443367D01*
X279434Y442566D01*
X278632Y441522D01*
X278129Y440305D01*
X277957Y439000D01*
X278129Y437695D01*
X278632Y436478D01*
X279434Y435434D01*
X279948Y435039D01*
X262052D01*
X262566Y435434D01*
X263368Y436478D01*
X263871Y437695D01*
X264043Y439000D01*
X263871Y440305D01*
X263368Y441522D01*
X262566Y442566D01*
X261522Y443367D01*
X260305Y443871D01*
X259000Y444043D01*
X257695Y443871D01*
X256478Y443367D01*
X255434Y442566D01*
X254632Y441522D01*
X254129Y440305D01*
X253957Y439000D01*
X254129Y437695D01*
X254632Y436478D01*
X255434Y435434D01*
X255948Y435039D01*
X238052D01*
X238566Y435434D01*
X239368Y436478D01*
X239871Y437695D01*
X240043Y439000D01*
X239871Y440305D01*
X239368Y441522D01*
X238566Y442566D01*
X237522Y443367D01*
X236305Y443871D01*
X235000Y444043D01*
X233695Y443871D01*
X232478Y443367D01*
X231434Y442566D01*
X230632Y441522D01*
X230129Y440305D01*
X229957Y439000D01*
X230129Y437695D01*
X230632Y436478D01*
X231434Y435434D01*
X231948Y435039D01*
X218000D01*
X217220Y434884D01*
X216558Y434442D01*
X193507Y411391D01*
X193065Y410729D01*
X192910Y409949D01*
Y396756D01*
X192806Y396712D01*
X191918Y396031D01*
X191236Y395143D01*
X190808Y394110D01*
X190662Y393000D01*
X190808Y391891D01*
X191236Y390857D01*
X191918Y389969D01*
X192806Y389288D01*
X193839Y388859D01*
X194949Y388713D01*
X196058Y388859D01*
X197092Y389288D01*
X197980Y389969D01*
X198661Y390857D01*
X199089Y391891D01*
X199235Y393000D01*
X199089Y394110D01*
X198661Y395143D01*
X197980Y396031D01*
X197092Y396712D01*
X196988Y396756D01*
Y409104D01*
X199961Y412077D01*
Y360896D01*
X196162Y357098D01*
X196058Y357141D01*
X194949Y357287D01*
X193839Y357141D01*
X192806Y356712D01*
X191918Y356031D01*
X191236Y355143D01*
X190808Y354110D01*
X190662Y353000D01*
X190808Y351890D01*
X191236Y350857D01*
X191918Y349969D01*
X192806Y349288D01*
X193839Y348859D01*
X194949Y348713D01*
X196058Y348859D01*
X197092Y349288D01*
X197980Y349969D01*
X198661Y350857D01*
X199089Y351890D01*
X199235Y353000D01*
X199089Y354110D01*
X199046Y354214D01*
X203442Y358609D01*
X203442Y358609D01*
X203707Y359006D01*
X203884Y359271D01*
X204039Y360051D01*
Y411913D01*
X220087Y427961D01*
X245077D01*
X228558Y411442D01*
X228116Y410780D01*
X227961Y410000D01*
Y359949D01*
X228116Y359169D01*
X228558Y358507D01*
X232851Y354214D01*
X232808Y354110D01*
X232662Y353000D01*
X232808Y351890D01*
X233237Y350857D01*
X233918Y349969D01*
X234805Y349288D01*
X235839Y348859D01*
X236949Y348713D01*
X238058Y348859D01*
X239092Y349288D01*
X239980Y349969D01*
X240661Y350857D01*
X241089Y351890D01*
X241235Y353000D01*
X241089Y354110D01*
X240661Y355143D01*
X239980Y356031D01*
X239092Y356712D01*
X238058Y357141D01*
X236949Y357287D01*
X235839Y357141D01*
X235735Y357098D01*
X232039Y360793D01*
Y409155D01*
X234910Y412026D01*
Y396756D01*
X234805Y396712D01*
X233918Y396031D01*
X233237Y395143D01*
X232808Y394110D01*
X232662Y393000D01*
X232808Y391891D01*
X233237Y390857D01*
X233918Y389969D01*
X234805Y389288D01*
X235839Y388859D01*
X236949Y388713D01*
X238058Y388859D01*
X239092Y389288D01*
X239980Y389969D01*
X240661Y390857D01*
X241089Y391891D01*
X241235Y393000D01*
X241089Y394110D01*
X240661Y395143D01*
X239980Y396031D01*
X239092Y396712D01*
X238988Y396756D01*
Y411862D01*
X249087Y421961D01*
X284077D01*
X273507Y411391D01*
X273065Y410729D01*
X272910Y409949D01*
Y396756D01*
X272806Y396712D01*
X271918Y396031D01*
X271236Y395143D01*
X270808Y394110D01*
X270662Y393000D01*
X270808Y391891D01*
X271236Y390857D01*
X271918Y389969D01*
X272806Y389288D01*
X273839Y388859D01*
X274949Y388713D01*
X276058Y388859D01*
X277092Y389288D01*
X277980Y389969D01*
X278661Y390857D01*
X279089Y391891D01*
X279236Y393000D01*
X279089Y394110D01*
X278661Y395143D01*
X277980Y396031D01*
X277092Y396712D01*
X276988Y396756D01*
Y409104D01*
X280961Y413077D01*
Y361896D01*
X276162Y357098D01*
X276058Y357141D01*
X274949Y357287D01*
X273839Y357141D01*
X272806Y356712D01*
X271918Y356031D01*
X271236Y355143D01*
X270808Y354110D01*
X270662Y353000D01*
X270808Y351890D01*
X271236Y350857D01*
X271918Y349969D01*
X272806Y349288D01*
X273839Y348859D01*
X274949Y348713D01*
X276058Y348859D01*
X277092Y349288D01*
X277980Y349969D01*
X278661Y350857D01*
X279089Y351890D01*
X279236Y353000D01*
X279089Y354110D01*
X279046Y354214D01*
X284442Y359609D01*
X284884Y360271D01*
X285039Y361051D01*
Y412913D01*
X288087Y415961D01*
X313077D01*
X307558Y410442D01*
X307116Y409780D01*
X306961Y409000D01*
Y360949D01*
X307116Y360169D01*
X307558Y359507D01*
X312851Y354214D01*
X312808Y354110D01*
X312662Y353000D01*
X312808Y351890D01*
X313236Y350857D01*
X313918Y349969D01*
X314806Y349288D01*
X315839Y348859D01*
X316949Y348713D01*
X318058Y348859D01*
X319092Y349288D01*
X319980Y349969D01*
X320661Y350857D01*
X321089Y351890D01*
X321235Y353000D01*
X321089Y354110D01*
X320661Y355143D01*
X319980Y356031D01*
X319092Y356712D01*
X318058Y357141D01*
X316949Y357287D01*
X315839Y357141D01*
X315735Y357098D01*
X311039Y361793D01*
Y408155D01*
X315845Y412961D01*
X318077D01*
X315507Y410391D01*
X315065Y409729D01*
X314910Y408949D01*
Y396756D01*
X314806Y396712D01*
X313918Y396031D01*
X313236Y395143D01*
X312808Y394110D01*
X312662Y393000D01*
X312808Y391891D01*
X313236Y390857D01*
X313918Y389969D01*
X314806Y389288D01*
X315839Y388859D01*
X316949Y388713D01*
X318058Y388859D01*
X319092Y389288D01*
X319980Y389969D01*
X320661Y390857D01*
X321089Y391891D01*
X321235Y393000D01*
X321089Y394110D01*
X320661Y395143D01*
X319980Y396031D01*
X319092Y396712D01*
X318988Y396756D01*
Y408104D01*
X320845Y409961D01*
X366077D01*
X360507Y404391D01*
X360065Y403729D01*
X359910Y402949D01*
Y396756D01*
X359805Y396712D01*
X358918Y396031D01*
X358237Y395143D01*
X357808Y394110D01*
X357662Y393000D01*
X357808Y391891D01*
X358237Y390857D01*
X358918Y389969D01*
X359805Y389288D01*
X360839Y388859D01*
X361949Y388713D01*
X363058Y388859D01*
X364092Y389288D01*
X364980Y389969D01*
X365661Y390857D01*
X366089Y391891D01*
X366235Y393000D01*
X366089Y394110D01*
X365661Y395143D01*
X364980Y396031D01*
X364092Y396712D01*
X363988Y396756D01*
Y402104D01*
X368845Y406961D01*
X375077D01*
X369558Y401442D01*
X369116Y400780D01*
X368961Y400000D01*
Y361845D01*
X363906Y356790D01*
X363058Y357141D01*
X361949Y357287D01*
X360839Y357141D01*
X359805Y356712D01*
X358918Y356031D01*
X358237Y355143D01*
X357808Y354110D01*
X357662Y353000D01*
X357808Y351890D01*
X358237Y350857D01*
X358918Y349969D01*
X359805Y349288D01*
X360839Y348859D01*
X361949Y348713D01*
X363058Y348859D01*
X364092Y349288D01*
X364980Y349969D01*
X365661Y350857D01*
X366089Y351890D01*
X366235Y353000D01*
X366195Y353311D01*
X372442Y359558D01*
X372884Y360220D01*
X373039Y361000D01*
Y399155D01*
X377845Y403961D01*
X405155D01*
X457425Y351691D01*
Y348244D01*
X462575D01*
Y355756D01*
X459128D01*
X454923Y359961D01*
X457425D01*
Y358244D01*
X462575D01*
Y365756D01*
X457425D01*
Y364039D01*
X455087D01*
X449166Y369961D01*
X457425D01*
Y368244D01*
X462575D01*
Y375756D01*
X457425D01*
Y374039D01*
X449845D01*
X443923Y379961D01*
X457425D01*
Y378244D01*
X462575D01*
Y385756D01*
X457425D01*
Y384039D01*
X444087D01*
X412166Y415961D01*
X432913D01*
X453315Y395558D01*
X453315Y395558D01*
X453712Y395293D01*
X453977Y395116D01*
X454757Y394961D01*
X457425D01*
Y393244D01*
X462575D01*
Y400756D01*
X457425D01*
Y399039D01*
X455602D01*
X449680Y404961D01*
X457425D01*
Y403244D01*
X462575D01*
Y410756D01*
X457425D01*
Y409039D01*
X449845D01*
X436923Y421961D01*
X439155D01*
X445558Y415558D01*
X445558Y415558D01*
X445955Y415293D01*
X446220Y415116D01*
X447000Y414961D01*
X457425D01*
Y413244D01*
X462575D01*
Y420756D01*
X457425D01*
Y419039D01*
X447845D01*
X441923Y424961D01*
X457425D01*
Y423244D01*
X462575D01*
Y430756D01*
X457425D01*
Y429039D01*
X438923D01*
X444845Y434961D01*
X457425D01*
Y433244D01*
X462575D01*
Y440756D01*
X457425D01*
Y439039D01*
X444000D01*
X443904Y439020D01*
X449845Y444961D01*
X457425D01*
Y443244D01*
X462575D01*
Y450756D01*
D02*
G37*
G36*
X482000Y452043D02*
X480695Y451871D01*
X479478Y451368D01*
X478434Y450566D01*
X477654Y449549D01*
X470575D01*
Y450756D01*
X465425D01*
Y443244D01*
X470575D01*
Y444451D01*
X477654D01*
X478434Y443434D01*
X479478Y442632D01*
X480695Y442129D01*
X481672Y442000D01*
X480695Y441871D01*
X479478Y441367D01*
X478434Y440566D01*
X477654Y439549D01*
X470575D01*
Y440756D01*
X465425D01*
Y433244D01*
X470575D01*
Y434451D01*
X477654D01*
X478434Y433434D01*
X479478Y432632D01*
X480695Y432129D01*
X481672Y432000D01*
X480695Y431871D01*
X479478Y431367D01*
X478434Y430566D01*
X477654Y429549D01*
X470575D01*
Y430756D01*
X465425D01*
Y423244D01*
X470575D01*
Y424451D01*
X477654D01*
X478434Y423434D01*
X479478Y422633D01*
X480695Y422129D01*
X481672Y422000D01*
X480695Y421871D01*
X479478Y421368D01*
X478434Y420566D01*
X477654Y419549D01*
X470575D01*
Y420756D01*
X465425D01*
Y413244D01*
X470575D01*
Y414451D01*
X477654D01*
X478434Y413434D01*
X479478Y412633D01*
X480695Y412129D01*
X481672Y412000D01*
X480695Y411871D01*
X479478Y411368D01*
X478434Y410566D01*
X477654Y409549D01*
X470575D01*
Y410756D01*
X465425D01*
Y403244D01*
X470575D01*
Y404451D01*
X477654D01*
X478434Y403434D01*
X479478Y402633D01*
X480695Y402129D01*
X481672Y402000D01*
X480695Y401871D01*
X479478Y401368D01*
X478434Y400566D01*
X477654Y399549D01*
X470575D01*
Y400756D01*
X465425D01*
Y393244D01*
X470575D01*
Y394451D01*
X477654D01*
X478434Y393434D01*
X479478Y392633D01*
X480695Y392129D01*
X482000Y391957D01*
X483305Y392129D01*
X484522Y392633D01*
X485566Y393434D01*
X486368Y394478D01*
X486871Y395695D01*
X487043Y397000D01*
X486871Y398305D01*
X486368Y399522D01*
X485566Y400566D01*
X484522Y401368D01*
X483305Y401871D01*
X482328Y402000D01*
X483305Y402129D01*
X484522Y402633D01*
X485566Y403434D01*
X486368Y404478D01*
X486871Y405695D01*
X487043Y407000D01*
X486871Y408305D01*
X486368Y409522D01*
X485566Y410566D01*
X484522Y411368D01*
X483305Y411871D01*
X482328Y412000D01*
X483305Y412129D01*
X484522Y412633D01*
X485566Y413434D01*
X486368Y414478D01*
X486871Y415695D01*
X487043Y417000D01*
X486871Y418305D01*
X486368Y419522D01*
X485566Y420566D01*
X484522Y421368D01*
X483305Y421871D01*
X482328Y422000D01*
X483305Y422129D01*
X484522Y422633D01*
X485566Y423434D01*
X486368Y424478D01*
X486871Y425695D01*
X487043Y427000D01*
X486871Y428305D01*
X486368Y429522D01*
X485566Y430566D01*
X484522Y431367D01*
X483305Y431871D01*
X482328Y432000D01*
X483305Y432129D01*
X484522Y432632D01*
X485566Y433434D01*
X486368Y434478D01*
X486871Y435695D01*
X487043Y437000D01*
X486871Y438305D01*
X486368Y439522D01*
X485566Y440566D01*
X484522Y441367D01*
X483305Y441871D01*
X482328Y442000D01*
X483305Y442129D01*
X484522Y442632D01*
X485566Y443434D01*
X486368Y444478D01*
X486871Y445695D01*
X487043Y447000D01*
X486871Y448305D01*
X486368Y449522D01*
X485566Y450566D01*
X484522Y451368D01*
X483305Y451871D01*
X482000Y452043D01*
D02*
G37*
G36*
X211000Y444043D02*
X209695Y443871D01*
X208478Y443367D01*
X207434Y442566D01*
X206632Y441522D01*
X206129Y440305D01*
X205957Y439000D01*
X206129Y437695D01*
X206632Y436478D01*
X207434Y435434D01*
X208478Y434632D01*
X209695Y434129D01*
X211000Y433957D01*
X212305Y434129D01*
X213522Y434632D01*
X214566Y435434D01*
X215368Y436478D01*
X215871Y437695D01*
X216043Y439000D01*
X215871Y440305D01*
X215368Y441522D01*
X214566Y442566D01*
X213522Y443367D01*
X212305Y443871D01*
X211000Y444043D01*
D02*
G37*
G36*
X163000D02*
X161695Y443871D01*
X160478Y443367D01*
X159434Y442566D01*
X158633Y441522D01*
X158129Y440305D01*
X157957Y439000D01*
X158129Y437695D01*
X158633Y436478D01*
X159434Y435434D01*
X160478Y434632D01*
X161695Y434129D01*
X163000Y433957D01*
X164305Y434129D01*
X165522Y434632D01*
X166566Y435434D01*
X167367Y436478D01*
X167871Y437695D01*
X168043Y439000D01*
X167871Y440305D01*
X167367Y441522D01*
X166566Y442566D01*
X165522Y443367D01*
X164305Y443871D01*
X163000Y444043D01*
D02*
G37*
G36*
X187000D02*
X185695Y443871D01*
X184478Y443367D01*
X183434Y442566D01*
X182633Y441522D01*
X182129Y440305D01*
X181957Y439000D01*
X182129Y437695D01*
X182633Y436478D01*
X183434Y435434D01*
X184478Y434632D01*
X185695Y434129D01*
X187000Y433957D01*
X188305Y434129D01*
X189522Y434632D01*
X190566Y435434D01*
X191367Y436478D01*
X191871Y437695D01*
X192043Y439000D01*
X191871Y440305D01*
X191367Y441522D01*
X190566Y442566D01*
X189522Y443367D01*
X188305Y443871D01*
X187000Y444043D01*
D02*
G37*
G36*
X361949Y367287D02*
X360839Y367141D01*
X359805Y366712D01*
X358918Y366031D01*
X358237Y365143D01*
X357808Y364109D01*
X357662Y363000D01*
X357808Y361891D01*
X358237Y360857D01*
X358918Y359969D01*
X359805Y359288D01*
X360839Y358859D01*
X361949Y358713D01*
X363058Y358859D01*
X364092Y359288D01*
X364980Y359969D01*
X365661Y360857D01*
X366089Y361891D01*
X366235Y363000D01*
X366089Y364109D01*
X365661Y365143D01*
X364980Y366031D01*
X364092Y366712D01*
X363058Y367141D01*
X361949Y367287D01*
D02*
G37*
G36*
X403949D02*
X402839Y367141D01*
X401805Y366712D01*
X400918Y366031D01*
X400237Y365143D01*
X399808Y364109D01*
X399662Y363000D01*
X399808Y361891D01*
X400237Y360857D01*
X400918Y359969D01*
X401805Y359288D01*
X402839Y358859D01*
X403949Y358713D01*
X405058Y358859D01*
X406092Y359288D01*
X406980Y359969D01*
X407661Y360857D01*
X408089Y361891D01*
X408236Y363000D01*
X408089Y364109D01*
X407661Y365143D01*
X406980Y366031D01*
X406092Y366712D01*
X405058Y367141D01*
X403949Y367287D01*
D02*
G37*
G36*
X316949D02*
X315839Y367141D01*
X314806Y366712D01*
X313918Y366031D01*
X313236Y365143D01*
X312808Y364109D01*
X312662Y363000D01*
X312808Y361891D01*
X313236Y360857D01*
X313918Y359969D01*
X314806Y359288D01*
X315839Y358859D01*
X316949Y358713D01*
X318058Y358859D01*
X319092Y359288D01*
X319980Y359969D01*
X320661Y360857D01*
X321089Y361891D01*
X321235Y363000D01*
X321089Y364109D01*
X320661Y365143D01*
X319980Y366031D01*
X319092Y366712D01*
X318058Y367141D01*
X316949Y367287D01*
D02*
G37*
G36*
X236949D02*
X235839Y367141D01*
X234805Y366712D01*
X233918Y366031D01*
X233237Y365143D01*
X232808Y364109D01*
X232662Y363000D01*
X232808Y361891D01*
X233237Y360857D01*
X233918Y359969D01*
X234805Y359288D01*
X235839Y358859D01*
X236949Y358713D01*
X238058Y358859D01*
X239092Y359288D01*
X239980Y359969D01*
X240661Y360857D01*
X241089Y361891D01*
X241235Y363000D01*
X241089Y364109D01*
X240661Y365143D01*
X239980Y366031D01*
X239092Y366712D01*
X238058Y367141D01*
X236949Y367287D01*
D02*
G37*
G36*
X274949D02*
X273839Y367141D01*
X272806Y366712D01*
X271918Y366031D01*
X271236Y365143D01*
X270808Y364109D01*
X270662Y363000D01*
X270808Y361891D01*
X271236Y360857D01*
X271918Y359969D01*
X272806Y359288D01*
X273839Y358859D01*
X274949Y358713D01*
X276058Y358859D01*
X277092Y359288D01*
X277980Y359969D01*
X278661Y360857D01*
X279089Y361891D01*
X279236Y363000D01*
X279089Y364109D01*
X278661Y365143D01*
X277980Y366031D01*
X277092Y366712D01*
X276058Y367141D01*
X274949Y367287D01*
D02*
G37*
G36*
X316949Y387287D02*
X315839Y387141D01*
X314806Y386712D01*
X313918Y386031D01*
X313236Y385143D01*
X312808Y384109D01*
X312662Y383000D01*
X312808Y381891D01*
X313236Y380857D01*
X313918Y379969D01*
X314806Y379288D01*
X315839Y378859D01*
X316949Y378713D01*
X318058Y378859D01*
X319092Y379288D01*
X319980Y379969D01*
X320661Y380857D01*
X321089Y381891D01*
X321235Y383000D01*
X321089Y384109D01*
X320661Y385143D01*
X319980Y386031D01*
X319092Y386712D01*
X318058Y387141D01*
X316949Y387287D01*
D02*
G37*
G36*
X361949D02*
X360839Y387141D01*
X359805Y386712D01*
X358918Y386031D01*
X358237Y385143D01*
X357808Y384109D01*
X357662Y383000D01*
X357808Y381891D01*
X358237Y380857D01*
X358918Y379969D01*
X359805Y379288D01*
X360839Y378859D01*
X361949Y378713D01*
X363058Y378859D01*
X364092Y379288D01*
X364980Y379969D01*
X365661Y380857D01*
X366089Y381891D01*
X366235Y383000D01*
X366089Y384109D01*
X365661Y385143D01*
X364980Y386031D01*
X364092Y386712D01*
X363058Y387141D01*
X361949Y387287D01*
D02*
G37*
G36*
X274949D02*
X273839Y387141D01*
X272806Y386712D01*
X271918Y386031D01*
X271236Y385143D01*
X270808Y384109D01*
X270662Y383000D01*
X270808Y381891D01*
X271236Y380857D01*
X271918Y379969D01*
X272806Y379288D01*
X273839Y378859D01*
X274949Y378713D01*
X276058Y378859D01*
X277092Y379288D01*
X277980Y379969D01*
X278661Y380857D01*
X279089Y381891D01*
X279236Y383000D01*
X279089Y384109D01*
X278661Y385143D01*
X277980Y386031D01*
X277092Y386712D01*
X276058Y387141D01*
X274949Y387287D01*
D02*
G37*
G36*
X194949D02*
X193839Y387141D01*
X192806Y386712D01*
X191918Y386031D01*
X191236Y385143D01*
X190808Y384109D01*
X190662Y383000D01*
X190808Y381891D01*
X191236Y380857D01*
X191918Y379969D01*
X192806Y379288D01*
X193839Y378859D01*
X194949Y378713D01*
X196058Y378859D01*
X197092Y379288D01*
X197980Y379969D01*
X198661Y380857D01*
X199089Y381891D01*
X199235Y383000D01*
X199089Y384109D01*
X198661Y385143D01*
X197980Y386031D01*
X197092Y386712D01*
X196058Y387141D01*
X194949Y387287D01*
D02*
G37*
G36*
X236949D02*
X235839Y387141D01*
X234805Y386712D01*
X233918Y386031D01*
X233237Y385143D01*
X232808Y384109D01*
X232662Y383000D01*
X232808Y381891D01*
X233237Y380857D01*
X233918Y379969D01*
X234805Y379288D01*
X235839Y378859D01*
X236949Y378713D01*
X238058Y378859D01*
X239092Y379288D01*
X239980Y379969D01*
X240661Y380857D01*
X241089Y381891D01*
X241235Y383000D01*
X241089Y384109D01*
X240661Y385143D01*
X239980Y386031D01*
X239092Y386712D01*
X238058Y387141D01*
X236949Y387287D01*
D02*
G37*
%LPD*%
D18*
X460000Y447000D02*
D03*
X468000D02*
D03*
X460000Y437000D02*
D03*
X468000D02*
D03*
X460000Y427000D02*
D03*
X468000D02*
D03*
X460000Y417000D02*
D03*
X468000D02*
D03*
X460000Y407000D02*
D03*
X468000D02*
D03*
X460000Y397000D02*
D03*
X468000D02*
D03*
X460000Y382000D02*
D03*
X468000D02*
D03*
X460000Y372000D02*
D03*
X468000D02*
D03*
X460000Y362000D02*
D03*
X468000D02*
D03*
X460000Y352000D02*
D03*
X468000D02*
D03*
X460000Y342000D02*
D03*
X468000D02*
D03*
X460000Y332000D02*
D03*
X468000D02*
D03*
D20*
X202000Y360051D02*
Y412757D01*
X194949Y353000D02*
X202000Y360051D01*
Y412757D02*
X219243Y430000D01*
X194949Y393000D02*
Y409949D01*
X218000Y433000D01*
X449000Y447000D02*
X460000D01*
X444000Y437000D02*
X460000D01*
X230000Y359949D02*
X236949Y353000D01*
X230000Y359949D02*
Y410000D01*
X247000Y427000D01*
X236949Y393000D02*
Y412706D01*
X274949Y353000D02*
X283000Y361051D01*
Y413757D01*
X236949Y412706D02*
X248243Y424000D01*
X449000Y407000D02*
X460000D01*
X435000Y421000D02*
X449000Y407000D01*
X286000Y421000D02*
X435000D01*
X274949Y409949D02*
X286000Y421000D01*
X274949Y393000D02*
Y409949D01*
X283000Y413757D02*
X287243Y418000D01*
X433757D01*
X218000Y433000D02*
X435000D01*
X449000Y447000D01*
X219243Y430000D02*
X437000D01*
X444000Y437000D01*
X247000Y427000D02*
X460000D01*
X248243Y424000D02*
X440000D01*
X447000Y417000D01*
X460000D01*
X433757Y418000D02*
X454757Y397000D01*
X460000D01*
X443243Y382000D02*
X460000D01*
X309000Y409000D02*
X315000Y415000D01*
X309000Y360949D02*
Y409000D01*
Y360949D02*
X316949Y353000D01*
Y408949D02*
X320000Y412000D01*
X316949Y393000D02*
Y408949D01*
X361949Y393000D02*
Y402949D01*
X368000Y409000D01*
X406000Y406000D02*
X460000Y352000D01*
X377000Y406000D02*
X406000D01*
X371000Y400000D02*
X377000Y406000D01*
X371000Y361000D02*
Y400000D01*
X363000Y353000D02*
X371000Y361000D01*
X361949Y353000D02*
X363000D01*
X409000Y332000D02*
X460000D01*
X396000Y345000D02*
X409000Y332000D01*
X396000Y345000D02*
Y385051D01*
X403949Y393000D01*
X414949Y342000D02*
X460000D01*
X403949Y353000D02*
X414949Y342000D01*
X368000Y409000D02*
X407243D01*
X454243Y362000D01*
X460000D01*
X320000Y412000D02*
X409000D01*
X449000Y372000D01*
X460000D01*
X315000Y415000D02*
X410243D01*
X443243Y382000D01*
D21*
X468000Y437000D02*
X482000D01*
X468000Y427000D02*
X482000D01*
X468000Y417000D02*
X482000D01*
X468000Y407000D02*
X482000D01*
X468000Y397000D02*
X482000D01*
X468000Y382000D02*
X482000D01*
X468000Y372000D02*
X482000D01*
X468000Y362000D02*
X482000D01*
X468000Y352000D02*
X482000D01*
X468000Y342000D02*
X482000D01*
X468000Y332000D02*
X482000D01*
X482000Y447000D02*
X482000Y447000D01*
X468000Y447000D02*
X482000D01*
D26*
X403949Y383000D02*
D03*
Y393000D02*
D03*
Y363000D02*
D03*
Y353000D02*
D03*
X361949Y363000D02*
D03*
Y353000D02*
D03*
Y383000D02*
D03*
Y393000D02*
D03*
X316949Y383000D02*
D03*
Y393000D02*
D03*
Y363000D02*
D03*
Y353000D02*
D03*
X274949Y363000D02*
D03*
Y353000D02*
D03*
Y383000D02*
D03*
Y393000D02*
D03*
X139000Y404000D02*
D03*
X129000D02*
D03*
X236949Y383000D02*
D03*
Y393000D02*
D03*
Y363000D02*
D03*
Y353000D02*
D03*
X194949Y383000D02*
D03*
Y393000D02*
D03*
Y363000D02*
D03*
Y353000D02*
D03*
D27*
X139000Y439000D02*
D03*
X129000D02*
D03*
X163000D02*
D03*
X153000D02*
D03*
X187000D02*
D03*
X177000D02*
D03*
X211000D02*
D03*
X201000D02*
D03*
X235000D02*
D03*
X225000D02*
D03*
X259000D02*
D03*
X249000D02*
D03*
X283000D02*
D03*
X273000D02*
D03*
X307000D02*
D03*
X297000D02*
D03*
X331000D02*
D03*
X321000D02*
D03*
X355000D02*
D03*
X345000D02*
D03*
X379000D02*
D03*
X369000D02*
D03*
X403000D02*
D03*
X393000D02*
D03*
X427000D02*
D03*
X417000D02*
D03*
X482000Y397000D02*
D03*
Y427000D02*
D03*
Y407000D02*
D03*
Y417000D02*
D03*
Y437000D02*
D03*
Y447000D02*
D03*
Y332000D02*
D03*
Y362000D02*
D03*
Y342000D02*
D03*
Y352000D02*
D03*
Y372000D02*
D03*
Y382000D02*
D03*
X137000Y341000D02*
D03*
Y331000D02*
D03*
X482000Y317000D02*
D03*
Y307000D02*
D03*
Y297000D02*
D03*
Y287000D02*
D03*
Y242000D02*
D03*
Y252000D02*
D03*
Y272000D02*
D03*
Y262000D02*
D03*
D28*
X132000Y251000D02*
D03*
X152000D02*
D03*
X172000D02*
D03*
X192000D02*
D03*
X212000D02*
D03*
X232000D02*
D03*
X252000D02*
D03*
X272000D02*
D03*
X292000D02*
D03*
X312000D02*
D03*
X332000D02*
D03*
X352000D02*
D03*
X372000D02*
D03*
X392000D02*
D03*
X412000D02*
D03*
X432000D02*
D03*
D29*
X484252Y464567D02*
D03*
Y226378D02*
D03*
X118110D02*
D03*
Y464567D02*
D03*
D30*
X236500Y373000D02*
D03*
X185500Y366000D02*
D03*
X176000Y394000D02*
D03*
X256500Y391500D02*
D03*
X266500Y365500D02*
D03*
X316000Y373500D02*
D03*
X344500Y391500D02*
D03*
X349000D02*
D03*
X320500Y373500D02*
D03*
X256500Y387500D02*
D03*
X266500Y361500D02*
D03*
X240500Y373000D02*
D03*
X185500Y362000D02*
D03*
X173000Y397000D02*
D03*
X352500Y366000D02*
D03*
Y361500D02*
D03*
X401500Y372500D02*
D03*
X406000D02*
D03*
X395000Y276000D02*
D03*
X399000D02*
D03*
X355000D02*
D03*
X359000D02*
D03*
X314500D02*
D03*
X318500D02*
D03*
X275000D02*
D03*
X235000Y276500D02*
D03*
X239000D02*
D03*
X194500Y276000D02*
D03*
X199000D02*
D03*
X155000D02*
D03*
X159000D02*
D03*
X128000Y280000D02*
D03*
X124000D02*
D03*
X435000Y276000D02*
D03*
X439000D02*
D03*
X279000D02*
D03*
M02*
