G04 Layer_Color=65535*
%FSLAX25Y25*%
%MOIN*%
G70*
G01*
G75*
%ADD31C,0.00984*%
%ADD32C,0.00500*%
%ADD33C,0.00787*%
%ADD34C,0.01000*%
G36*
X139325Y411506D02*
X141500D01*
Y410592D01*
X139325D01*
Y408417D01*
X138399D01*
Y410592D01*
X136224D01*
Y411506D01*
X138399D01*
Y413704D01*
X139325D01*
Y411506D01*
D02*
G37*
D31*
X373992Y391347D02*
G03*
X373992Y391347I-492J0D01*
G01*
X286992D02*
G03*
X286992Y391347I-492J0D01*
G01*
X206992D02*
G03*
X206992Y391347I-492J0D01*
G01*
X409392Y284600D02*
G03*
X409392Y284600I-492J0D01*
G01*
X369392D02*
G03*
X369392Y284600I-492J0D01*
G01*
X329392D02*
G03*
X329392Y284600I-492J0D01*
G01*
X289392D02*
G03*
X289392Y284600I-492J0D01*
G01*
X249392D02*
G03*
X249392Y284600I-492J0D01*
G01*
X209392D02*
G03*
X209392Y284600I-492J0D01*
G01*
X169392D02*
G03*
X169392Y284600I-492J0D01*
G01*
X129392D02*
G03*
X129392Y284600I-492J0D01*
G01*
D32*
X146500Y404000D02*
G03*
X146500Y404000I-12500J0D01*
G01*
X346500Y387500D02*
X354500D01*
X346500Y373500D02*
X354500D01*
X346500D02*
Y387500D01*
X354500Y373500D02*
Y387500D01*
X398949Y398001D02*
X408949D01*
X398949Y378000D02*
X408949D01*
X398949D02*
Y398001D01*
X408949Y378000D02*
Y398001D01*
X398949Y347999D02*
X408949D01*
X398949Y368000D02*
X408949D01*
Y347999D02*
Y368000D01*
X398949Y347999D02*
Y368000D01*
X356949Y347999D02*
X366949D01*
X356949Y368000D02*
X366949D01*
Y347999D02*
Y368000D01*
X356949Y347999D02*
Y368000D01*
Y398001D02*
X366949D01*
X356949Y378000D02*
X366949D01*
X356949D02*
Y398001D01*
X366949Y378000D02*
Y398001D01*
X311949D02*
X321949D01*
X311949Y378000D02*
X321949D01*
X311949D02*
Y398001D01*
X321949Y378000D02*
Y398001D01*
X311949Y347999D02*
X321949D01*
X311949Y368000D02*
X321949D01*
Y347999D02*
Y368000D01*
X311949Y347999D02*
Y368000D01*
X269949Y347999D02*
X279949D01*
X269949Y368000D02*
X279949D01*
Y347999D02*
Y368000D01*
X269949Y347999D02*
Y368000D01*
Y398001D02*
X279949D01*
X269949Y378000D02*
X279949D01*
X269949D02*
Y398001D01*
X279949Y378000D02*
Y398001D01*
X260000Y387500D02*
X268000D01*
X260000Y373500D02*
X268000D01*
X260000D02*
Y387500D01*
X268000Y373500D02*
Y387500D01*
X180000Y386000D02*
X188000D01*
X180000Y372000D02*
X188000D01*
X180000D02*
Y386000D01*
X188000Y372000D02*
Y386000D01*
X231949Y398001D02*
X241949D01*
X231949Y378000D02*
X241949D01*
X231949D02*
Y398001D01*
X241949Y378000D02*
Y398001D01*
X231949Y347999D02*
X241949D01*
X231949Y368000D02*
X241949D01*
Y347999D02*
Y368000D01*
X231949Y347999D02*
Y368000D01*
X189949Y398001D02*
X199949D01*
X189949Y378000D02*
X199949D01*
X189949D02*
Y398001D01*
X199949Y378000D02*
Y398001D01*
X189949Y347999D02*
X199949D01*
X189949Y368000D02*
X199949D01*
Y347999D02*
Y368000D01*
X189949Y347999D02*
Y368000D01*
X433850Y304638D02*
Y319598D01*
X440150Y304638D02*
Y319598D01*
X433850D02*
X440150D01*
X433850Y304638D02*
X440150D01*
X441000Y290000D02*
Y304000D01*
X433000Y290000D02*
Y304000D01*
Y290000D02*
X441000D01*
X433000Y304000D02*
X441000D01*
X393850Y304638D02*
Y319598D01*
X400150Y304638D02*
Y319598D01*
X393850D02*
X400150D01*
X393850Y304638D02*
X400150D01*
X401000Y290000D02*
Y304000D01*
X393000Y290000D02*
Y304000D01*
Y290000D02*
X401000D01*
X393000Y304000D02*
X401000D01*
X393000Y276000D02*
X401000D01*
X393000Y290000D02*
X401000D01*
Y276000D02*
Y290000D01*
X393000Y276000D02*
Y290000D01*
X353850Y304638D02*
Y319598D01*
X360150Y304638D02*
Y319598D01*
X353850D02*
X360150D01*
X353850Y304638D02*
X360150D01*
X361000Y290000D02*
Y304000D01*
X353000Y290000D02*
Y304000D01*
Y290000D02*
X361000D01*
X353000Y304000D02*
X361000D01*
X353000Y276000D02*
X361000D01*
X353000Y290000D02*
X361000D01*
Y276000D02*
Y290000D01*
X353000Y276000D02*
Y290000D01*
X313850Y304638D02*
Y319598D01*
X320150Y304638D02*
Y319598D01*
X313850D02*
X320150D01*
X313850Y304638D02*
X320150D01*
X321000Y290000D02*
Y304000D01*
X313000Y290000D02*
Y304000D01*
Y290000D02*
X321000D01*
X313000Y304000D02*
X321000D01*
X313000Y276000D02*
X321000D01*
X313000Y290000D02*
X321000D01*
Y276000D02*
Y290000D01*
X313000Y276000D02*
Y290000D01*
X273850Y304638D02*
Y319598D01*
X280150Y304638D02*
Y319598D01*
X273850D02*
X280150D01*
X273850Y304638D02*
X280150D01*
X281000Y290000D02*
Y304000D01*
X273000Y290000D02*
Y304000D01*
Y290000D02*
X281000D01*
X273000Y304000D02*
X281000D01*
X273000Y276000D02*
X281000D01*
X273000Y290000D02*
X281000D01*
Y276000D02*
Y290000D01*
X273000Y276000D02*
Y290000D01*
X233850Y304638D02*
Y319598D01*
X240150Y304638D02*
Y319598D01*
X233850D02*
X240150D01*
X233850Y304638D02*
X240150D01*
X193850D02*
Y319598D01*
X200150Y304638D02*
Y319598D01*
X193850D02*
X200150D01*
X193850Y304638D02*
X200150D01*
X201000Y290000D02*
Y304000D01*
X193000Y290000D02*
Y304000D01*
Y290000D02*
X201000D01*
X193000Y304000D02*
X201000D01*
X241000Y290000D02*
Y304000D01*
X233000Y290000D02*
Y304000D01*
Y290000D02*
X241000D01*
X233000Y304000D02*
X241000D01*
X233000Y276000D02*
X241000D01*
X233000Y290000D02*
X241000D01*
Y276000D02*
Y290000D01*
X233000Y276000D02*
Y290000D01*
X433000Y276000D02*
X441000D01*
X433000Y290000D02*
X441000D01*
Y276000D02*
Y290000D01*
X433000Y276000D02*
Y290000D01*
X154000Y411000D02*
X162000D01*
X154000Y397000D02*
X162000D01*
X154000D02*
Y411000D01*
X162000Y397000D02*
Y411000D01*
X130764Y377701D02*
X151236D01*
X130764D02*
Y390299D01*
X151236D01*
Y377701D02*
Y390299D01*
X146906Y377307D02*
Y377701D01*
Y377307D02*
X151630D01*
Y390693D01*
X146906D02*
X151630D01*
X146906Y390299D02*
Y390693D01*
X161000Y290000D02*
Y304000D01*
X153000Y290000D02*
Y304000D01*
Y290000D02*
X161000D01*
X153000Y304000D02*
X161000D01*
X153850Y304638D02*
Y319598D01*
X160150Y304638D02*
Y319598D01*
X153850D02*
X160150D01*
X153850Y304638D02*
X160150D01*
X429000Y268000D02*
Y276000D01*
X415000Y268000D02*
Y276000D01*
X429000D01*
X415000Y268000D02*
X429000D01*
X389000D02*
Y276000D01*
X375000Y268000D02*
Y276000D01*
X389000D01*
X375000Y268000D02*
X389000D01*
X349000D02*
Y276000D01*
X335000Y268000D02*
Y276000D01*
X349000D01*
X335000Y268000D02*
X349000D01*
X309000D02*
Y276000D01*
X295000Y268000D02*
Y276000D01*
X309000D01*
X295000Y268000D02*
X309000D01*
X269000D02*
Y276000D01*
X255000Y268000D02*
Y276000D01*
X269000D01*
X255000Y268000D02*
X269000D01*
X229000D02*
Y276000D01*
X215000Y268000D02*
Y276000D01*
X229000D01*
X215000Y268000D02*
X229000D01*
X189000D02*
Y276000D01*
X175000Y268000D02*
Y276000D01*
X189000D01*
X175000Y268000D02*
X189000D01*
X193000Y276000D02*
X201000D01*
X193000Y290000D02*
X201000D01*
Y276000D02*
Y290000D01*
X193000Y276000D02*
Y290000D01*
X153000Y276000D02*
X161000D01*
X153000Y290000D02*
X161000D01*
Y276000D02*
Y290000D01*
X153000Y276000D02*
Y290000D01*
X149000Y268000D02*
Y276000D01*
X135000Y268000D02*
Y276000D01*
X149000D01*
X135000Y268000D02*
X149000D01*
X122339Y363701D02*
X139661D01*
X122339D02*
Y376299D01*
X139661D01*
Y363701D02*
Y376299D01*
X122764Y362299D02*
X143236D01*
Y349701D02*
Y362299D01*
X122764Y349701D02*
X143236D01*
X122764D02*
Y362299D01*
X127094D02*
Y362693D01*
X122370D02*
X127094D01*
X122370Y349307D02*
Y362693D01*
Y349307D02*
X127094D01*
Y349701D01*
X123000Y307000D02*
X137000D01*
X123000Y315000D02*
X137000D01*
X123000Y307000D02*
Y315000D01*
X137000Y307000D02*
Y315000D01*
X125402Y315850D02*
X140362D01*
X125402Y322150D02*
X140362D01*
X125402Y315850D02*
Y322150D01*
X140362Y315850D02*
Y322150D01*
X146000Y424000D02*
Y454000D01*
X122000Y424000D02*
Y454000D01*
X146000D01*
X122000Y424000D02*
X146000D01*
X170000D02*
Y454000D01*
X146000Y424000D02*
Y454000D01*
X170000D01*
X146000Y424000D02*
X170000D01*
X194000D02*
Y454000D01*
X170000Y424000D02*
Y454000D01*
X194000D01*
X170000Y424000D02*
X194000D01*
X218000D02*
Y454000D01*
X194000Y424000D02*
Y454000D01*
X218000D01*
X194000Y424000D02*
X218000D01*
X242000D02*
Y454000D01*
X218000Y424000D02*
Y454000D01*
X242000D01*
X218000Y424000D02*
X242000D01*
X266000D02*
Y454000D01*
X242000Y424000D02*
Y454000D01*
X266000D01*
X242000Y424000D02*
X266000D01*
X290000D02*
Y454000D01*
X266000Y424000D02*
Y454000D01*
X290000D01*
X266000Y424000D02*
X290000D01*
X314000D02*
Y454000D01*
X290000Y424000D02*
Y454000D01*
X314000D01*
X290000Y424000D02*
X314000D01*
X338000D02*
Y454000D01*
X314000Y424000D02*
Y454000D01*
X338000D01*
X314000Y424000D02*
X338000D01*
X362000D02*
Y454000D01*
X338000Y424000D02*
Y454000D01*
X362000D01*
X338000Y424000D02*
X362000D01*
X386000D02*
Y454000D01*
X362000Y424000D02*
Y454000D01*
X386000D01*
X362000Y424000D02*
X386000D01*
X410000D02*
Y454000D01*
X386000Y424000D02*
Y454000D01*
X410000D01*
X386000Y424000D02*
X410000D01*
X434000D02*
Y454000D01*
X410000Y424000D02*
Y454000D01*
X434000D01*
X410000Y424000D02*
X434000D01*
X122000Y267000D02*
X123000D01*
X122000Y240000D02*
Y262000D01*
X162000Y240000D02*
Y262000D01*
X122000Y235000D02*
Y267000D01*
X162000Y235000D02*
Y267000D01*
X122000Y235000D02*
X162000D01*
X122000Y267000D02*
X162000D01*
X163000D01*
X162000Y240000D02*
Y262000D01*
X202000Y240000D02*
Y262000D01*
X162000Y235000D02*
Y267000D01*
X202000Y235000D02*
Y267000D01*
X162000Y235000D02*
X202000D01*
X162000Y267000D02*
X202000D01*
X203000D01*
X202000Y240000D02*
Y262000D01*
X242000Y240000D02*
Y262000D01*
X202000Y235000D02*
Y267000D01*
X242000Y235000D02*
Y267000D01*
X202000Y235000D02*
X242000D01*
X202000Y267000D02*
X242000D01*
X243000D01*
X242000Y240000D02*
Y262000D01*
X282000Y240000D02*
Y262000D01*
X242000Y235000D02*
Y267000D01*
X282000Y235000D02*
Y267000D01*
X242000Y235000D02*
X282000D01*
X242000Y267000D02*
X282000D01*
X283000D01*
X282000Y240000D02*
Y262000D01*
X322000Y240000D02*
Y262000D01*
X282000Y235000D02*
Y267000D01*
X322000Y235000D02*
Y267000D01*
X282000Y235000D02*
X322000D01*
X282000Y267000D02*
X322000D01*
X323000D01*
X322000Y240000D02*
Y262000D01*
X362000Y240000D02*
Y262000D01*
X322000Y235000D02*
Y267000D01*
X362000Y235000D02*
Y267000D01*
X322000Y235000D02*
X362000D01*
X322000Y267000D02*
X362000D01*
X363000D01*
X362000Y240000D02*
Y262000D01*
X402000Y240000D02*
Y262000D01*
X362000Y235000D02*
Y267000D01*
X402000Y235000D02*
Y267000D01*
X362000Y235000D02*
X402000D01*
X362000Y267000D02*
X402000D01*
X403000D01*
X402000Y240000D02*
Y262000D01*
X442000Y240000D02*
Y262000D01*
X402000Y235000D02*
Y267000D01*
X442000Y235000D02*
Y267000D01*
X402000Y235000D02*
X442000D01*
X402000Y267000D02*
X442000D01*
X122000Y348000D02*
X152000D01*
X122000Y324000D02*
X152000D01*
X122000D02*
Y348000D01*
X152000Y324000D02*
Y348000D01*
D33*
X379405Y355677D02*
X386492D01*
X379405Y390323D02*
X386492D01*
Y355677D02*
Y390323D01*
X379405Y355677D02*
Y390323D01*
X292406Y355677D02*
X299492D01*
X292406Y390323D02*
X299492D01*
Y355677D02*
Y390323D01*
X292406Y355677D02*
Y390323D01*
X212405Y355677D02*
X219492D01*
X212405Y390323D02*
X219492D01*
Y355677D02*
Y390323D01*
X212405Y355677D02*
Y390323D01*
X431843Y287457D02*
Y294543D01*
X412157Y287457D02*
Y294543D01*
X431843D01*
X412157Y287457D02*
X431843D01*
X391843D02*
Y294543D01*
X372158Y287457D02*
Y294543D01*
X391843D01*
X372158Y287457D02*
X391843D01*
X351842D02*
Y294543D01*
X332157Y287457D02*
Y294543D01*
X351842D01*
X332157Y287457D02*
X351842D01*
X311842D02*
Y294543D01*
X292158Y287457D02*
Y294543D01*
X311842D01*
X292158Y287457D02*
X311842D01*
X271843D02*
Y294543D01*
X252157Y287457D02*
Y294543D01*
X271843D01*
X252157Y287457D02*
X271843D01*
X231842D02*
Y294543D01*
X212158Y287457D02*
Y294543D01*
X231842D01*
X212158Y287457D02*
X231842D01*
X191842D02*
Y294543D01*
X172158Y287457D02*
Y294543D01*
X191842D01*
X172158Y287457D02*
X191842D01*
X151842D02*
Y294543D01*
X132158Y287457D02*
Y294543D01*
X151842D01*
X132158Y287457D02*
X151842D01*
D34*
X155500Y412500D02*
Y422500D01*
Y412500D02*
X160500Y417500D01*
X155500Y422500D02*
X160500Y417500D01*
Y422500D01*
Y412500D02*
Y417500D01*
X165500D01*
X150500D02*
X155500D01*
X174500D02*
X179500D01*
X184500D02*
X189500D01*
X184500Y412500D02*
Y417500D01*
Y422500D01*
X179500D02*
X184500Y417500D01*
X179500Y412500D02*
X184500Y417500D01*
X179500Y412500D02*
Y422500D01*
X198500Y417500D02*
X203500D01*
X208500D02*
X213500D01*
X208500Y412500D02*
Y417500D01*
Y422500D01*
X203500D02*
X208500Y417500D01*
X203500Y412500D02*
X208500Y417500D01*
X203500Y412500D02*
Y422500D01*
X222500Y417500D02*
X227500D01*
X232500D02*
X237500D01*
X232500Y412500D02*
Y417500D01*
Y422500D01*
X227500D02*
X232500Y417500D01*
X227500Y412500D02*
X232500Y417500D01*
X227500Y412500D02*
Y422500D01*
X246500Y417500D02*
X251500D01*
X256500D02*
X261500D01*
X256500Y412500D02*
Y417500D01*
Y422500D01*
X251500D02*
X256500Y417500D01*
X251500Y412500D02*
X256500Y417500D01*
X251500Y412500D02*
Y422500D01*
X270500Y417500D02*
X275500D01*
X280500D02*
X285500D01*
X280500Y412500D02*
Y417500D01*
Y422500D01*
X275500D02*
X280500Y417500D01*
X275500Y412500D02*
X280500Y417500D01*
X275500Y412500D02*
Y422500D01*
X294500Y417500D02*
X299500D01*
X304500D02*
X309500D01*
X304500Y412500D02*
Y417500D01*
Y422500D01*
X299500D02*
X304500Y417500D01*
X299500Y412500D02*
X304500Y417500D01*
X299500Y412500D02*
Y422500D01*
X318500Y417500D02*
X323500D01*
X328500D02*
X333500D01*
X328500Y412500D02*
Y417500D01*
Y422500D01*
X323500D02*
X328500Y417500D01*
X323500Y412500D02*
X328500Y417500D01*
X323500Y412500D02*
Y422500D01*
X342500Y417500D02*
X347500D01*
X352500D02*
X357500D01*
X352500Y412500D02*
Y417500D01*
Y422500D01*
X347500D02*
X352500Y417500D01*
X347500Y412500D02*
X352500Y417500D01*
X347500Y412500D02*
Y422500D01*
X366500Y417500D02*
X371500D01*
X376500D02*
X381500D01*
X376500Y412500D02*
Y417500D01*
Y422500D01*
X371500D02*
X376500Y417500D01*
X371500Y412500D02*
X376500Y417500D01*
X371500Y412500D02*
Y422500D01*
X390500Y417500D02*
X395500D01*
X400500D02*
X405500D01*
X400500Y412500D02*
Y417500D01*
Y422500D01*
X395500D02*
X400500Y417500D01*
X395500Y412500D02*
X400500Y417500D01*
X395500Y412500D02*
Y422500D01*
X414500Y417500D02*
X419500D01*
X424500D02*
X429500D01*
X424500Y412500D02*
Y417500D01*
Y422500D01*
X419500D02*
X424500Y417500D01*
X419500Y412500D02*
X424500Y417500D01*
X419500Y412500D02*
Y422500D01*
X269949Y400000D02*
Y405998D01*
X272948D01*
X273948Y404998D01*
Y402999D01*
X272948Y401999D01*
X269949D01*
X271948D02*
X273948Y400000D01*
X279946Y405998D02*
X275947D01*
Y402999D01*
X277946Y403999D01*
X278946D01*
X279946Y402999D01*
Y401000D01*
X278946Y400000D01*
X276947D01*
X275947Y401000D01*
X356949Y400000D02*
Y405998D01*
X359948D01*
X360947Y404998D01*
Y402999D01*
X359948Y401999D01*
X356949D01*
X358948D02*
X360947Y400000D01*
X362947Y401000D02*
X363947Y400000D01*
X365946D01*
X366946Y401000D01*
Y404998D01*
X365946Y405998D01*
X363947D01*
X362947Y404998D01*
Y403999D01*
X363947Y402999D01*
X366946D01*
X189949Y400000D02*
Y405998D01*
X192948D01*
X193948Y404998D01*
Y402999D01*
X192948Y401999D01*
X189949D01*
X191948D02*
X193948Y400000D01*
X195947D02*
X197946D01*
X196947D01*
Y405998D01*
X195947Y404998D01*
X269949Y340000D02*
Y345998D01*
X272948D01*
X273948Y344998D01*
Y342999D01*
X272948Y341999D01*
X269949D01*
X271948D02*
X273948Y340000D01*
X279946Y345998D02*
X277946Y344998D01*
X275947Y342999D01*
Y341000D01*
X276947Y340000D01*
X278946D01*
X279946Y341000D01*
Y341999D01*
X278946Y342999D01*
X275947D01*
X356949Y340000D02*
Y345998D01*
X359948D01*
X360947Y344998D01*
Y342999D01*
X359948Y341999D01*
X356949D01*
X358948D02*
X360947Y340000D01*
X362947D02*
X364946D01*
X363947D01*
Y345998D01*
X362947Y344998D01*
X367945D02*
X368945Y345998D01*
X370944D01*
X371944Y344998D01*
Y341000D01*
X370944Y340000D01*
X368945D01*
X367945Y341000D01*
Y344998D01*
X189949Y340000D02*
Y345998D01*
X192948D01*
X193948Y344998D01*
Y342999D01*
X192948Y341999D01*
X189949D01*
X191948D02*
X193948Y340000D01*
X199946D02*
X195947D01*
X199946Y343999D01*
Y344998D01*
X198946Y345998D01*
X196947D01*
X195947Y344998D01*
X398949Y340000D02*
Y345998D01*
X401948D01*
X402948Y344998D01*
Y342999D01*
X401948Y341999D01*
X398949D01*
X400948D02*
X402948Y340000D01*
X404947D02*
X406946D01*
X405947D01*
Y345998D01*
X404947Y344998D01*
X409945Y340000D02*
X411945D01*
X410945D01*
Y345998D01*
X409945Y344998D01*
X311949Y340000D02*
Y345998D01*
X314948D01*
X315948Y344998D01*
Y342999D01*
X314948Y341999D01*
X311949D01*
X313948D02*
X315948Y340000D01*
X317947Y345998D02*
X321946D01*
Y344998D01*
X317947Y341000D01*
Y340000D01*
X231949D02*
Y345998D01*
X234948D01*
X235947Y344998D01*
Y342999D01*
X234948Y341999D01*
X231949D01*
X233948D02*
X235947Y340000D01*
X237947Y344998D02*
X238947Y345998D01*
X240946D01*
X241946Y344998D01*
Y343999D01*
X240946Y342999D01*
X239946D01*
X240946D01*
X241946Y341999D01*
Y341000D01*
X240946Y340000D01*
X238947D01*
X237947Y341000D01*
X231949Y400000D02*
Y405998D01*
X234948D01*
X235947Y404998D01*
Y402999D01*
X234948Y401999D01*
X231949D01*
X233948D02*
X235947Y400000D01*
X240946D02*
Y405998D01*
X237947Y402999D01*
X241946D01*
X311949Y400000D02*
Y405998D01*
X314948D01*
X315948Y404998D01*
Y402999D01*
X314948Y401999D01*
X311949D01*
X313948D02*
X315948Y400000D01*
X317947Y404998D02*
X318947Y405998D01*
X320946D01*
X321946Y404998D01*
Y403999D01*
X320946Y402999D01*
X321946Y401999D01*
Y401000D01*
X320946Y400000D01*
X318947D01*
X317947Y401000D01*
Y401999D01*
X318947Y402999D01*
X317947Y403999D01*
Y404998D01*
X318947Y402999D02*
X320946D01*
X398949Y400000D02*
Y405998D01*
X401948D01*
X402948Y404998D01*
Y402999D01*
X401948Y401999D01*
X398949D01*
X400948D02*
X402948Y400000D01*
X404947D02*
X406946D01*
X405947D01*
Y405998D01*
X404947Y404998D01*
X413944Y400000D02*
X409945D01*
X413944Y403999D01*
Y404998D01*
X412944Y405998D01*
X410945D01*
X409945Y404998D01*
X211949Y397998D02*
Y393000D01*
X212948Y392000D01*
X214948D01*
X215948Y393000D01*
Y397998D01*
X217947Y392000D02*
X219946D01*
X218947D01*
Y397998D01*
X217947Y396998D01*
X290949Y398998D02*
Y394000D01*
X291949Y393000D01*
X293948D01*
X294948Y394000D01*
Y398998D01*
X300946Y393000D02*
X296947D01*
X300946Y396999D01*
Y397998D01*
X299946Y398998D01*
X297947D01*
X296947Y397998D01*
X377949Y398998D02*
Y394000D01*
X378948Y393000D01*
X380948D01*
X381947Y394000D01*
Y398998D01*
X383947Y397998D02*
X384947Y398998D01*
X386946D01*
X387946Y397998D01*
Y396999D01*
X386946Y395999D01*
X385946D01*
X386946D01*
X387946Y394999D01*
Y394000D01*
X386946Y393000D01*
X384947D01*
X383947Y394000D01*
X137000Y293998D02*
Y289000D01*
X138000Y288000D01*
X139999D01*
X140999Y289000D01*
Y293998D01*
X145997Y288000D02*
Y293998D01*
X142998Y290999D01*
X146997D01*
X297000Y293998D02*
Y289000D01*
X298000Y288000D01*
X299999D01*
X300999Y289000D01*
Y293998D01*
X302998Y292998D02*
X303998Y293998D01*
X305997D01*
X306997Y292998D01*
Y291999D01*
X305997Y290999D01*
X306997Y289999D01*
Y289000D01*
X305997Y288000D01*
X303998D01*
X302998Y289000D01*
Y289999D01*
X303998Y290999D01*
X302998Y291999D01*
Y292998D01*
X303998Y290999D02*
X305997D01*
X177000Y293998D02*
Y289000D01*
X178000Y288000D01*
X179999D01*
X180999Y289000D01*
Y293998D01*
X186997D02*
X182998D01*
Y290999D01*
X184997Y291999D01*
X185997D01*
X186997Y290999D01*
Y289000D01*
X185997Y288000D01*
X183998D01*
X182998Y289000D01*
X337000Y293998D02*
Y289000D01*
X338000Y288000D01*
X339999D01*
X340999Y289000D01*
Y293998D01*
X342998Y289000D02*
X343998Y288000D01*
X345997D01*
X346997Y289000D01*
Y292998D01*
X345997Y293998D01*
X343998D01*
X342998Y292998D01*
Y291999D01*
X343998Y290999D01*
X346997D01*
X217000Y293998D02*
Y289000D01*
X218000Y288000D01*
X219999D01*
X220999Y289000D01*
Y293998D01*
X226997D02*
X224997Y292998D01*
X222998Y290999D01*
Y289000D01*
X223998Y288000D01*
X225997D01*
X226997Y289000D01*
Y289999D01*
X225997Y290999D01*
X222998D01*
X375000Y293998D02*
Y289000D01*
X376000Y288000D01*
X377999D01*
X378999Y289000D01*
Y293998D01*
X380998Y288000D02*
X382997D01*
X381998D01*
Y293998D01*
X380998Y292998D01*
X385996D02*
X386996Y293998D01*
X388996D01*
X389995Y292998D01*
Y289000D01*
X388996Y288000D01*
X386996D01*
X385996Y289000D01*
Y292998D01*
X257000Y293998D02*
Y289000D01*
X258000Y288000D01*
X259999D01*
X260999Y289000D01*
Y293998D01*
X262998D02*
X266997D01*
Y292998D01*
X262998Y289000D01*
Y288000D01*
X416000Y293998D02*
Y289000D01*
X417000Y288000D01*
X418999D01*
X419999Y289000D01*
Y293998D01*
X421998Y288000D02*
X423997D01*
X422998D01*
Y293998D01*
X421998Y292998D01*
X426996Y288000D02*
X428996D01*
X427996D01*
Y293998D01*
X426996Y292998D01*
X142000Y372998D02*
Y368000D01*
X143000Y367000D01*
X144999D01*
X145999Y368000D01*
Y372998D01*
X147998Y367000D02*
X149997D01*
X148998D01*
Y372998D01*
X147998Y371998D01*
X156995Y367000D02*
X152996D01*
X156995Y370999D01*
Y371998D01*
X155996Y372998D01*
X153996D01*
X152996Y371998D01*
X185998Y392001D02*
X186998Y393001D01*
Y395000D01*
X185998Y396000D01*
X182000D01*
X181000Y395000D01*
Y393001D01*
X182000Y392001D01*
X181000Y390002D02*
Y388003D01*
Y389002D01*
X186998D01*
X185998Y390002D01*
X265998Y395501D02*
X266998Y396501D01*
Y398500D01*
X265998Y399500D01*
X262000D01*
X261000Y398500D01*
Y396501D01*
X262000Y395501D01*
X261000Y389503D02*
Y393502D01*
X264999Y389503D01*
X265998D01*
X266998Y390503D01*
Y392502D01*
X265998Y393502D01*
X338499Y382498D02*
X337499Y383498D01*
X335500D01*
X334500Y382498D01*
Y378500D01*
X335500Y377500D01*
X337499D01*
X338499Y378500D01*
X340498Y382498D02*
X341498Y383498D01*
X343497D01*
X344497Y382498D01*
Y381499D01*
X343497Y380499D01*
X342497D01*
X343497D01*
X344497Y379499D01*
Y378500D01*
X343497Y377500D01*
X341498D01*
X340498Y378500D01*
X121002Y386499D02*
X120002Y385499D01*
Y383500D01*
X121002Y382500D01*
X125000D01*
X126000Y383500D01*
Y385499D01*
X125000Y386499D01*
X126000Y391497D02*
X120002D01*
X123001Y388498D01*
Y392497D01*
X158499Y385998D02*
X157499Y386998D01*
X155500D01*
X154500Y385998D01*
Y382000D01*
X155500Y381000D01*
X157499D01*
X158499Y382000D01*
X164497Y386998D02*
X160498D01*
Y383999D01*
X162497Y384999D01*
X163497D01*
X164497Y383999D01*
Y382000D01*
X163497Y381000D01*
X161498D01*
X160498Y382000D01*
X168499Y406498D02*
X167499Y407498D01*
X165500D01*
X164500Y406498D01*
Y402500D01*
X165500Y401500D01*
X167499D01*
X168499Y402500D01*
X174497Y407498D02*
X172497Y406498D01*
X170498Y404499D01*
Y402500D01*
X171498Y401500D01*
X173497D01*
X174497Y402500D01*
Y403499D01*
X173497Y404499D01*
X170498D01*
X126999Y273998D02*
X125999Y274998D01*
X124000D01*
X123000Y273998D01*
Y270000D01*
X124000Y269000D01*
X125999D01*
X126999Y270000D01*
X128998Y274998D02*
X132997D01*
Y273998D01*
X128998Y270000D01*
Y269000D01*
X166999Y273998D02*
X165999Y274998D01*
X164000D01*
X163000Y273998D01*
Y270000D01*
X164000Y269000D01*
X165999D01*
X166999Y270000D01*
X168998Y273998D02*
X169998Y274998D01*
X171997D01*
X172997Y273998D01*
Y272999D01*
X171997Y271999D01*
X172997Y270999D01*
Y270000D01*
X171997Y269000D01*
X169998D01*
X168998Y270000D01*
Y270999D01*
X169998Y271999D01*
X168998Y272999D01*
Y273998D01*
X169998Y271999D02*
X171997D01*
X206999Y273998D02*
X205999Y274998D01*
X204000D01*
X203000Y273998D01*
Y270000D01*
X204000Y269000D01*
X205999D01*
X206999Y270000D01*
X208998D02*
X209998Y269000D01*
X211997D01*
X212997Y270000D01*
Y273998D01*
X211997Y274998D01*
X209998D01*
X208998Y273998D01*
Y272999D01*
X209998Y271999D01*
X212997D01*
X241999Y273998D02*
X240999Y274998D01*
X239000D01*
X238000Y273998D01*
Y270000D01*
X239000Y269000D01*
X240999D01*
X241999Y270000D01*
X243998Y269000D02*
X245997D01*
X244998D01*
Y274998D01*
X243998Y273998D01*
X248996D02*
X249996Y274998D01*
X251995D01*
X252995Y273998D01*
Y270000D01*
X251995Y269000D01*
X249996D01*
X248996Y270000D01*
Y273998D01*
X283999D02*
X282999Y274998D01*
X281000D01*
X280000Y273998D01*
Y270000D01*
X281000Y269000D01*
X282999D01*
X283999Y270000D01*
X285998Y269000D02*
X287997D01*
X286998D01*
Y274998D01*
X285998Y273998D01*
X290996Y269000D02*
X292996D01*
X291996D01*
Y274998D01*
X290996Y273998D01*
X321999D02*
X320999Y274998D01*
X319000D01*
X318000Y273998D01*
Y270000D01*
X319000Y269000D01*
X320999D01*
X321999Y270000D01*
X323998Y269000D02*
X325997D01*
X324998D01*
Y274998D01*
X323998Y273998D01*
X332995Y269000D02*
X328996D01*
X332995Y272999D01*
Y273998D01*
X331996Y274998D01*
X329996D01*
X328996Y273998D01*
X361999D02*
X360999Y274998D01*
X359000D01*
X358000Y273998D01*
Y270000D01*
X359000Y269000D01*
X360999D01*
X361999Y270000D01*
X363998Y269000D02*
X365997D01*
X364998D01*
Y274998D01*
X363998Y273998D01*
X368996D02*
X369996Y274998D01*
X371995D01*
X372995Y273998D01*
Y272999D01*
X371995Y271999D01*
X370996D01*
X371995D01*
X372995Y270999D01*
Y270000D01*
X371995Y269000D01*
X369996D01*
X368996Y270000D01*
X401999Y273998D02*
X400999Y274998D01*
X399000D01*
X398000Y273998D01*
Y270000D01*
X399000Y269000D01*
X400999D01*
X401999Y270000D01*
X403998Y269000D02*
X405997D01*
X404998D01*
Y274998D01*
X403998Y273998D01*
X411996Y269000D02*
Y274998D01*
X408996Y271999D01*
X412995D01*
X164002Y280999D02*
X163002Y279999D01*
Y278000D01*
X164002Y277000D01*
X168000D01*
X169000Y278000D01*
Y279999D01*
X168000Y280999D01*
X169000Y282998D02*
Y284997D01*
Y283998D01*
X163002D01*
X164002Y282998D01*
X163002Y291995D02*
Y287996D01*
X166001D01*
X165001Y289996D01*
Y290996D01*
X166001Y291995D01*
X168000D01*
X169000Y290996D01*
Y288996D01*
X168000Y287996D01*
X204002Y280999D02*
X203002Y279999D01*
Y278000D01*
X204002Y277000D01*
X208000D01*
X209000Y278000D01*
Y279999D01*
X208000Y280999D01*
X209000Y282998D02*
Y284997D01*
Y283998D01*
X203002D01*
X204002Y282998D01*
X203002Y291995D02*
X204002Y289996D01*
X206001Y287996D01*
X208000D01*
X209000Y288996D01*
Y290996D01*
X208000Y291995D01*
X207001D01*
X206001Y290996D01*
Y287996D01*
X244002Y280999D02*
X243002Y279999D01*
Y278000D01*
X244002Y277000D01*
X248000D01*
X249000Y278000D01*
Y279999D01*
X248000Y280999D01*
X249000Y282998D02*
Y284997D01*
Y283998D01*
X243002D01*
X244002Y282998D01*
X243002Y287996D02*
Y291995D01*
X244002D01*
X248000Y287996D01*
X249000D01*
X284002Y280999D02*
X283002Y279999D01*
Y278000D01*
X284002Y277000D01*
X288000D01*
X289000Y278000D01*
Y279999D01*
X288000Y280999D01*
X289000Y282998D02*
Y284997D01*
Y283998D01*
X283002D01*
X284002Y282998D01*
Y287996D02*
X283002Y288996D01*
Y290996D01*
X284002Y291995D01*
X285001D01*
X286001Y290996D01*
X287001Y291995D01*
X288000D01*
X289000Y290996D01*
Y288996D01*
X288000Y287996D01*
X287001D01*
X286001Y288996D01*
X285001Y287996D01*
X284002D01*
X286001Y288996D02*
Y290996D01*
X324002Y280999D02*
X323002Y279999D01*
Y278000D01*
X324002Y277000D01*
X328000D01*
X329000Y278000D01*
Y279999D01*
X328000Y280999D01*
X329000Y282998D02*
Y284997D01*
Y283998D01*
X323002D01*
X324002Y282998D01*
X328000Y287996D02*
X329000Y288996D01*
Y290996D01*
X328000Y291995D01*
X324002D01*
X323002Y290996D01*
Y288996D01*
X324002Y287996D01*
X325001D01*
X326001Y288996D01*
Y291995D01*
X364002Y280999D02*
X363002Y279999D01*
Y278000D01*
X364002Y277000D01*
X368000D01*
X369000Y278000D01*
Y279999D01*
X368000Y280999D01*
X369000Y286997D02*
Y282998D01*
X365001Y286997D01*
X364002D01*
X363002Y285997D01*
Y283998D01*
X364002Y282998D01*
Y288996D02*
X363002Y289996D01*
Y291995D01*
X364002Y292995D01*
X368000D01*
X369000Y291995D01*
Y289996D01*
X368000Y288996D01*
X364002D01*
X404002Y280999D02*
X403002Y279999D01*
Y278000D01*
X404002Y277000D01*
X408000D01*
X409000Y278000D01*
Y279999D01*
X408000Y280999D01*
X409000Y286997D02*
Y282998D01*
X405001Y286997D01*
X404002D01*
X403002Y285997D01*
Y283998D01*
X404002Y282998D01*
X409000Y288996D02*
Y290996D01*
Y289996D01*
X403002D01*
X404002Y288996D01*
X443502Y280999D02*
X442502Y279999D01*
Y278000D01*
X443502Y277000D01*
X447500D01*
X448500Y278000D01*
Y279999D01*
X447500Y280999D01*
X448500Y286997D02*
Y282998D01*
X444501Y286997D01*
X443502D01*
X442502Y285997D01*
Y283998D01*
X443502Y282998D01*
X448500Y292995D02*
Y288996D01*
X444501Y292995D01*
X443502D01*
X442502Y291995D01*
Y289996D01*
X443502Y288996D01*
X149499Y358498D02*
X148499Y359498D01*
X146500D01*
X145500Y358498D01*
Y354500D01*
X146500Y353500D01*
X148499D01*
X149499Y354500D01*
X155497Y353500D02*
X151498D01*
X155497Y357499D01*
Y358498D01*
X154497Y359498D01*
X152498D01*
X151498Y358498D01*
X157496D02*
X158496Y359498D01*
X160495D01*
X161495Y358498D01*
Y357499D01*
X160495Y356499D01*
X159495D01*
X160495D01*
X161495Y355499D01*
Y354500D01*
X160495Y353500D01*
X158496D01*
X157496Y354500D01*
X142000Y321998D02*
Y316000D01*
X144999D01*
X145999Y317000D01*
Y320998D01*
X144999Y321998D01*
X142000D01*
X147998Y316000D02*
X149997D01*
X148998D01*
Y321998D01*
X147998Y320998D01*
X162000Y319498D02*
Y313500D01*
X164999D01*
X165999Y314500D01*
Y318498D01*
X164999Y319498D01*
X162000D01*
X171997Y313500D02*
X167998D01*
X171997Y317499D01*
Y318498D01*
X170997Y319498D01*
X168998D01*
X167998Y318498D01*
X194000Y327234D02*
Y321236D01*
X196999D01*
X197999Y322236D01*
Y326235D01*
X196999Y327234D01*
X194000D01*
X199998Y326235D02*
X200998Y327234D01*
X202997D01*
X203997Y326235D01*
Y325235D01*
X202997Y324235D01*
X201998D01*
X202997D01*
X203997Y323236D01*
Y322236D01*
X202997Y321236D01*
X200998D01*
X199998Y322236D01*
X234000Y326998D02*
Y321000D01*
X236999D01*
X237999Y322000D01*
Y325998D01*
X236999Y326998D01*
X234000D01*
X242997Y321000D02*
Y326998D01*
X239998Y323999D01*
X243997D01*
X274000Y326998D02*
Y321000D01*
X276999D01*
X277999Y322000D01*
Y325998D01*
X276999Y326998D01*
X274000D01*
X283997D02*
X279998D01*
Y323999D01*
X281997Y324999D01*
X282997D01*
X283997Y323999D01*
Y322000D01*
X282997Y321000D01*
X280998D01*
X279998Y322000D01*
X314000Y326998D02*
Y321000D01*
X316999D01*
X317999Y322000D01*
Y325998D01*
X316999Y326998D01*
X314000D01*
X323997D02*
X321997Y325998D01*
X319998Y323999D01*
Y322000D01*
X320998Y321000D01*
X322997D01*
X323997Y322000D01*
Y322999D01*
X322997Y323999D01*
X319998D01*
X354000Y326998D02*
Y321000D01*
X356999D01*
X357999Y322000D01*
Y325998D01*
X356999Y326998D01*
X354000D01*
X359998D02*
X363997D01*
Y325998D01*
X359998Y322000D01*
Y321000D01*
X394000Y326998D02*
Y321000D01*
X396999D01*
X397999Y322000D01*
Y325998D01*
X396999Y326998D01*
X394000D01*
X399998Y325998D02*
X400998Y326998D01*
X402997D01*
X403997Y325998D01*
Y324999D01*
X402997Y323999D01*
X403997Y322999D01*
Y322000D01*
X402997Y321000D01*
X400998D01*
X399998Y322000D01*
Y322999D01*
X400998Y323999D01*
X399998Y324999D01*
Y325998D01*
X400998Y323999D02*
X402997D01*
X434000Y326998D02*
Y321000D01*
X436999D01*
X437999Y322000D01*
Y325998D01*
X436999Y326998D01*
X434000D01*
X439998Y322000D02*
X440998Y321000D01*
X442997D01*
X443997Y322000D01*
Y325998D01*
X442997Y326998D01*
X440998D01*
X439998Y325998D01*
Y324999D01*
X440998Y323999D01*
X443997D01*
X127000Y289500D02*
X121002D01*
Y292499D01*
X122002Y293499D01*
X124001D01*
X125001Y292499D01*
Y289500D01*
Y291499D02*
X127000Y293499D01*
Y299497D02*
Y295498D01*
X123001Y299497D01*
X122002D01*
X121002Y298497D01*
Y296498D01*
X122002Y295498D01*
X121002Y305495D02*
Y301496D01*
X124001D01*
X123001Y303496D01*
Y304495D01*
X124001Y305495D01*
X126000D01*
X127000Y304495D01*
Y302496D01*
X126000Y301496D01*
X169000Y294000D02*
X163002D01*
Y296999D01*
X164002Y297999D01*
X166001D01*
X167001Y296999D01*
Y294000D01*
Y295999D02*
X169000Y297999D01*
Y303997D02*
Y299998D01*
X165001Y303997D01*
X164002D01*
X163002Y302997D01*
Y300998D01*
X164002Y299998D01*
X163002Y309995D02*
X164002Y307996D01*
X166001Y305996D01*
X168000D01*
X169000Y306996D01*
Y308995D01*
X168000Y309995D01*
X167001D01*
X166001Y308995D01*
Y305996D01*
X209000Y298000D02*
X203002D01*
Y300999D01*
X204002Y301999D01*
X206001D01*
X207001Y300999D01*
Y298000D01*
Y299999D02*
X209000Y301999D01*
Y307997D02*
Y303998D01*
X205001Y307997D01*
X204002D01*
X203002Y306997D01*
Y304998D01*
X204002Y303998D01*
X203002Y309996D02*
Y313995D01*
X204002D01*
X208000Y309996D01*
X209000D01*
X249000Y298000D02*
X243002D01*
Y300999D01*
X244002Y301999D01*
X246001D01*
X247001Y300999D01*
Y298000D01*
Y299999D02*
X249000Y301999D01*
Y307997D02*
Y303998D01*
X245001Y307997D01*
X244002D01*
X243002Y306997D01*
Y304998D01*
X244002Y303998D01*
Y309996D02*
X243002Y310996D01*
Y312995D01*
X244002Y313995D01*
X245001D01*
X246001Y312995D01*
X247001Y313995D01*
X248000D01*
X249000Y312995D01*
Y310996D01*
X248000Y309996D01*
X247001D01*
X246001Y310996D01*
X245001Y309996D01*
X244002D01*
X246001Y310996D02*
Y312995D01*
X289000Y298000D02*
X283002D01*
Y300999D01*
X284002Y301999D01*
X286001D01*
X287001Y300999D01*
Y298000D01*
Y299999D02*
X289000Y301999D01*
Y307997D02*
Y303998D01*
X285001Y307997D01*
X284002D01*
X283002Y306997D01*
Y304998D01*
X284002Y303998D01*
X288000Y309996D02*
X289000Y310996D01*
Y312995D01*
X288000Y313995D01*
X284002D01*
X283002Y312995D01*
Y310996D01*
X284002Y309996D01*
X285001D01*
X286001Y310996D01*
Y313995D01*
X329000Y298000D02*
X323002D01*
Y300999D01*
X324002Y301999D01*
X326001D01*
X327001Y300999D01*
Y298000D01*
Y299999D02*
X329000Y301999D01*
X324002Y303998D02*
X323002Y304998D01*
Y306997D01*
X324002Y307997D01*
X325001D01*
X326001Y306997D01*
Y305997D01*
Y306997D01*
X327001Y307997D01*
X328000D01*
X329000Y306997D01*
Y304998D01*
X328000Y303998D01*
X324002Y309996D02*
X323002Y310996D01*
Y312995D01*
X324002Y313995D01*
X328000D01*
X329000Y312995D01*
Y310996D01*
X328000Y309996D01*
X324002D01*
X369000Y298000D02*
X363002D01*
Y300999D01*
X364002Y301999D01*
X366001D01*
X367001Y300999D01*
Y298000D01*
Y299999D02*
X369000Y301999D01*
X364002Y303998D02*
X363002Y304998D01*
Y306997D01*
X364002Y307997D01*
X365001D01*
X366001Y306997D01*
Y305997D01*
Y306997D01*
X367001Y307997D01*
X368000D01*
X369000Y306997D01*
Y304998D01*
X368000Y303998D01*
X369000Y309996D02*
Y311996D01*
Y310996D01*
X363002D01*
X364002Y309996D01*
X409000Y298000D02*
X403002D01*
Y300999D01*
X404002Y301999D01*
X406001D01*
X407001Y300999D01*
Y298000D01*
Y299999D02*
X409000Y301999D01*
X404002Y303998D02*
X403002Y304998D01*
Y306997D01*
X404002Y307997D01*
X405001D01*
X406001Y306997D01*
Y305997D01*
Y306997D01*
X407001Y307997D01*
X408000D01*
X409000Y306997D01*
Y304998D01*
X408000Y303998D01*
X409000Y313995D02*
Y309996D01*
X405001Y313995D01*
X404002D01*
X403002Y312995D01*
Y310996D01*
X404002Y309996D01*
X448500Y298000D02*
X442502D01*
Y300999D01*
X443502Y301999D01*
X445501D01*
X446501Y300999D01*
Y298000D01*
Y299999D02*
X448500Y301999D01*
X443502Y303998D02*
X442502Y304998D01*
Y306997D01*
X443502Y307997D01*
X444501D01*
X445501Y306997D01*
Y305997D01*
Y306997D01*
X446501Y307997D01*
X447500D01*
X448500Y306997D01*
Y304998D01*
X447500Y303998D01*
X443502Y309996D02*
X442502Y310996D01*
Y312995D01*
X443502Y313995D01*
X444501D01*
X445501Y312995D01*
Y311996D01*
Y312995D01*
X446501Y313995D01*
X447500D01*
X448500Y312995D01*
Y310996D01*
X447500Y309996D01*
X132000Y225998D02*
X135999D01*
X133999D01*
Y220000D01*
X141997Y224998D02*
X140997Y225998D01*
X138998D01*
X137998Y224998D01*
Y221000D01*
X138998Y220000D01*
X140997D01*
X141997Y221000D01*
X149994Y220000D02*
X151994D01*
X150994D01*
Y225998D01*
X149994Y224998D01*
X150000Y230999D02*
X153999D01*
X151999Y232998D02*
Y229000D01*
X130000Y230999D02*
X133999D01*
X170000D02*
X173999D01*
X190000D02*
X193999D01*
X191999Y232998D02*
Y229000D01*
X172000Y225998D02*
X175999D01*
X173999D01*
Y220000D01*
X181997Y224998D02*
X180997Y225998D01*
X178998D01*
X177998Y224998D01*
Y221000D01*
X178998Y220000D01*
X180997D01*
X181997Y221000D01*
X193993Y220000D02*
X189994D01*
X193993Y223999D01*
Y224998D01*
X192993Y225998D01*
X190994D01*
X189994Y224998D01*
X210000Y230999D02*
X213999D01*
X230000D02*
X233999D01*
X231999Y232998D02*
Y229000D01*
X212000Y225998D02*
X215999D01*
X213999D01*
Y220000D01*
X221997Y224998D02*
X220997Y225998D01*
X218998D01*
X217998Y224998D01*
Y221000D01*
X218998Y220000D01*
X220997D01*
X221997Y221000D01*
X229994Y224998D02*
X230994Y225998D01*
X232993D01*
X233993Y224998D01*
Y223999D01*
X232993Y222999D01*
X231994D01*
X232993D01*
X233993Y221999D01*
Y221000D01*
X232993Y220000D01*
X230994D01*
X229994Y221000D01*
X250000Y230999D02*
X253999D01*
X270000D02*
X273999D01*
X271999Y232998D02*
Y229000D01*
X252000Y225998D02*
X255999D01*
X253999D01*
Y220000D01*
X261997Y224998D02*
X260997Y225998D01*
X258998D01*
X257998Y224998D01*
Y221000D01*
X258998Y220000D01*
X260997D01*
X261997Y221000D01*
X272993Y220000D02*
Y225998D01*
X269994Y222999D01*
X273993D01*
X290000Y230999D02*
X293999D01*
X310000D02*
X313999D01*
X311999Y232998D02*
Y229000D01*
X292000Y225998D02*
X295999D01*
X293999D01*
Y220000D01*
X301997Y224998D02*
X300997Y225998D01*
X298998D01*
X297998Y224998D01*
Y221000D01*
X298998Y220000D01*
X300997D01*
X301997Y221000D01*
X313993Y225998D02*
X309994D01*
Y222999D01*
X311994Y223999D01*
X312993D01*
X313993Y222999D01*
Y221000D01*
X312993Y220000D01*
X310994D01*
X309994Y221000D01*
X330000Y230999D02*
X333999D01*
X350000D02*
X353999D01*
X351999Y232998D02*
Y229000D01*
X332000Y225998D02*
X335999D01*
X333999D01*
Y220000D01*
X341997Y224998D02*
X340997Y225998D01*
X338998D01*
X337998Y224998D01*
Y221000D01*
X338998Y220000D01*
X340997D01*
X341997Y221000D01*
X353993Y225998D02*
X351993Y224998D01*
X349994Y222999D01*
Y221000D01*
X350994Y220000D01*
X352993D01*
X353993Y221000D01*
Y221999D01*
X352993Y222999D01*
X349994D01*
X370000Y230999D02*
X373999D01*
X390000D02*
X393999D01*
X391999Y232998D02*
Y229000D01*
X372000Y225998D02*
X375999D01*
X373999D01*
Y220000D01*
X381997Y224998D02*
X380997Y225998D01*
X378998D01*
X377998Y224998D01*
Y221000D01*
X378998Y220000D01*
X380997D01*
X381997Y221000D01*
X389994Y225998D02*
X393993D01*
Y224998D01*
X389994Y221000D01*
Y220000D01*
X410000Y230999D02*
X413999D01*
X430000D02*
X433999D01*
X431999Y232998D02*
Y229000D01*
X412000Y225998D02*
X415999D01*
X413999D01*
Y220000D01*
X421997Y224998D02*
X420997Y225998D01*
X418998D01*
X417998Y224998D01*
Y221000D01*
X418998Y220000D01*
X420997D01*
X421997Y221000D01*
X429994Y224998D02*
X430994Y225998D01*
X432993D01*
X433993Y224998D01*
Y223999D01*
X432993Y222999D01*
X433993Y221999D01*
Y221000D01*
X432993Y220000D01*
X430994D01*
X429994Y221000D01*
Y221999D01*
X430994Y222999D01*
X429994Y223999D01*
Y224998D01*
X430994Y222999D02*
X432993D01*
X155000Y343998D02*
Y338000D01*
X157999D01*
X158999Y339000D01*
Y342998D01*
X157999Y343998D01*
X155000D01*
X163997D02*
X161998D01*
X160998Y342998D01*
Y339000D01*
X161998Y338000D01*
X163997D01*
X164997Y339000D01*
Y342998D01*
X163997Y343998D01*
X158999Y331998D02*
X157999Y332998D01*
X156000D01*
X155000Y331998D01*
Y330999D01*
X156000Y329999D01*
X157999D01*
X158999Y328999D01*
Y328000D01*
X157999Y327000D01*
X156000D01*
X155000Y328000D01*
X164997Y331998D02*
X163997Y332998D01*
X161998D01*
X160998Y331998D01*
Y328000D01*
X161998Y327000D01*
X163997D01*
X164997Y328000D01*
X166996Y332998D02*
Y327000D01*
Y328999D01*
X170995Y332998D01*
X167996Y329999D01*
X170995Y327000D01*
X139501Y456500D02*
Y460499D01*
X137502Y458499D02*
X141500D01*
X136502Y466497D02*
Y462498D01*
X139501D01*
X138501Y464497D01*
Y465497D01*
X139501Y466497D01*
X141500D01*
X142500Y465497D01*
Y463498D01*
X141500Y462498D01*
X136502Y468496D02*
X140501D01*
X142500Y470496D01*
X140501Y472495D01*
X136502D01*
X126002Y460999D02*
X125002Y459999D01*
Y458000D01*
X126002Y457000D01*
X130000D01*
X131000Y458000D01*
Y459999D01*
X130000Y460999D01*
X128001D01*
Y458999D01*
X131000Y462998D02*
X125002D01*
X131000Y466997D01*
X125002D01*
Y468996D02*
X131000D01*
Y471995D01*
X130000Y472995D01*
X126002D01*
X125002Y471995D01*
Y468996D01*
X151500Y455500D02*
X147259Y459741D01*
X149379Y461862D01*
X150793D01*
X152207Y460448D01*
Y459034D01*
X150086Y456914D01*
X151500Y463982D02*
X155741Y459741D01*
X157862Y461862D01*
Y463276D01*
X155034Y466103D01*
X153621D01*
X151500Y463982D01*
X156448Y467517D02*
Y468931D01*
X157862Y470344D01*
X159276D01*
X162103Y467517D01*
Y466103D01*
X160689Y464689D01*
X159276D01*
X156448Y467517D01*
X164224Y468224D02*
X165638Y469638D01*
X164931Y468931D01*
X160689Y473172D01*
Y471758D01*
X175500Y455500D02*
X171259Y459741D01*
X173379Y461862D01*
X174793D01*
X176207Y460448D01*
Y459034D01*
X174086Y456914D01*
X175500Y463982D02*
X179741Y459741D01*
X181862Y461862D01*
Y463276D01*
X179034Y466103D01*
X177621D01*
X175500Y463982D01*
X180448Y467517D02*
Y468931D01*
X181862Y470344D01*
X183276D01*
X186103Y467517D01*
Y466103D01*
X184689Y464689D01*
X183276D01*
X180448Y467517D01*
X191051Y471051D02*
X188224Y468224D01*
Y473879D01*
X187517Y474586D01*
X186103D01*
X184689Y473172D01*
Y471758D01*
X199500Y455500D02*
X195259Y459741D01*
X197379Y461862D01*
X198793D01*
X200207Y460448D01*
Y459034D01*
X198086Y456914D01*
X199500Y463982D02*
X203741Y459741D01*
X205862Y461862D01*
Y463276D01*
X203034Y466103D01*
X201621D01*
X199500Y463982D01*
X204448Y467517D02*
Y468931D01*
X205862Y470344D01*
X207276D01*
X210103Y467517D01*
Y466103D01*
X208689Y464689D01*
X207276D01*
X204448Y467517D01*
X208689Y471758D02*
Y473172D01*
X210103Y474586D01*
X211517D01*
X212224Y473879D01*
Y472465D01*
X211517Y471758D01*
X212224Y472465D01*
X213638D01*
X214344Y471758D01*
Y470344D01*
X212931Y468931D01*
X211517D01*
X223500Y455500D02*
X219259Y459741D01*
X221379Y461862D01*
X222793D01*
X224207Y460448D01*
Y459034D01*
X222086Y456914D01*
X223500Y463982D02*
X227741Y459741D01*
X229862Y461862D01*
Y463276D01*
X227034Y466103D01*
X225621D01*
X223500Y463982D01*
X228448Y467517D02*
Y468931D01*
X229862Y470344D01*
X231276D01*
X234103Y467517D01*
Y466103D01*
X232689Y464689D01*
X231276D01*
X228448Y467517D01*
X238344Y470344D02*
X234103Y474586D01*
Y470344D01*
X236931Y473172D01*
X247500Y455500D02*
X243259Y459741D01*
X245379Y461862D01*
X246793D01*
X248207Y460448D01*
Y459034D01*
X246086Y456914D01*
X247500Y463982D02*
X251741Y459741D01*
X253862Y461862D01*
Y463276D01*
X251034Y466103D01*
X249621D01*
X247500Y463982D01*
X252448Y467517D02*
Y468931D01*
X253862Y470344D01*
X255276D01*
X258103Y467517D01*
Y466103D01*
X256689Y464689D01*
X255276D01*
X252448Y467517D01*
X258810Y475293D02*
X255982Y472465D01*
X258103Y470344D01*
X258810Y472465D01*
X259517Y473172D01*
X260931D01*
X262344Y471758D01*
Y470344D01*
X260931Y468931D01*
X259517D01*
X271500Y455500D02*
X267259Y459741D01*
X269379Y461862D01*
X270793D01*
X272207Y460448D01*
Y459034D01*
X270086Y456914D01*
X271500Y463982D02*
X275741Y459741D01*
X277862Y461862D01*
Y463276D01*
X275034Y466103D01*
X273621D01*
X271500Y463982D01*
X276448Y467517D02*
Y468931D01*
X277862Y470344D01*
X279276D01*
X282103Y467517D01*
Y466103D01*
X280689Y464689D01*
X279276D01*
X276448Y467517D01*
X282810Y475293D02*
X282103Y473172D01*
Y470344D01*
X283517Y468931D01*
X284931D01*
X286344Y470344D01*
Y471758D01*
X285638Y472465D01*
X284224D01*
X282103Y470344D01*
X295500Y455500D02*
X291259Y459741D01*
X293379Y461862D01*
X294793D01*
X296207Y460448D01*
Y459034D01*
X294086Y456914D01*
X295500Y463982D02*
X299741Y459741D01*
X301862Y461862D01*
Y463276D01*
X299034Y466103D01*
X297621D01*
X295500Y463982D01*
X300448Y467517D02*
Y468931D01*
X301862Y470344D01*
X303276D01*
X306103Y467517D01*
Y466103D01*
X304689Y464689D01*
X303276D01*
X300448Y467517D01*
X303982Y472465D02*
X306810Y475293D01*
X307517Y474586D01*
Y468931D01*
X308224Y468224D01*
X319500Y455500D02*
X315259Y459741D01*
X317379Y461862D01*
X318793D01*
X320207Y460448D01*
Y459034D01*
X318086Y456914D01*
X319500Y463982D02*
X323741Y459741D01*
X325862Y461862D01*
Y463276D01*
X323034Y466103D01*
X321621D01*
X319500Y463982D01*
X324448Y467517D02*
Y468931D01*
X325862Y470344D01*
X327276D01*
X330103Y467517D01*
Y466103D01*
X328689Y464689D01*
X327276D01*
X324448Y467517D01*
X328689Y471758D02*
Y473172D01*
X330103Y474586D01*
X331517D01*
X332224Y473879D01*
Y472465D01*
X333638D01*
X334344Y471758D01*
Y470344D01*
X332931Y468931D01*
X331517D01*
X330810Y469638D01*
Y471051D01*
X329396D01*
X328689Y471758D01*
X330810Y471051D02*
X332224Y472465D01*
X343500Y455500D02*
X339259Y459741D01*
X341379Y461862D01*
X342793D01*
X344207Y460448D01*
Y459034D01*
X342086Y456914D01*
X343500Y463982D02*
X347741Y459741D01*
X349862Y461862D01*
Y463276D01*
X347034Y466103D01*
X345621D01*
X343500Y463982D01*
X348448Y467517D02*
Y468931D01*
X349862Y470344D01*
X351276D01*
X354103Y467517D01*
Y466103D01*
X352689Y464689D01*
X351276D01*
X348448Y467517D01*
X355517Y468931D02*
X356931D01*
X358344Y470344D01*
Y471758D01*
X355517Y474586D01*
X354103D01*
X352689Y473172D01*
Y471758D01*
X353396Y471051D01*
X354810D01*
X356931Y473172D01*
X367500Y455500D02*
X363259Y459741D01*
X365379Y461862D01*
X366793D01*
X368207Y460448D01*
Y459034D01*
X366086Y456914D01*
X367500Y463982D02*
X371741Y459741D01*
X373862Y461862D01*
Y463276D01*
X371034Y466103D01*
X369621D01*
X367500Y463982D01*
X375982D02*
X377396Y465396D01*
X376689Y464689D01*
X372448Y468931D01*
Y467517D01*
X375982Y471051D02*
Y472465D01*
X377396Y473879D01*
X378810D01*
X381638Y471051D01*
Y469638D01*
X380224Y468224D01*
X378810D01*
X375982Y471051D01*
X391500Y455500D02*
X387259Y459741D01*
X389379Y461862D01*
X390793D01*
X392207Y460448D01*
Y459034D01*
X390086Y456914D01*
X391500Y463982D02*
X395741Y459741D01*
X397862Y461862D01*
Y463276D01*
X395034Y466103D01*
X393621D01*
X391500Y463982D01*
X399983D02*
X401396Y465396D01*
X400689Y464689D01*
X396448Y468931D01*
Y467517D01*
X403517D02*
X404931Y468931D01*
X404224Y468224D01*
X399983Y472465D01*
Y471051D01*
X415500Y455500D02*
X411259Y459741D01*
X413379Y461862D01*
X414793D01*
X416207Y460448D01*
Y459034D01*
X414086Y456914D01*
X415500Y463982D02*
X419741Y459741D01*
X421862Y461862D01*
Y463276D01*
X419034Y466103D01*
X417621D01*
X415500Y463982D01*
X423982D02*
X425396Y465396D01*
X424689Y464689D01*
X420448Y468931D01*
Y467517D01*
X430344Y470344D02*
X427517Y467517D01*
Y473172D01*
X426810Y473879D01*
X425396D01*
X423982Y472465D01*
Y471051D01*
X455499Y318998D02*
X454499Y319998D01*
X452500D01*
X451500Y318998D01*
Y315000D01*
X452500Y314000D01*
X454499D01*
X455499Y315000D01*
X461497Y318998D02*
X460497Y319998D01*
X458498D01*
X457498Y318998D01*
Y317999D01*
X458498Y316999D01*
X460497D01*
X461497Y315999D01*
Y315000D01*
X460497Y314000D01*
X458498D01*
X457498Y315000D01*
X463496Y314000D02*
X465495D01*
X464496D01*
Y319998D01*
X463496Y318998D01*
X455499Y308998D02*
X454499Y309998D01*
X452500D01*
X451500Y308998D01*
Y305000D01*
X452500Y304000D01*
X454499D01*
X455499Y305000D01*
X461497Y308998D02*
X460497Y309998D01*
X458498D01*
X457498Y308998D01*
Y307999D01*
X458498Y306999D01*
X460497D01*
X461497Y305999D01*
Y305000D01*
X460497Y304000D01*
X458498D01*
X457498Y305000D01*
X467495Y304000D02*
X463496D01*
X467495Y307999D01*
Y308998D01*
X466495Y309998D01*
X464496D01*
X463496Y308998D01*
X455499Y298998D02*
X454499Y299998D01*
X452500D01*
X451500Y298998D01*
Y295000D01*
X452500Y294000D01*
X454499D01*
X455499Y295000D01*
X461497Y298998D02*
X460497Y299998D01*
X458498D01*
X457498Y298998D01*
Y297999D01*
X458498Y296999D01*
X460497D01*
X461497Y295999D01*
Y295000D01*
X460497Y294000D01*
X458498D01*
X457498Y295000D01*
X463496Y298998D02*
X464496Y299998D01*
X466495D01*
X467495Y298998D01*
Y297999D01*
X466495Y296999D01*
X465495D01*
X466495D01*
X467495Y295999D01*
Y295000D01*
X466495Y294000D01*
X464496D01*
X463496Y295000D01*
X455499Y288998D02*
X454499Y289998D01*
X452500D01*
X451500Y288998D01*
Y285000D01*
X452500Y284000D01*
X454499D01*
X455499Y285000D01*
X461497Y288998D02*
X460497Y289998D01*
X458498D01*
X457498Y288998D01*
Y287999D01*
X458498Y286999D01*
X460497D01*
X461497Y285999D01*
Y285000D01*
X460497Y284000D01*
X458498D01*
X457498Y285000D01*
X466495Y284000D02*
Y289998D01*
X463496Y286999D01*
X467495D01*
X455499Y273998D02*
X454499Y274998D01*
X452500D01*
X451500Y273998D01*
Y270000D01*
X452500Y269000D01*
X454499D01*
X455499Y270000D01*
X461497Y273998D02*
X460497Y274998D01*
X458498D01*
X457498Y273998D01*
Y272999D01*
X458498Y271999D01*
X460497D01*
X461497Y270999D01*
Y270000D01*
X460497Y269000D01*
X458498D01*
X457498Y270000D01*
X467495Y274998D02*
X463496D01*
Y271999D01*
X465495Y272999D01*
X466495D01*
X467495Y271999D01*
Y270000D01*
X466495Y269000D01*
X464496D01*
X463496Y270000D01*
X455499Y263998D02*
X454499Y264998D01*
X452500D01*
X451500Y263998D01*
Y260000D01*
X452500Y259000D01*
X454499D01*
X455499Y260000D01*
X461497Y263998D02*
X460497Y264998D01*
X458498D01*
X457498Y263998D01*
Y262999D01*
X458498Y261999D01*
X460497D01*
X461497Y260999D01*
Y260000D01*
X460497Y259000D01*
X458498D01*
X457498Y260000D01*
X467495Y264998D02*
X465495Y263998D01*
X463496Y261999D01*
Y260000D01*
X464496Y259000D01*
X466495D01*
X467495Y260000D01*
Y260999D01*
X466495Y261999D01*
X463496D01*
X455499Y243998D02*
X454499Y244998D01*
X452500D01*
X451500Y243998D01*
Y240000D01*
X452500Y239000D01*
X454499D01*
X455499Y240000D01*
X461497Y243998D02*
X460497Y244998D01*
X458498D01*
X457498Y243998D01*
Y242999D01*
X458498Y241999D01*
X460497D01*
X461497Y240999D01*
Y240000D01*
X460497Y239000D01*
X458498D01*
X457498Y240000D01*
X463496Y243998D02*
X464496Y244998D01*
X466495D01*
X467495Y243998D01*
Y242999D01*
X466495Y241999D01*
X467495Y240999D01*
Y240000D01*
X466495Y239000D01*
X464496D01*
X463496Y240000D01*
Y240999D01*
X464496Y241999D01*
X463496Y242999D01*
Y243998D01*
X464496Y241999D02*
X466495D01*
X455499Y253998D02*
X454499Y254998D01*
X452500D01*
X451500Y253998D01*
Y250000D01*
X452500Y249000D01*
X454499D01*
X455499Y250000D01*
X461497Y253998D02*
X460497Y254998D01*
X458498D01*
X457498Y253998D01*
Y252999D01*
X458498Y251999D01*
X460497D01*
X461497Y250999D01*
Y250000D01*
X460497Y249000D01*
X458498D01*
X457498Y250000D01*
X463496Y254998D02*
X467495D01*
Y253998D01*
X463496Y250000D01*
Y249000D01*
X441999Y449998D02*
X440000D01*
X439000Y448998D01*
Y445000D01*
X440000Y444000D01*
X441999D01*
X442999Y445000D01*
Y448998D01*
X441999Y449998D01*
X444998D02*
Y445000D01*
X445998Y444000D01*
X447997D01*
X448997Y445000D01*
Y449998D01*
X450996D02*
X454995D01*
X452995D01*
Y444000D01*
X456994Y448998D02*
X457994Y449998D01*
X459993D01*
X460993Y448998D01*
Y445000D01*
X459993Y444000D01*
X457994D01*
X456994Y445000D01*
Y448998D01*
X462992Y444000D02*
X464992D01*
X463992D01*
Y449998D01*
X462992Y448998D01*
X441999Y439998D02*
X440000D01*
X439000Y438998D01*
Y435000D01*
X440000Y434000D01*
X441999D01*
X442999Y435000D01*
Y438998D01*
X441999Y439998D01*
X444998D02*
Y435000D01*
X445998Y434000D01*
X447997D01*
X448997Y435000D01*
Y439998D01*
X450996D02*
X454995D01*
X452995D01*
Y434000D01*
X456994Y438998D02*
X457994Y439998D01*
X459993D01*
X460993Y438998D01*
Y435000D01*
X459993Y434000D01*
X457994D01*
X456994Y435000D01*
Y438998D01*
X466991Y434000D02*
X462992D01*
X466991Y437999D01*
Y438998D01*
X465991Y439998D01*
X463992D01*
X462992Y438998D01*
X441999Y429998D02*
X440000D01*
X439000Y428998D01*
Y425000D01*
X440000Y424000D01*
X441999D01*
X442999Y425000D01*
Y428998D01*
X441999Y429998D01*
X444998D02*
Y425000D01*
X445998Y424000D01*
X447997D01*
X448997Y425000D01*
Y429998D01*
X450996D02*
X454995D01*
X452995D01*
Y424000D01*
X456994Y428998D02*
X457994Y429998D01*
X459993D01*
X460993Y428998D01*
Y425000D01*
X459993Y424000D01*
X457994D01*
X456994Y425000D01*
Y428998D01*
X462992D02*
X463992Y429998D01*
X465991D01*
X466991Y428998D01*
Y427999D01*
X465991Y426999D01*
X464992D01*
X465991D01*
X466991Y425999D01*
Y425000D01*
X465991Y424000D01*
X463992D01*
X462992Y425000D01*
X441999Y419998D02*
X440000D01*
X439000Y418998D01*
Y415000D01*
X440000Y414000D01*
X441999D01*
X442999Y415000D01*
Y418998D01*
X441999Y419998D01*
X444998D02*
Y415000D01*
X445998Y414000D01*
X447997D01*
X448997Y415000D01*
Y419998D01*
X450996D02*
X454995D01*
X452995D01*
Y414000D01*
X456994Y418998D02*
X457994Y419998D01*
X459993D01*
X460993Y418998D01*
Y415000D01*
X459993Y414000D01*
X457994D01*
X456994Y415000D01*
Y418998D01*
X465991Y414000D02*
Y419998D01*
X462992Y416999D01*
X466991D01*
X441999Y409998D02*
X440000D01*
X439000Y408998D01*
Y405000D01*
X440000Y404000D01*
X441999D01*
X442999Y405000D01*
Y408998D01*
X441999Y409998D01*
X444998D02*
Y405000D01*
X445998Y404000D01*
X447997D01*
X448997Y405000D01*
Y409998D01*
X450996D02*
X454995D01*
X452995D01*
Y404000D01*
X456994Y408998D02*
X457994Y409998D01*
X459993D01*
X460993Y408998D01*
Y405000D01*
X459993Y404000D01*
X457994D01*
X456994Y405000D01*
Y408998D01*
X466991Y409998D02*
X462992D01*
Y406999D01*
X464992Y407999D01*
X465991D01*
X466991Y406999D01*
Y405000D01*
X465991Y404000D01*
X463992D01*
X462992Y405000D01*
X441999Y399998D02*
X440000D01*
X439000Y398998D01*
Y395000D01*
X440000Y394000D01*
X441999D01*
X442999Y395000D01*
Y398998D01*
X441999Y399998D01*
X444998D02*
Y395000D01*
X445998Y394000D01*
X447997D01*
X448997Y395000D01*
Y399998D01*
X450996D02*
X454995D01*
X452995D01*
Y394000D01*
X456994Y398998D02*
X457994Y399998D01*
X459993D01*
X460993Y398998D01*
Y395000D01*
X459993Y394000D01*
X457994D01*
X456994Y395000D01*
Y398998D01*
X466991Y399998D02*
X464992Y398998D01*
X462992Y396999D01*
Y395000D01*
X463992Y394000D01*
X465991D01*
X466991Y395000D01*
Y395999D01*
X465991Y396999D01*
X462992D01*
X441999Y384998D02*
X440000D01*
X439000Y383998D01*
Y380000D01*
X440000Y379000D01*
X441999D01*
X442999Y380000D01*
Y383998D01*
X441999Y384998D01*
X444998D02*
Y380000D01*
X445998Y379000D01*
X447997D01*
X448997Y380000D01*
Y384998D01*
X450996D02*
X454995D01*
X452995D01*
Y379000D01*
X456994Y383998D02*
X457994Y384998D01*
X459993D01*
X460993Y383998D01*
Y380000D01*
X459993Y379000D01*
X457994D01*
X456994Y380000D01*
Y383998D01*
X462992Y384998D02*
X466991D01*
Y383998D01*
X462992Y380000D01*
Y379000D01*
X441999Y374998D02*
X440000D01*
X439000Y373998D01*
Y370000D01*
X440000Y369000D01*
X441999D01*
X442999Y370000D01*
Y373998D01*
X441999Y374998D01*
X444998D02*
Y370000D01*
X445998Y369000D01*
X447997D01*
X448997Y370000D01*
Y374998D01*
X450996D02*
X454995D01*
X452995D01*
Y369000D01*
X456994Y373998D02*
X457994Y374998D01*
X459993D01*
X460993Y373998D01*
Y370000D01*
X459993Y369000D01*
X457994D01*
X456994Y370000D01*
Y373998D01*
X462992D02*
X463992Y374998D01*
X465991D01*
X466991Y373998D01*
Y372999D01*
X465991Y371999D01*
X466991Y370999D01*
Y370000D01*
X465991Y369000D01*
X463992D01*
X462992Y370000D01*
Y370999D01*
X463992Y371999D01*
X462992Y372999D01*
Y373998D01*
X463992Y371999D02*
X465991D01*
X441999Y364998D02*
X440000D01*
X439000Y363998D01*
Y360000D01*
X440000Y359000D01*
X441999D01*
X442999Y360000D01*
Y363998D01*
X441999Y364998D01*
X444998D02*
Y360000D01*
X445998Y359000D01*
X447997D01*
X448997Y360000D01*
Y364998D01*
X450996D02*
X454995D01*
X452995D01*
Y359000D01*
X456994Y363998D02*
X457994Y364998D01*
X459993D01*
X460993Y363998D01*
Y360000D01*
X459993Y359000D01*
X457994D01*
X456994Y360000D01*
Y363998D01*
X462992Y360000D02*
X463992Y359000D01*
X465991D01*
X466991Y360000D01*
Y363998D01*
X465991Y364998D01*
X463992D01*
X462992Y363998D01*
Y362999D01*
X463992Y361999D01*
X466991D01*
X441999Y354998D02*
X440000D01*
X439000Y353998D01*
Y350000D01*
X440000Y349000D01*
X441999D01*
X442999Y350000D01*
Y353998D01*
X441999Y354998D01*
X444998D02*
Y350000D01*
X445998Y349000D01*
X447997D01*
X448997Y350000D01*
Y354998D01*
X450996D02*
X454995D01*
X452995D01*
Y349000D01*
X456994D02*
X458993D01*
X457994D01*
Y354998D01*
X456994Y353998D01*
X461993D02*
X462992Y354998D01*
X464992D01*
X465991Y353998D01*
Y350000D01*
X464992Y349000D01*
X462992D01*
X461993Y350000D01*
Y353998D01*
X441999Y344998D02*
X440000D01*
X439000Y343998D01*
Y340000D01*
X440000Y339000D01*
X441999D01*
X442999Y340000D01*
Y343998D01*
X441999Y344998D01*
X444998D02*
Y340000D01*
X445998Y339000D01*
X447997D01*
X448997Y340000D01*
Y344998D01*
X450996D02*
X454995D01*
X452995D01*
Y339000D01*
X456994D02*
X458993D01*
X457994D01*
Y344998D01*
X456994Y343998D01*
X461993Y339000D02*
X463992D01*
X462992D01*
Y344998D01*
X461993Y343998D01*
X441999Y334998D02*
X440000D01*
X439000Y333998D01*
Y330000D01*
X440000Y329000D01*
X441999D01*
X442999Y330000D01*
Y333998D01*
X441999Y334998D01*
X444998D02*
Y330000D01*
X445998Y329000D01*
X447997D01*
X448997Y330000D01*
Y334998D01*
X450996D02*
X454995D01*
X452995D01*
Y329000D01*
X456994D02*
X458993D01*
X457994D01*
Y334998D01*
X456994Y333998D01*
X465991Y329000D02*
X461993D01*
X465991Y332999D01*
Y333998D01*
X464992Y334998D01*
X462992D01*
X461993Y333998D01*
M02*
