M48
;Layer_Color=9474304
;FILE_FORMAT=4:4
METRIC,LZ
;TYPE=PLATED
T1F00S00C0.7112
T2F00S00C0.8000
T3F00S00C1.0000
T4F00S00C1.5000
T5F00S00C3.1000
%
T01
X0079883Y0070104
X0080899
X009017
X0091186
X010033
X0101346
X011049
X0111506
X0070866
X006985
X0060706Y0070231
X005969
X0050546Y0070104
X0049403
X0040386
X003937
X0032512Y007112
X0031496
X0047117Y0091948
Y0092964
X0044704Y0100076
X0043942Y0100838
X0060071Y0094742
X0061087
X0065151Y0098425
Y0099441
X0067691Y0092837
Y0091821
X0080264Y0094869
X0081407
X0089535Y0092964
Y0091821
X0088646Y0099441
X0087503
X0101981Y0094615
X0103124
T02
X0032766Y0102616
X0035306
X0049517Y0099822
Y0097282
Y0092202
Y0089662
X0060185
Y0092202
Y0097282
Y0099822
X0069837
Y0097282
Y0092202
Y0089662
X0080505
Y0092202
Y0097282
Y0099822
X0091935
Y0097282
Y0092202
Y0089662
X0102603
Y0092202
Y0097282
Y0099822
T03
X0122428Y0061468
Y0064008
Y0066548
Y0069088
Y0072898
Y0075438
Y0077978
X0034798Y0084074
Y0086614
X0035306Y0111506
X0032766
X0038862
X0041402
X0044958
X0047498
X0051054
X0053594
X005715
X005969
X0063246
X0065786
X0069342
X0071882
X0075438
X0077978
X0081534
X0084074
X008763
X009017
X0093726
X0096266
X0099822
X0102362
X0105918
X0108458
X0122428Y0110998
Y0108458
Y0105918
Y0103378
Y0100838
Y0097028
Y0094488
Y0091948
Y0089408
Y0086868
Y0084328
Y0080518
Y0113538
T04
X0084328Y0063754
X0089408
X0094488
X0099568
X0104648
X0109728
X0079248
X0074168
X0069088
X0064008
X0058928
X0053848
X0048768
X0043688
X0038608
X0033528
T05
X0123Y00575
X003
Y0118
X0123
M30
