M48
;Layer_Color=9474304
;FILE_FORMAT=4:4
METRIC,LZ
;TYPE=PLATED
T1F00S00C0.7000
T2F00S00C0.8000
T3F00S00C0.9000
T4F00S00C1.0000
T5F00S00C1.1000
T6F00S00C1.5000
T7F00S00C3.1000
%
T01
X0083566Y0087376
X0087122Y0092202
Y0094996
X0090678Y0090932
X0094234Y0090424
X0096393Y0092456
X0100076Y0085598
Y0083566
X0106934Y009271
X0105664Y0103886
X0104648Y0106934
X012192Y0115316
X015494Y0117094
Y010922
Y0106426
Y0098552
Y0095758
Y0088138
Y0085344
X0164846Y0090932
Y0091948
Y0101092
Y0102108
Y0111506
Y0112522
X015494Y0119888
X0146558Y0122682
T02
X0098044Y0090932
X0100584
X0103124
Y0096012
X0100584
X0098044
Y0101092
X0100584
X0103124
Y0109474
X0100584
X0098044
X0115316Y009017
Y008763
X0122428Y0087122
X0124968
X0127508
X0132588
X0135128
X0137668
X0140208
X0140716Y009271
X0143256
X0145791
X0148331
X0148336Y009525
X0145796
X0143261
X0140721
X013716Y010287
Y010541
Y011557
Y011811
X012446
Y011557
X0124714Y010541
Y010287
X0123703Y0122682
X0126243
X0128778
X0131318
X0136144
X0138684
X0141219
X0143759
T03
X0127254Y010287
Y010541
Y010795
Y011049
Y011303
Y011557
Y011811
X0134874
Y011557
Y011303
Y011049
Y010795
Y010541
Y010287
T04
X0090932Y009495
X0093472
Y009755
X0090932
Y010015
X0093472
Y010275
X0090932
Y010535
X0093472
Y010795
Y011049
X0090932
Y011303
Y011557
Y011811
X0093472
Y011557
Y011303
X0098806Y0115062
X0101346
X0108966
X01143Y0115824
Y0113284
X011684
Y0110744
Y0108204
Y0105664
X01143
Y0108204
Y0110744
X011684Y0115824
Y0118424
X01143
X008382Y011811
X008128
Y011557
Y011303
Y011049
X008382
Y010795
X008128
X008382Y011303
Y011557
X0090932Y010795
X0108204Y0087122
Y0084582
X012827Y0092456
Y0094996
X0144018Y0103632
X0146558
Y0106172
Y0108712
Y0111252
X0144018
Y0113792
X0146558
X0144018Y0108712
Y0106172
X0108966Y0120142
X0101346
X0098806
T05
X0109254Y009398
X0109288Y0097536
X0119888
X0119854Y009398
T06
X0168656Y0084582
Y0089662
Y0094742
Y0099822
Y0104902
Y0109982
Y0115062
Y0120142
T07
X0076708Y0080264
X0174244
Y0123952
X0076708
M30
